<?xml version="1.0" encoding="UTF-8" standalone="no"?>
<!-- Created with Inkscape (http://www.inkscape.org/) -->

<svg
   version="1.1"
   id="svg2"
   width="1000"
   height="666.66669"
   viewBox="0 0 1000 666.66669"
   sodipodi:docname="banner01.svg"
   inkscape:export-filename="banner01.png"
   inkscape:export-xdpi="96"
   inkscape:export-ydpi="96"
   inkscape:version="1.2.1 (9c6d41e410, 2022-07-14)"
   xmlns:inkscape="http://www.inkscape.org/namespaces/inkscape"
   xmlns:sodipodi="http://sodipodi.sourceforge.net/DTD/sodipodi-0.dtd"
   xmlns="http://www.w3.org/2000/svg"
   xmlns:svg="http://www.w3.org/2000/svg">
  <defs
     id="defs6">
    <clipPath
       clipPathUnits="userSpaceOnUse"
       id="clipPath20">
      <path
         d="M 2,0 H 750 V 500 H 2 Z"
         id="path18" />
    </clipPath>
    <clipPath
       clipPathUnits="userSpaceOnUse"
       id="clipPath28">
      <path
         d="M -26.4504,517.43 H 798.975 V -7.2966 H -26.4504 Z"
         id="path26" />
    </clipPath>
    <clipPath
       clipPathUnits="userSpaceOnUse"
       id="clipPath208">
      <path
         d="m 36.564,234.683 c -0.705,-5.637 -1.19,-11.273 -2.885,-10.762 v 0 c -3.489,1.05 -0.402,15.751 -7.683,15.474 v 0 c -7.282,-0.276 1.713,-24.372 -2.812,-21.983 v 0 c -4.525,2.391 -6.964,6.93 -10.832,5.009 v 0 c -3.004,-1.491 5.724,-16.482 9.783,-23.12 v 0 c -1.268,-6.806 -6.823,-41.586 2.826,-84.617 v 0 C 34.007,74.335 47.253,47.087 51.269,39.383 v 0 C 45.724,25.111 40.096,11.95 34.379,0 V 0 H 158.33 c 13.579,2.858 31.155,7.484 51.014,14.92 v 0 c 37.075,13.883 59.047,36.725 66.243,45.154 v 0 c 6.902,0.169 26.437,0.962 26.017,4.496 v 0 c -0.509,4.289 -5.643,3.847 -10.119,6.328 v 0 c -4.476,2.479 20.616,8.133 16.864,14.379 v 0 c -2.122,3.531 -6.438,1.669 -10.292,-0.193 v 0 c -2.963,-1.431 -5.654,-2.863 -6.866,-1.842 v 0 c -2.787,2.346 19.009,14.634 13.755,18.026 v 0 c -2.912,1.88 -8.034,-1.026 -12.739,-3.932 v 0 c -3.782,-2.337 -7.296,-4.673 -9.177,-4.523 v 0 c -4.223,0.336 13.621,16.337 9.143,18.819 v 0 c -4.475,2.479 -15.496,-13.215 -21.152,-14.89 v 0 c -2.775,-0.822 -2.85,2.741 -3.081,6.304 v 0 c -0.239,3.702 -0.647,7.404 -4.424,6.189 v 0 c -7.127,-2.292 -8.965,-26.988 -9.096,-28.889 v 0 C 239.491,70.23 182.266,34.884 127.292,46.252 v 0 l 9.224,17.046 -29.014,15.698 -9.694,-17.916 c -0.451,0.157 -21.441,22.698 -32.417,53.399 v 0 C 52.906,149.4 52.482,184.327 52.522,192.445 v 0 c 4.533,3.56 19.811,16.125 18.055,22.53 v 0 c -1.077,3.927 -4.547,2.05 -7.854,0.174 v 0 c -3.019,-1.712 -5.902,-3.424 -6.709,-0.728 v 0 c -1.693,5.652 5.416,23.462 0.89,25.853 v 0 c -2.221,1.173 -4.228,-3.94 -6.002,-9.053 v 0 c -1.839,-5.301 -3.428,-10.602 -4.746,-8.897 v 0 c -2.592,3.352 0.8,20.429 -4.913,22.972 v 0 c -0.277,0.123 -0.537,0.182 -0.781,0.182 v 0 c -2.342,0 -3.221,-5.397 -3.898,-10.795"
         id="path206" />
    </clipPath>
    <clipPath
       clipPathUnits="userSpaceOnUse"
       id="clipPath220">
      <path
         d="M 2,0 H 750 V 500 H 2 Z"
         id="path218" />
    </clipPath>
    <clipPath
       clipPathUnits="userSpaceOnUse"
       id="clipPath392">
      <path
         d="m 680.072,207.08 c 0,0 -0.637,-12.937 -1.69,-41.21 v 0 c -1.052,-28.272 -13.411,-50.528 -13.411,-50.528 v 0 c 0,0 12.522,-15.974 -1.99,-26.519 v 0 C 648.469,78.277 638.94,87.744 638.94,87.744 v 0 C 615.871,71.181 535.926,79.73 535.926,79.73 v 0 c 0,0 -0.843,-37.839 0.095,-39.591 v 0 c 0,0 20.191,-5.772 44.635,-8.343 v 0 c 24.444,-2.57 66.569,0.472 66.569,0.472 v 0 C 652.175,28.159 665.591,13.908 678.381,0 v 0 h 65.753 c 1.965,2.64 3.928,5.204 5.866,7.675 v 0 65.909 c -15.361,18.134 -31.018,36.706 -31.018,36.706 v 0 c 0,0 -1.697,-6.741 2.794,22.045 v 0 c 4.49,28.786 -4.042,84.149 -4.042,84.149 v 0 z"
         id="path390" />
    </clipPath>
    <clipPath
       clipPathUnits="userSpaceOnUse"
       id="clipPath404">
      <path
         d="M 2,0 H 750 V 500 H 2 Z"
         id="path402" />
    </clipPath>
    <clipPath
       clipPathUnits="userSpaceOnUse"
       id="clipPath508">
      <path
         d="M 0,500 H 750 V 0 H 0 Z"
         id="path506" />
    </clipPath>
  </defs>
  <sodipodi:namedview
     id="namedview4"
     pagecolor="#ffffff"
     bordercolor="#000000"
     borderopacity="0.25"
     inkscape:showpageshadow="2"
     inkscape:pageopacity="0.0"
     inkscape:pagecheckerboard="0"
     inkscape:deskcolor="#d1d1d1"
     showgrid="false"
     inkscape:zoom="1.335"
     inkscape:cx="500.37453"
     inkscape:cy="333.33333"
     inkscape:window-width="2560"
     inkscape:window-height="1387"
     inkscape:window-x="-8"
     inkscape:window-y="-8"
     inkscape:window-maximized="1"
     inkscape:current-layer="g10">
    <inkscape:page
       x="0"
       y="0"
       id="page8"
       width="1000"
       height="666.66669" />
  </sodipodi:namedview>
  <g
     id="g10"
     inkscape:groupmode="layer"
     inkscape:label="Page 1"
     transform="matrix(1.3333333,0,0,-1.3333333,0,666.66667)">
    <path
       d="M 1.0224711,-0.75280898 H 749.02247 V 499.24719 H 1.0224711 Z"
       style="fill:#ffe9c2;fill-opacity:1;fill-rule:nonzero;stroke:none"
       id="path12" />
    <g
       id="g14">
      <g
         id="g16"
         clip-path="url(#clipPath20)">
        <g
           id="g22">
          <g
             id="g24" />
          <g
             id="g116">
            <g
               clip-path="url(#clipPath28)"
               opacity="0.479996"
               id="g114">
              <g
                 transform="translate(326.4878,16.6711)"
                 id="g32">
                <path
                   d="m 0,0 c -0.667,8.664 -6.929,11.851 -17.305,17.131 -3.495,1.778 -7.457,3.794 -11.715,6.299 -8.487,4.992 -12.466,11.612 -16.314,18.013 -4.15,6.903 -8.07,13.423 -17.528,17.903 -6.914,3.276 -12.97,3.774 -18.312,4.214 -8.763,0.72 -16.331,1.343 -19.772,15.109 l 3.881,0.97 c 2.746,-10.985 7.531,-11.378 16.219,-12.093 5.401,-0.444 12.123,-0.998 19.696,-4.585 10.551,-4.997 14.97,-12.348 19.244,-19.457 3.756,-6.248 7.303,-12.15 14.914,-16.627 4.153,-2.442 8.057,-4.429 11.501,-6.182 C -4.669,15.189 3.149,11.211 3.988,0.307 Z"
                   style="fill:#d5c0ff;fill-opacity:1;fill-rule:nonzero;stroke:none"
                   id="path30" />
              </g>
              <g
                 transform="translate(318.4878,8.6711)"
                 id="g36">
                <path
                   d="m 0,0 c -0.667,8.664 -6.929,11.851 -17.305,17.131 -3.495,1.778 -7.457,3.794 -11.715,6.299 -8.487,4.992 -12.466,11.612 -16.314,18.013 -4.15,6.903 -8.07,13.423 -17.528,17.903 -6.914,3.276 -12.97,3.774 -18.312,4.214 -8.763,0.72 -16.331,1.343 -19.772,15.109 l 3.881,0.97 c 2.746,-10.985 7.531,-11.378 16.219,-12.093 5.401,-0.444 12.123,-0.998 19.696,-4.585 10.551,-4.997 14.97,-12.348 19.244,-19.457 3.756,-6.248 7.303,-12.15 14.914,-16.627 4.153,-2.442 8.057,-4.429 11.501,-6.182 C -4.669,15.189 3.149,11.211 3.988,0.307 Z"
                   style="fill:#d5c0ff;fill-opacity:1;fill-rule:nonzero;stroke:none"
                   id="path34" />
              </g>
              <g
                 transform="translate(312.4878,0.6711)"
                 id="g40">
                <path
                   d="m 0,0 c -0.667,8.664 -6.929,11.851 -17.305,17.131 -3.495,1.778 -7.457,3.794 -11.715,6.299 -8.487,4.992 -12.466,11.611 -16.314,18.012 -4.15,6.904 -8.07,13.424 -17.528,17.904 -6.914,3.276 -12.97,3.774 -18.312,4.214 -8.763,0.72 -16.331,1.343 -19.772,15.109 l 3.881,0.97 c 2.746,-10.985 7.531,-11.378 16.219,-12.093 5.401,-0.444 12.123,-0.998 19.696,-4.585 10.551,-4.997 14.97,-12.348 19.244,-19.457 3.756,-6.248 7.303,-12.15 14.914,-16.627 4.153,-2.442 8.057,-4.429 11.501,-6.182 C -4.669,15.189 3.149,11.211 3.988,0.307 Z"
                   style="fill:#d5c0ff;fill-opacity:1;fill-rule:nonzero;stroke:none"
                   id="path38" />
              </g>
              <g
                 transform="translate(794.9869,329.6692)"
                 id="g44">
                <path
                   d="m 0,0 c -0.667,8.664 -6.929,11.851 -17.305,17.13 -3.495,1.779 -7.457,3.794 -11.715,6.3 -8.487,4.992 -12.466,11.611 -16.314,18.012 -4.15,6.904 -8.07,13.424 -17.528,17.904 -6.914,3.275 -12.97,3.773 -18.312,4.213 -8.763,0.721 -16.331,1.343 -19.772,15.109 l 3.881,0.97 c 2.746,-10.984 7.531,-11.378 16.219,-12.093 5.401,-0.444 12.123,-0.997 19.696,-4.584 10.551,-4.998 14.97,-12.349 19.244,-19.458 3.756,-6.248 7.303,-12.149 14.914,-16.626 4.153,-2.443 8.057,-4.429 11.501,-6.182 C -4.669,15.189 3.149,11.21 3.988,0.307 Z"
                   style="fill:#ffb6bd;fill-opacity:1;fill-rule:nonzero;stroke:none"
                   id="path42" />
              </g>
              <g
                 transform="translate(786.9869,321.6692)"
                 id="g48">
                <path
                   d="m 0,0 c -0.667,8.664 -6.929,11.851 -17.305,17.13 -3.495,1.779 -7.457,3.794 -11.715,6.3 -8.487,4.992 -12.466,11.611 -16.314,18.012 -4.15,6.904 -8.07,13.424 -17.528,17.904 -6.914,3.275 -12.97,3.773 -18.312,4.213 -8.763,0.721 -16.331,1.343 -19.772,15.109 l 3.881,0.97 c 2.746,-10.984 7.531,-11.378 16.219,-12.093 5.401,-0.444 12.123,-0.997 19.696,-4.584 10.551,-4.998 14.97,-12.349 19.244,-19.458 3.756,-6.248 7.303,-12.149 14.914,-16.626 4.153,-2.443 8.057,-4.429 11.501,-6.182 C -4.669,15.189 3.149,11.21 3.988,0.307 Z"
                   style="fill:#ffb6bd;fill-opacity:1;fill-rule:nonzero;stroke:none"
                   id="path46" />
              </g>
              <g
                 transform="translate(780.9869,313.6692)"
                 id="g52">
                <path
                   d="m 0,0 c -0.667,8.664 -6.929,11.851 -17.305,17.13 -3.495,1.779 -7.457,3.794 -11.715,6.3 -8.487,4.992 -12.466,11.611 -16.314,18.012 -4.15,6.904 -8.07,13.424 -17.528,17.904 -6.914,3.275 -12.97,3.773 -18.312,4.213 -8.763,0.721 -16.331,1.343 -19.772,15.109 l 3.881,0.97 c 2.746,-10.984 7.531,-11.378 16.219,-12.093 5.401,-0.444 12.123,-0.997 19.696,-4.584 10.551,-4.998 14.97,-12.349 19.244,-19.458 3.756,-6.248 7.303,-12.149 14.914,-16.626 4.153,-2.443 8.057,-4.429 11.501,-6.182 C -4.669,15.189 3.149,11.21 3.988,0.307 Z"
                   style="fill:#ffb6bd;fill-opacity:1;fill-rule:nonzero;stroke:none"
                   id="path50" />
              </g>
              <g
                 transform="translate(479.3863,364.9885)"
                 id="g56">
                <path
                   d="m 0,0 c -0.162,0.13 -16.334,13.042 -30.622,20.824 -5.833,3.177 -10.518,3.416 -15.479,3.668 -6.768,0.344 -13.767,0.7 -22.555,9.123 -8.198,7.859 -13.614,8.969 -22.585,10.807 -4.004,0.821 -8.541,1.751 -14.282,3.431 l 1.123,3.839 c 5.583,-1.634 10.034,-2.546 13.962,-3.351 9.344,-1.915 15.518,-3.18 24.55,-11.838 7.712,-7.392 13.402,-7.681 19.99,-8.016 4.948,-0.252 10.557,-0.537 17.19,-4.15 C -14.105,16.383 2.336,3.253 2.501,3.122 Z"
                   style="fill:#efcd97;fill-opacity:1;fill-rule:nonzero;stroke:none"
                   id="path54" />
              </g>
              <g
                 transform="translate(475.646,357.2419)"
                 id="g60">
                <path
                   d="m 0,0 c -0.162,0.13 -16.335,13.042 -30.622,20.824 -5.833,3.177 -10.518,3.416 -15.479,3.668 -6.768,0.344 -13.767,0.7 -22.555,9.123 -8.199,7.859 -13.614,8.969 -22.586,10.807 -4.003,0.821 -8.54,1.751 -14.281,3.431 l 1.123,3.839 c 5.583,-1.634 10.034,-2.546 13.962,-3.351 9.344,-1.915 15.517,-3.18 24.55,-11.838 7.712,-7.392 13.402,-7.681 19.99,-8.016 4.948,-0.252 10.557,-0.537 17.19,-4.15 C -14.106,16.383 2.336,3.253 2.501,3.122 Z"
                   style="fill:#efcd97;fill-opacity:1;fill-rule:nonzero;stroke:none"
                   id="path58" />
              </g>
              <g
                 transform="translate(471.9053,349.4954)"
                 id="g64">
                <path
                   d="m 0,0 c -0.162,0.13 -16.334,13.042 -30.621,20.824 -5.833,3.177 -10.519,3.416 -15.48,3.668 -6.768,0.344 -13.766,0.7 -22.554,9.123 -8.199,7.859 -13.615,8.969 -22.586,10.807 -4.004,0.821 -8.541,1.751 -14.282,3.431 l 1.123,3.839 c 5.583,-1.634 10.034,-2.546 13.962,-3.351 9.344,-1.915 15.518,-3.18 24.55,-11.838 7.713,-7.392 13.402,-7.681 19.991,-8.016 4.947,-0.252 10.556,-0.537 17.189,-4.15 C -14.105,16.383 2.336,3.253 2.501,3.122 Z"
                   style="fill:#efcd97;fill-opacity:1;fill-rule:nonzero;stroke:none"
                   id="path62" />
              </g>
              <g
                 transform="translate(238.3863,235.9885)"
                 id="g68">
                <path
                   d="m 0,0 c -0.162,0.13 -16.334,13.042 -30.622,20.824 -5.833,3.177 -10.518,3.416 -15.479,3.668 -6.768,0.344 -13.767,0.7 -22.555,9.123 -8.198,7.859 -13.614,8.969 -22.585,10.807 -4.004,0.821 -8.541,1.751 -14.282,3.431 l 1.123,3.839 c 5.583,-1.634 10.034,-2.546 13.962,-3.351 9.344,-1.915 15.518,-3.18 24.55,-11.838 7.712,-7.392 13.402,-7.681 19.99,-8.016 4.948,-0.252 10.557,-0.537 17.19,-4.15 C -14.105,16.383 2.336,3.253 2.501,3.122 Z"
                   style="fill:#efcd97;fill-opacity:1;fill-rule:nonzero;stroke:none"
                   id="path66" />
              </g>
              <g
                 transform="translate(234.646,228.2419)"
                 id="g72">
                <path
                   d="m 0,0 c -0.162,0.13 -16.335,13.042 -30.622,20.824 -5.833,3.177 -10.518,3.416 -15.479,3.668 -6.768,0.344 -13.767,0.7 -22.555,9.123 -8.199,7.859 -13.614,8.969 -22.586,10.807 -4.003,0.821 -8.54,1.751 -14.281,3.431 l 1.123,3.839 c 5.583,-1.634 10.034,-2.546 13.962,-3.351 9.344,-1.915 15.517,-3.18 24.55,-11.838 7.712,-7.392 13.402,-7.681 19.99,-8.016 4.948,-0.252 10.557,-0.537 17.19,-4.15 C -14.106,16.383 2.336,3.253 2.501,3.122 Z"
                   style="fill:#efcd97;fill-opacity:1;fill-rule:nonzero;stroke:none"
                   id="path70" />
              </g>
              <g
                 transform="translate(230.9053,220.4953)"
                 id="g76">
                <path
                   d="m 0,0 c -0.162,0.13 -16.334,13.042 -30.621,20.824 -5.833,3.177 -10.519,3.416 -15.48,3.668 -6.768,0.344 -13.766,0.7 -22.554,9.123 -8.199,7.859 -13.615,8.969 -22.586,10.807 -4.003,0.821 -8.541,1.751 -14.282,3.431 l 1.123,3.839 c 5.583,-1.634 10.035,-2.546 13.962,-3.351 9.344,-1.915 15.518,-3.18 24.55,-11.838 7.713,-7.392 13.402,-7.681 19.991,-8.016 4.947,-0.252 10.556,-0.537 17.189,-4.15 C -14.105,16.383 2.336,3.253 2.501,3.122 Z"
                   style="fill:#efcd97;fill-opacity:1;fill-rule:nonzero;stroke:none"
                   id="path74" />
              </g>
              <g
                 transform="translate(552.6763,103.3582)"
                 id="g80">
                <path
                   d="m 0,0 c -8.938,1.135 -12.979,5.206 -16.887,9.142 -3.589,3.616 -6.979,7.031 -14.552,7.993 -17.529,2.225 -21.491,7.059 -27.52,16.123 -7.085,10.653 -29.055,8.662 -29.275,8.642 l -0.385,3.981 c 1.002,0.095 24.592,2.221 32.992,-10.408 5.659,-8.509 8.829,-12.356 24.692,-14.37 8.938,-1.135 12.979,-5.206 16.887,-9.143 3.589,-3.615 6.979,-7.031 14.552,-7.992 z"
                   style="fill:#ffb6bd;fill-opacity:1;fill-rule:nonzero;stroke:none"
                   id="path78" />
              </g>
              <g
                 transform="translate(550.274,94.4568)"
                 id="g84">
                <path
                   d="m 0,0 c -8.938,1.135 -12.979,5.206 -16.887,9.143 -3.589,3.615 -6.979,7.03 -14.551,7.992 -17.53,2.226 -21.492,7.059 -27.521,16.123 -7.071,10.632 -29.055,8.662 -29.275,8.642 l -0.384,3.982 c 1.001,0.095 24.591,2.221 32.991,-10.409 5.659,-8.509 8.829,-12.355 24.692,-14.37 8.938,-1.135 12.979,-5.206 16.887,-9.143 3.589,-3.615 6.979,-7.03 14.552,-7.992 z"
                   style="fill:#ffb6bd;fill-opacity:1;fill-rule:nonzero;stroke:none"
                   id="path82" />
              </g>
              <g
                 transform="translate(326.6763,471.3582)"
                 id="g88">
                <path
                   d="m 0,0 c -8.938,1.135 -12.979,5.206 -16.887,9.142 -3.589,3.616 -6.979,7.031 -14.552,7.993 -17.529,2.225 -21.491,7.059 -27.519,16.123 -7.085,10.653 -29.055,8.663 -29.276,8.642 l -0.385,3.981 c 1.002,0.095 24.592,2.221 32.992,-10.408 5.659,-8.509 8.829,-12.356 24.692,-14.37 8.938,-1.135 12.979,-5.206 16.887,-9.143 3.589,-3.615 6.979,-7.031 14.552,-7.992 z"
                   style="fill:#d5c0ff;fill-opacity:1;fill-rule:nonzero;stroke:none"
                   id="path86" />
              </g>
              <g
                 transform="translate(324.274,462.4568)"
                 id="g92">
                <path
                   d="m 0,0 c -8.938,1.135 -12.979,5.206 -16.887,9.143 -3.589,3.615 -6.979,7.03 -14.551,7.992 -17.53,2.226 -21.492,7.059 -27.52,16.123 -7.072,10.632 -29.057,8.664 -29.276,8.642 l -0.384,3.982 c 1.001,0.096 24.591,2.221 32.991,-10.409 5.659,-8.509 8.829,-12.355 24.692,-14.37 8.938,-1.135 12.979,-5.206 16.887,-9.143 3.589,-3.615 6.979,-7.03 14.552,-7.992 z"
                   style="fill:#d5c0ff;fill-opacity:1;fill-rule:nonzero;stroke:none"
                   id="path90" />
              </g>
              <g
                 transform="translate(327.1675,335.7034)"
                 id="g96">
                <path
                   d="m 0,0 c -8.938,1.135 -12.979,5.206 -16.887,9.143 -3.589,3.615 -6.979,7.03 -14.551,7.992 -17.53,2.226 -21.492,7.059 -27.52,16.123 -7.072,10.632 -29.056,8.662 -29.276,8.642 l -0.384,3.982 c 1.001,0.095 24.591,2.22 32.991,-10.409 5.659,-8.509 8.829,-12.355 24.692,-14.37 8.938,-1.135 12.979,-5.206 16.887,-9.143 3.589,-3.615 6.979,-7.03 14.552,-7.992 z"
                   style="fill:#ffb6bd;fill-opacity:1;fill-rule:nonzero;stroke:none"
                   id="path94" />
              </g>
              <g
                 transform="translate(672.1675,220.7034)"
                 id="g100">
                <path
                   d="m 0,0 c -8.938,1.135 -12.979,5.206 -16.887,9.143 -3.589,3.615 -6.979,7.03 -14.551,7.992 -17.53,2.226 -21.492,7.059 -27.52,16.123 -7.072,10.632 -29.056,8.663 -29.276,8.642 l -0.384,3.982 c 1.001,0.095 24.591,2.22 32.991,-10.409 5.659,-8.509 8.829,-12.355 24.692,-14.37 8.938,-1.135 12.979,-5.206 16.887,-9.143 3.589,-3.615 6.979,-7.03 14.552,-7.992 z"
                   style="fill:#d5c0ff;fill-opacity:1;fill-rule:nonzero;stroke:none"
                   id="path98" />
              </g>
              <g
                 transform="translate(512.1675,-7.2966)"
                 id="g104">
                <path
                   d="m 0,0 c -8.938,1.136 -12.979,5.206 -16.887,9.143 -3.589,3.616 -6.979,7.031 -14.552,7.992 -17.529,2.226 -21.491,7.059 -27.52,16.124 -7.071,10.632 -29.055,8.663 -29.275,8.641 l -0.384,3.983 c 1.001,0.096 24.591,2.219 32.991,-10.409 5.659,-8.509 8.829,-12.357 24.692,-14.37 8.938,-1.136 12.979,-5.207 16.887,-9.143 3.589,-3.616 6.979,-7.031 14.552,-7.992 z"
                   style="fill:#efcd97;fill-opacity:1;fill-rule:nonzero;stroke:none"
                   id="path102" />
              </g>
              <g
                 transform="translate(342.6758,114.1975)"
                 id="g108">
                <path
                   d="m 0,0 c -8.938,1.136 -12.979,5.206 -16.887,9.143 -3.589,3.616 -6.979,7.031 -14.551,7.992 -17.53,2.226 -21.492,7.059 -27.52,16.124 -7.072,10.632 -29.056,8.663 -29.276,8.641 l -0.384,3.983 c 1.001,0.096 24.591,2.218 32.991,-10.409 5.659,-8.509 8.829,-12.357 24.692,-14.37 8.938,-1.136 12.979,-5.207 16.887,-9.143 3.589,-3.616 6.979,-7.031 14.552,-7.993 z"
                   style="fill:#efcd97;fill-opacity:1;fill-rule:nonzero;stroke:none"
                   id="path106" />
              </g>
              <g
                 transform="translate(62.1678,241.7034)"
                 id="g112">
                <path
                   d="m 0,0 c -8.938,1.135 -12.979,5.206 -16.887,9.143 -3.589,3.615 -6.979,7.03 -14.552,7.992 -17.529,2.226 -21.491,7.059 -27.519,16.123 -7.072,10.632 -29.054,8.663 -29.277,8.642 l -0.383,3.982 c 1.001,0.096 24.591,2.22 32.99,-10.409 5.66,-8.509 8.83,-12.355 24.693,-14.37 8.938,-1.135 12.979,-5.206 16.887,-9.143 3.589,-3.615 6.979,-7.03 14.552,-7.992 z"
                   style="fill:#d5c0ff;fill-opacity:1;fill-rule:nonzero;stroke:none"
                   id="path110" />
              </g>
            </g>
          </g>
        </g>
        <g
           id="g118"
           transform="translate(30.7642,402.2908)">
          <path
             d="m 0,0 c -2.525,-2.675 11.584,-11.715 11.584,-11.715 l 8.935,9.657 C 20.519,-2.058 4.843,5.131 0,0"
             style="fill:#274459;fill-opacity:1;fill-rule:nonzero;stroke:none"
             id="path120" />
        </g>
        <g
           id="g122"
           transform="translate(20.3172,259.7483)">
          <path
             d="m 0,0 c 4.08,-1.417 5.926,3.393 10.114,6.335 4.188,2.943 -1.696,-22.097 5.563,-21.453 7.258,0.645 2.34,14.84 5.668,16.321 3.329,1.483 4.854,-23.493 10.202,-20.249 5.346,3.242 -0.173,19.756 1.974,23.407 2.147,3.651 8.741,-19.391 12.929,-16.449 4.187,2.942 -5.113,19.713 -4.146,25.533 0.966,5.82 13.422,-6.42 14.516,1.289 0.764,5.374 -10.28,13.393 -17.044,17.761 0.14,19.522 3.631,83.987 41.932,123.154 l 7.223,-13.157 28.918,15.874 -7.589,13.824 c -0.04,0.072 -0.088,0.137 -0.129,0.208 0.467,0.359 1.311,0.216 1.311,0.216 49.025,11.285 100.698,-14.098 122.49,-26.799 0.803,-7.331 3.213,-23.593 8.946,-25.398 7.426,-2.34 1.761,14.178 7.428,12.538 5.667,-1.64 16.782,-17.267 21.244,-14.76 4.46,2.508 -13.479,18.4 -9.259,18.762 4.22,0.361 16.735,-11.745 21.968,-8.321 5.232,3.423 -16.638,15.578 -13.865,17.942 2.774,2.362 13.455,-8.201 17.169,-1.932 3.715,6.27 -21.411,11.771 -16.95,14.278 4.46,2.507 9.597,2.097 10.08,6.389 0.346,3.078 -14.421,3.987 -22.806,4.256 -11.963,9.494 -33.659,24.431 -62.97,35.203 -38.997,14.333 -69.187,17.938 -77.674,18.715 -14.204,18.726 -26.17,37.618 -35.694,56.692 0,0 -33.142,97.893 -51.622,104.737 -14.715,5.449 -48.777,14.403 -76.61,16.001 -24.872,1.427 -44.577,-3.947 -44.144,-8.11 0.918,-8.821 23.734,-12.153 28.757,-19.299 4.272,-6.076 12.914,-1.795 15.412,-0.375 7.752,-2.55 41.253,-13.747 44.729,-17.878 3.932,-4.674 18.609,-36.992 16.129,-37.866 -9.951,-3.507 -23.335,23.256 -44.127,34.669 -12.669,6.953 -35.47,19.255 -58.256,26.625 -23.418,7.572 -46.667,10.063 -47.473,5.768 -1.636,-8.716 19.281,-18.418 22.058,-26.699 2.248,-6.706 10.994,-5.539 14.242,-4.851 10.815,-6.538 32.358,-19.95 41.54,-28.452 17.633,-16.329 62.249,-102.512 87.259,-154.319 0.567,-1.033 1.181,-2.023 1.828,-2.979 C 25.51,153.905 17.286,132.085 11.144,103.889 3.577,69.155 5.858,39.835 7.714,26.208 5.266,20.898 -3.528,1.225 0,0"
             style="fill:#f4b792;fill-opacity:1;fill-rule:nonzero;stroke:none"
             id="path124" />
        </g>
        <g
           id="g126"
           transform="translate(192.5557,368.4392)">
          <path
             d="m 0,0 c 0,0 29.551,-7.991 26.953,14.905 -2.599,22.896 -29.87,9.146 -29.87,9.146 z"
             style="fill:#e6a086;fill-opacity:1;fill-rule:nonzero;stroke:none"
             id="path128" />
        </g>
        <g
           id="g130"
           transform="translate(189.6382,392.49)">
          <path
             d="m 0,0 0.231,-1.226 c 1.315,-6.971 8.308,-11.329 15.144,-9.439"
             style="fill:none;stroke:#282b30;stroke-width:1;stroke-linecap:round;stroke-linejoin:round;stroke-miterlimit:10;stroke-dasharray:none;stroke-opacity:1"
             id="path132" />
        </g>
        <g
           id="g134"
           transform="translate(86.7691,356.1414)">
          <path
             d="m 0,0 c -9.772,35.363 11.516,63.103 50.558,71.607 44.134,9.614 60.551,-5.482 70.323,-40.845 9.772,-35.363 -3.795,-67.326 -39.158,-77.097 C 46.361,-56.107 9.772,-35.362 0,0"
             style="fill:#f4b792;fill-opacity:1;fill-rule:nonzero;stroke:none"
             id="path136" />
        </g>
        <g
           id="g138"
           transform="translate(103.5442,413.3132)">
          <path
             d="m 0,0 c 8.646,6.881 16.432,10.143 29.465,14.126 l -1.989,5.359 C 15.885,18.246 7.521,10.034 0,0"
             style="fill:#282b30;fill-opacity:1;fill-rule:nonzero;stroke:none"
             id="path140" />
        </g>
        <g
           id="g142"
           transform="translate(111.5608,341.0862)">
          <path
             d="m 0,0 c 0,0 -21.255,-22.031 -30.781,-1.049 -9.527,20.982 20.935,23.185 20.935,23.185 z"
             style="fill:#f4b792;fill-opacity:1;fill-rule:nonzero;stroke:none"
             id="path144" />
        </g>
        <g
           id="g146"
           transform="translate(86.5193,358.8904)">
          <path
             d="M 0,0 C 6.627,3.712 15.196,4.332 15.196,4.332 L 15.627,3.161 C 18.078,-3.496 14.315,-10.826 7.478,-12.715"
             style="fill:none;stroke:#282b30;stroke-width:1;stroke-linecap:round;stroke-linejoin:round;stroke-miterlimit:10;stroke-dasharray:none;stroke-opacity:1"
             id="path148" />
        </g>
        <g
           id="g150"
           transform="translate(182.3077,377.4148)">
          <path
             d="M 0,0 C -0.353,1.275 0.396,2.595 1.671,2.947 2.947,3.3 4.266,2.552 4.619,1.276 4.971,0 4.223,-1.319 2.947,-1.671 1.672,-2.024 0.353,-1.276 0,0"
             style="fill:#282b30;fill-opacity:1;fill-rule:nonzero;stroke:none"
             id="path152" />
        </g>
        <g
           id="g154"
           transform="translate(139.5845,365.6086)">
          <path
             d="M 0,0 C -0.353,1.275 0.396,2.595 1.671,2.947 2.946,3.3 4.266,2.552 4.619,1.276 4.971,0.001 4.223,-1.319 2.947,-1.671 1.672,-2.024 0.352,-1.275 0,0"
             style="fill:#282b30;fill-opacity:1;fill-rule:nonzero;stroke:none"
             id="path156" />
        </g>
        <g
           id="g158"
           transform="translate(168.8692,374.3225)">
          <path
             d="M 0,0 C 0,0 3.699,9.101 -1.717,10.711"
             style="fill:none;stroke:#282b30;stroke-width:1;stroke-linecap:round;stroke-linejoin:round;stroke-miterlimit:10;stroke-dasharray:none;stroke-opacity:1"
             id="path160" />
        </g>
        <g
           id="g162"
           transform="translate(198.1998,369.3777)">
          <path
             d="M 0,0 C 0,0 -5.689,-10.894 -16.522,-7.673"
             style="fill:none;stroke:#282b30;stroke-width:1;stroke-linecap:round;stroke-linejoin:round;stroke-miterlimit:10;stroke-dasharray:none;stroke-opacity:1"
             id="path164" />
        </g>
        <g
           id="g166"
           transform="translate(137.1614,351.8889)">
          <path
             d="M 0,0 C 0,0 10.476,-6.426 18.118,1.899"
             style="fill:none;stroke:#282b30;stroke-width:1;stroke-linecap:round;stroke-linejoin:round;stroke-miterlimit:10;stroke-dasharray:none;stroke-opacity:1"
             id="path168" />
        </g>
        <g
           id="g170"
           transform="translate(173.6397,393.0408)">
          <path
             d="M 0,0 C 0,0 -3.905,5.135 -12.725,3.319 -24.517,0.892 -24.188,-9.169 -24.188,-9.169"
             style="fill:none;stroke:#282b30;stroke-width:1;stroke-linecap:round;stroke-linejoin:round;stroke-miterlimit:10;stroke-dasharray:none;stroke-opacity:1"
             id="path172" />
        </g>
        <g
           id="g174"
           transform="translate(177.981,390.8225)">
          <path
             d="M 0,0 C -1.189,4.305 3.016,9.223 9.393,10.985 15.771,12.747 21.904,10.686 23.094,6.382 24.283,2.077 20.078,-2.841 13.701,-4.604 7.324,-6.366 1.189,-4.305 0,0"
             style="fill:#ea6e7a;fill-opacity:1;fill-rule:nonzero;stroke:none"
             id="path176" />
        </g>
        <g
           id="g178"
           transform="translate(118.8558,375.8264)">
          <path
             d="M 0,0 C -1.189,4.305 3.016,9.223 9.393,10.985 15.77,12.747 21.904,10.686 23.094,6.382 24.283,2.077 20.078,-2.841 13.701,-4.604 7.323,-6.365 1.189,-4.305 0,0"
             style="fill:#ea6e7a;fill-opacity:1;fill-rule:nonzero;stroke:none"
             id="path180" />
        </g>
        <g
           id="g182"
           transform="translate(155.3189,308.532)">
          <path
             d="m 0,0 c 0,0 5.643,26.941 -32.15,33.276 -15.096,2.53 -15.536,11.243 -15.536,11.243 0,0 1.003,-17.123 -11.121,-20.474 C -59.698,19.596 -45.089,-33.362 0,0"
             style="fill:#282b30;fill-opacity:1;fill-rule:nonzero;stroke:none"
             id="path184" />
        </g>
        <g
           id="g186"
           transform="translate(210.4458,367.7898)">
          <path
             d="m 0,0 c 20.708,7.215 33.028,-18.256 21.005,-44.531 -4.994,4.547 -14.193,10.521 -20.103,4.763 -38.73,-37.728 -63.984,-32.316 -70.923,-24.043 0,0 17.278,45.436 70.021,63.811"
             style="fill:#282b30;fill-opacity:1;fill-rule:nonzero;stroke:none"
             id="path188" />
        </g>
        <g
           id="g190"
           transform="translate(106.0721,560.5642)">
          <path
             d="m 0,0 c 0,0 28.574,-63.618 35.358,-67.44 6.785,-3.823 31.978,-8.617 31.978,-8.617 -0.662,-18.63 -3.128,-35.549 -7.555,-50.607 l -34.094,-1.538 c 0,0 -1.366,18.078 -19.673,8.408 -20.187,-10.664 -11.335,-28.597 -11.335,-28.597 l -25.835,-40.564 c 0,0 -24.396,32.65 -44.152,30.682 0,0 10.231,18.431 7.159,28.022 -3.073,9.59 -39.485,76.802 -39.485,76.802 0,0 54.705,25.428 75.002,37.109 C -12.335,-4.66 0,0 0,0"
             style="fill:#375875;fill-opacity:1;fill-rule:nonzero;stroke:none"
             id="path192" />
        </g>
        <g
           id="g194"
           transform="translate(164.4463,157.9294)">
          <path
             d="M 0,0 C 0,0 34.488,9.506 20.162,36.844 5.836,64.183 31.049,60.703 30.846,90.479 30.642,120.255 -7.99,141.623 -7.42,113.16 -6.852,84.697 -31.612,105.879 -28.679,72.375 -26.648,49.167 -12.024,33.066 -7.908,19.892 -3.792,6.716 -24.374,3.954 -24.374,3.954 Z"
             style="fill:#b55252;fill-opacity:1;fill-rule:nonzero;stroke:none"
             id="path196" />
        </g>
        <g
           id="g198"
           transform="translate(198.5918,-212.8279)">
          <path
             d="m 0,0 -103.605,127.133 c 10.001,27.049 49.83,82.18 50.283,83.242 14.254,2.339 37.048,7.253 64.073,17.373 37.077,13.883 59.048,36.724 66.245,45.154 6.901,0.169 26.436,0.962 26.016,4.495 -0.509,4.29 -5.642,3.848 -10.119,6.328 -4.476,2.48 20.616,8.133 16.864,14.38 -3.753,6.247 -14.369,-4.381 -17.157,-2.035 -2.788,2.346 19.008,14.634 13.754,18.026 -5.253,3.392 -17.693,-8.791 -21.916,-8.455 -4.222,0.336 13.621,16.338 9.144,18.818 -4.477,2.48 -15.497,-13.214 -21.153,-14.889 -5.657,-1.675 -0.092,14.878 -7.504,12.493 -7.127,-2.293 -8.966,-26.989 -9.096,-28.889 -14.93,-10.116 -72.154,-45.462 -127.128,-34.094 l 9.223,17.045 -29.014,15.699 -9.693,-17.916 c -0.452,0.157 -21.442,22.698 -32.418,53.399 -12.484,34.921 -12.909,69.848 -12.869,77.966 4.534,3.56 19.811,16.124 18.055,22.53 -2.059,7.509 -12.87,-6.205 -14.563,-0.553 -1.693,5.651 5.416,23.461 0.891,25.852 -4.525,2.39 -8.159,-21.3 -10.749,-17.95 -2.592,3.351 0.8,20.43 -4.913,22.972 -5.714,2.542 -4.076,-22.425 -7.564,-21.375 -3.49,1.05 -0.401,15.751 -7.683,15.475 -7.282,-0.277 1.713,-24.374 -2.811,-21.984 -4.526,2.391 -6.965,6.93 -10.833,5.009 -3.003,-1.491 5.724,-16.482 9.782,-23.12 -1.267,-6.806 -6.822,-41.586 2.826,-84.617 9.047,-40.348 22.293,-67.597 26.309,-75.301 -12.979,-33.404 -26.409,-60.73 -40.388,-80.657 l -0.266,0.137 c 0,0 -7.436,-6.192 -73.268,-3.259 -34.295,1.527 -65.885,2.855 -74.761,3.227 0,0 -42.658,5.953 -42.599,-2.033 0.059,-7.986 20.222,-12.947 24.106,-19.787 3.885,-6.84 14.594,-2.181 14.594,-2.181 0,0 129.738,-20.39 175.277,-41.855 47.163,-22.23 122.255,-99.385 142.923,-117.941 0.531,-2.949 2.523,-10.625 8.873,-10.228 7.85,0.49 23.035,-13.674 29.752,-9.355 C 22.111,-28.382 7.612,-9.589 0,0"
             style="fill:#fe8f95;fill-opacity:1;fill-rule:nonzero;stroke:none"
             id="path200" />
        </g>
      </g>
    </g>
    <g
       id="g202">
      <g
         id="g204"
         clip-path="url(#clipPath208)">
        <g
           id="g210"
           transform="translate(98.8841,63.0993)">
          <path
             d="m 0,0 c 0,0 24.916,-13.207 31.105,-11.897 l -2.697,-4.951 c 0,0 -25.03,10.367 -29.483,14.829 C -5.529,2.443 0,0 0,0"
             style="fill:#282b30;fill-opacity:1;fill-rule:nonzero;stroke:none"
             id="path212" />
        </g>
      </g>
    </g>
    <g
       id="g214">
      <g
         id="g216"
         clip-path="url(#clipPath220)">
        <g
           id="g222"
           transform="translate(134.9082,-26.8181)">
          <path
             d="M 0,0 C -1.146,14.596 17.874,72.538 17.874,72.538 L 0.099,73.113 c 0,0 -10.353,-10.018 -25.96,-2.396 -15.606,7.622 -16.46,21.237 -16.46,21.237 L -54.247,103.34 C -60.044,94.145 -96.953,53.28 -96.953,53.28 L -142.995,0.093 c 0,0 -1.877,-8.028 4.483,-11.469 6.359,-3.44 14.219,-2.942 14.219,-2.942 0,0 -1.71,-10.403 7.537,-14.584 9.247,-4.181 16.451,-1.502 16.451,-1.502 0,0 -1.241,-8.372 7.026,-12.845 8.267,-4.473 14.304,2.126 14.304,2.126 0,0 1.302,-9.748 10.893,-13.293 10.263,-3.794 13.668,2.47 13.668,2.47 0,0 1.355,-8.132 10.018,-10.354 8.664,-2.22 14.648,2.762 14.648,2.762 0,0 4.243,-8.872 11.739,-7.173 z"
             style="fill:#d5c0ff;fill-opacity:1;fill-rule:nonzero;stroke:none"
             id="path224" />
        </g>
        <g
           id="g226"
           transform="translate(189.7974,102.6301)">
          <path
             d="m 0,0 c 0,0 27.728,6.171 22.713,-16.266 -5.014,-22.437 -28.15,-7.292 -28.15,-7.292 z"
             style="fill:#fe8f95;fill-opacity:1;fill-rule:nonzero;stroke:none"
             id="path228" />
        </g>
        <g
           id="g230"
           transform="translate(184.3599,79.072)">
          <path
             d="m 0,0 0.352,1.196 c 2.002,6.801 8.849,10.695 14.83,8.435"
             style="fill:none;stroke:#282b30;stroke-width:1;stroke-linecap:round;stroke-linejoin:round;stroke-miterlimit:10;stroke-dasharray:none;stroke-opacity:1"
             id="path232" />
        </g>
        <g
           id="g234"
           transform="translate(86.9185,141.5007)">
          <path
             d="M 0,0 C 0,0 -16.719,22.965 -27.794,2.818 -38.87,-17.33 -11.499,-21.268 -11.499,-21.268 Z"
             style="fill:#fe8f95;fill-opacity:1;fill-rule:nonzero;stroke:none"
             id="path236" />
        </g>
        <g
           id="g238"
           transform="translate(75.42,120.2327)">
          <path
             d="M 0,0 0.527,1.13 C 3.522,7.556 0.961,15.004 -5.021,17.265"
             style="fill:none;stroke:#282b30;stroke-width:1;stroke-linecap:round;stroke-linejoin:round;stroke-miterlimit:10;stroke-dasharray:none;stroke-opacity:1"
             id="path240" />
        </g>
        <g
           id="g242"
           transform="translate(82.7327,148.845)">
          <path
             d="M 0,0 C 0,0 -19.884,38.888 9.304,48.35 38.491,57.812 75.969,18.039 75.969,18.039 Z"
             style="fill:#b55252;fill-opacity:1;fill-rule:nonzero;stroke:none"
             id="path244" />
        </g>
        <g
           id="g246"
           transform="translate(190.3575,84.969)">
          <path
             d="m 0,0 c -12.967,-34.32 -39.658,-43.123 -77.037,-29.001 -39.222,14.82 -51.688,41.14 -38.721,75.46 12.967,34.32 46.394,50.344 80.714,37.376 C -0.725,70.869 12.967,34.32 0,0"
             style="fill:#fe8f95;fill-opacity:1;fill-rule:nonzero;stroke:none"
             id="path248" />
        </g>
        <g
           id="g250"
           transform="translate(74.5994,131.428)">
          <path
             d="m 0,0 c -12.967,-34.32 -0.501,-60.64 38.721,-75.459 6.417,-2.425 10.244,-3.901 16.016,-4.961"
             style="fill:none;stroke:#282b30;stroke-width:1;stroke-linecap:round;stroke-linejoin:round;stroke-miterlimit:10;stroke-dasharray:none;stroke-opacity:1"
             id="path252" />
        </g>
        <g
           id="g254"
           transform="translate(114.1346,118.4114)">
          <path
             d="m 0,0 c -0.468,-1.238 -1.85,-1.862 -3.088,-1.395 -1.238,0.468 -1.862,1.851 -1.394,3.089 0.467,1.238 1.85,1.862 3.088,1.394 C -0.157,2.621 0.468,1.238 0,0"
             style="fill:#282b30;fill-opacity:1;fill-rule:nonzero;stroke:none"
             id="path256" />
        </g>
        <g
           id="g258"
           transform="translate(155.5982,102.7454)">
          <path
             d="m 0,0 c -0.468,-1.238 -1.85,-1.862 -3.088,-1.395 -1.238,0.468 -1.862,1.851 -1.394,3.088 0.467,1.238 1.85,1.863 3.087,1.395 C -0.157,2.62 0.468,1.238 0,0"
             style="fill:#282b30;fill-opacity:1;fill-rule:nonzero;stroke:none"
             id="path260" />
        </g>
        <g
           id="g262"
           transform="translate(130.2471,113.6042)">
          <path
             d="M 0,0 C 0,0 -8.355,-5.167 -4.931,-9.662"
             style="fill:none;stroke:#282b30;stroke-width:1;stroke-linecap:round;stroke-linejoin:round;stroke-miterlimit:10;stroke-dasharray:none;stroke-opacity:1"
             id="path264" />
        </g>
        <g
           id="g266"
           transform="translate(106.0415,134.2751)">
          <path
             d="M 0,0 C 0,0 11.02,5.441 17.868,-3.549"
             style="fill:none;stroke:#282b30;stroke-width:1;stroke-linecap:round;stroke-linejoin:round;stroke-miterlimit:10;stroke-dasharray:none;stroke-opacity:1"
             id="path268" />
        </g>
        <g
           id="g270"
           transform="translate(165.647,112.3948)">
          <path
             d="M 0,0 C 0,0 -4.669,11.369 -15.751,9.153"
             style="fill:none;stroke:#282b30;stroke-width:1;stroke-linecap:round;stroke-linejoin:round;stroke-miterlimit:10;stroke-dasharray:none;stroke-opacity:1"
             id="path272" />
        </g>
        <g
           id="g274"
           transform="translate(138.7505,93.7434)">
          <path
             d="M 0,0 C 0,0 -5.669,-8.319 -16.623,-3.324 -24.816,0.412 -24.94,6.862 -24.94,6.862 Z"
             style="fill:none;stroke:#282b30;stroke-width:1;stroke-linecap:round;stroke-linejoin:round;stroke-miterlimit:10;stroke-dasharray:none;stroke-opacity:1"
             id="path276" />
        </g>
        <g
           id="g278"
           transform="translate(109.72,105.032)">
          <path
             d="m 0,0 c -1.579,-4.177 -7.875,-5.668 -14.064,-3.33 -6.19,2.338 -9.927,7.621 -8.349,11.798 1.578,4.178 7.875,5.669 14.064,3.331 C -2.159,9.46 1.578,4.178 0,0"
             style="fill:#ea6e7a;fill-opacity:1;fill-rule:nonzero;stroke:none"
             id="path280" />
        </g>
        <g
           id="g282"
           transform="translate(166.3101,82.2678)">
          <path
             d="m 0,0 c -1.579,-4.178 -7.875,-5.669 -14.064,-3.331 -6.19,2.339 -9.927,7.622 -8.349,11.799 1.579,4.178 7.875,5.669 14.064,3.33 C -2.159,9.459 1.578,4.177 0,0"
             style="fill:#ea6e7a;fill-opacity:1;fill-rule:nonzero;stroke:none"
             id="path284" />
        </g>
        <g
           id="g286"
           transform="translate(70.815,120.6921)">
          <path
             d="M 0,0 C 0,0 3.612,14.643 10.859,25.351"
             style="fill:none;stroke:#282b30;stroke-width:1;stroke-linecap:round;stroke-linejoin:round;stroke-miterlimit:10;stroke-dasharray:none;stroke-opacity:1"
             id="path288" />
        </g>
        <g
           id="g290"
           transform="translate(193.9498,104.2629)">
          <path
             d="M 0,0 C 0,0 -0.461,-16.474 -6.725,-26.273"
             style="fill:none;stroke:#282b30;stroke-width:1;stroke-linecap:round;stroke-linejoin:round;stroke-miterlimit:10;stroke-dasharray:none;stroke-opacity:1"
             id="path292" />
        </g>
        <g
           id="g294"
           transform="translate(143.1058,176.7366)">
          <path
             d="M 0,0 C 0,0 26.824,5.171 50.896,-16.851 81.69,-45.022 47.67,-86.627 47.67,-86.627 c 0,0 -32.973,40.858 -34.89,61.626 0,0 7.052,-32.041 -0.259,-31.373 C 5.209,-55.707 -5.744,-47.588 -8.828,-22.9 -11.154,-4.288 0,0 0,0"
             style="fill:#b55252;fill-opacity:1;fill-rule:nonzero;stroke:none"
             id="path296" />
        </g>
        <g
           id="g298"
           transform="translate(485.7784,113.4822)">
          <path
             d="m 0,0 c -7.767,0.553 1.575,-14.201 -4.317,-13.919 -5.893,0.281 -20.329,12.903 -24.088,9.429 -3.758,-3.473 17.379,-14.772 13.358,-16.102 -4.021,-1.33 -19.002,7.543 -23.298,2.999 -4.297,-4.544 19.797,-11.295 17.647,-14.237 -2.149,-2.942 -14.99,4.855 -17.149,-2.105 -2.158,-6.959 23.559,-6.482 19.801,-9.955 -3.758,-3.474 -8.85,-4.266 -8.324,-8.553 0.527,-4.287 28.668,2.346 28.668,2.346 l 13.448,24.078 C 15.746,-26.019 7.767,-0.553 0,0"
             style="fill:#f4b792;fill-opacity:1;fill-rule:nonzero;stroke:none"
             id="path300" />
        </g>
        <g
           id="g302"
           transform="translate(652.0162,260.55)">
          <path
             d="m 0,0 c 0.214,7.784 13.977,-2.964 14.277,2.927 0.3,5.892 -10.841,21.5 -7.015,24.898 3.827,3.398 12.991,-18.747 14.711,-14.876 1.719,3.87 -5.638,19.652 -0.693,23.48 4.945,3.828 9.293,-20.812 12.432,-18.962 3.139,1.849 -3.357,15.394 3.781,16.858 7.138,1.464 4.133,-24.082 7.96,-20.683 3.827,3.398 5.116,8.386 9.33,7.441 4.215,-0.945 -5.155,-28.298 -5.155,-28.298 L 24.344,-18.229 C 24.344,-18.229 -0.213,-7.784 0,0"
             style="fill:#f4b792;fill-opacity:1;fill-rule:nonzero;stroke:none"
             id="path304" />
        </g>
        <g
           id="g306"
           transform="translate(673.7183,246.0168)">
          <path
             d="m 0,0 c 0,0 22.759,-79.521 -10.983,-135.406 l -13.027,14.377 -24.446,-22.148 13.677,-15.096 c -0.298,-0.374 -0.595,-0.749 -0.877,-1.132 l -0.148,0.876 c -59.116,-29.313 -137.311,1.681 -137.311,1.681 l -18.256,-26.239 c 0,0 32.924,-20.282 81.829,-26.086 41.08,-4.875 71.19,-1.431 79.776,-0.204 26.794,-22.878 43.751,-39.485 57.894,-59.279 l 4.532,-5.821 c 0,0 12.068,-72.804 35.374,-67.299 23.306,5.505 70.258,44.141 70.258,44.141 l -13.928,18.604 c 0,0 -36.803,-19.686 -37.723,-17.592 -0.921,2.093 -5.941,24.863 -3.01,32.397 2.931,7.534 45.271,-5.815 51.633,-11.759 5.925,-5.538 29.299,-44.344 32.474,-49.636 -0.232,-3.238 -0.037,-10.16 5.68,-11.39 7.508,-1.615 18.032,-18.942 25.487,-16.659 7.456,2.283 -10.551,40.285 -10.551,40.285 -4.512,15.8 -17.7,59.521 -28.424,70.48 -13.159,13.446 -56.704,33.509 -56.704,33.509 l -9.81,8.674 c -22.189,18.42 -32.257,34.621 -50.034,63.63 -0.791,0.873 -1.617,1.694 -2.468,2.474 2.53,14.221 5.469,37.353 4.904,66.206 -0.965,49.238 -17.91,83.998 -17.91,83.998 z"
             style="fill:#f4b792;fill-opacity:1;fill-rule:nonzero;stroke:none"
             id="path308" />
        </g>
        <g
           id="g310"
           transform="translate(704.4219,-25.8367)">
          <path
             d="m 0,0 c 0,0 3.127,-18.571 7.396,-36.879 2.253,-9.667 9.105,-22.973 9.105,-22.973 3.903,10.082 18.688,21.581 39.975,35.569 0,0 -1.616,22.602 3.776,28.137 5.392,5.537 29.143,-4.166 29.143,-4.166 6.674,13.569 20.147,30.455 33.658,38.951 L 69.792,65.835 Z"
             style="fill:#a3bddf;fill-opacity:1;fill-rule:nonzero;stroke:none"
             id="path312" />
        </g>
        <g
           id="g314"
           transform="translate(636.8101,88.594)">
          <path
             d="m 0,0 c 0,0 7.622,7.405 12.187,14.227 6.631,9.911 8.875,13.896 8.875,13.896 l 5.359,-6.024 C 26.421,22.099 16.566,5.792 0,0"
             style="fill:#282b30;fill-opacity:1;fill-rule:nonzero;stroke:none"
             id="path316" />
        </g>
        <g
           id="g318"
           transform="translate(630.3145,188.3118)">
          <path
             d="M 0,0 C 0,0 3.392,28.203 22.888,16.019 42.385,3.834 20.413,-12.957 20.413,-12.957 Z"
             style="fill:#f4b792;fill-opacity:1;fill-rule:nonzero;stroke:none"
             id="path320" />
        </g>
        <g
           id="g322"
           transform="translate(650.7271,175.3552)">
          <path
             d="M 0,0 -1.011,0.73 C -6.76,4.877 -8.158,12.629 -4.039,17.52"
             style="fill:none;stroke:#282b30;stroke-width:1;stroke-linecap:round;stroke-linejoin:round;stroke-miterlimit:10;stroke-dasharray:none;stroke-opacity:1"
             id="path324" />
        </g>
        <g
           id="g326"
           transform="translate(559.4698,104.1926)">
          <path
             d="m 0,0 c 0,0 -27.215,-8.139 -11.893,-25.279 15.323,-17.14 28.132,7.367 28.132,7.367 z"
             style="fill:#f4b792;fill-opacity:1;fill-rule:nonzero;stroke:none"
             id="path328" />
        </g>
        <g
           id="g330"
           transform="translate(547.5772,78.9138)">
          <path
             d="M 0,0 C 15.322,-17.14 28.131,7.367 28.131,7.367 L 27.241,8.24 C 22.176,13.2 14.299,13.259 10.18,8.368"
             style="fill:none;stroke:#282b30;stroke-width:1;stroke-linecap:round;stroke-linejoin:round;stroke-miterlimit:10;stroke-dasharray:none;stroke-opacity:1"
             id="path332" />
        </g>
        <g
           id="g334"
           transform="translate(647.1583,182.9719)">
          <path
             d="m 0,0 c 28.062,-23.633 27.496,-51.733 1.756,-82.296 -27.009,-32.07 -55.976,-35.083 -84.038,-11.449 -28.061,23.633 -32.068,60.485 -8.434,88.547 C -67.083,22.863 -28.062,23.634 0,0"
             style="fill:#f4b792;fill-opacity:1;fill-rule:nonzero;stroke:none"
             id="path336" />
        </g>
        <g
           id="g338"
           transform="translate(590.2901,122.1907)">
          <path
             d="m 0,0 c 1.012,-0.852 1.142,-2.364 0.289,-3.376 -0.852,-1.012 -2.364,-1.142 -3.376,-0.289 -1.012,0.852 -1.142,2.364 -0.289,3.376 C -2.524,0.723 -1.012,0.853 0,0"
             style="fill:#282b30;fill-opacity:1;fill-rule:nonzero;stroke:none"
             id="path340" />
        </g>
        <g
           id="g342"
           transform="translate(618.8428,156.0935)">
          <path
             d="m 0,0 c 1.012,-0.853 1.142,-2.364 0.289,-3.376 -0.852,-1.012 -2.364,-1.142 -3.376,-0.289 -1.012,0.852 -1.142,2.364 -0.289,3.376 C -2.523,0.723 -1.012,0.853 0,0"
             style="fill:#282b30;fill-opacity:1;fill-rule:nonzero;stroke:none"
             id="path344" />
        </g>
        <g
           id="g346"
           transform="translate(600.1773,135.7908)">
          <path
             d="M 0,0 C 0,0 2.098,-9.598 7.475,-7.862"
             style="fill:none;stroke:#282b30;stroke-width:1;stroke-linecap:round;stroke-linejoin:round;stroke-miterlimit:10;stroke-dasharray:none;stroke-opacity:1"
             id="path348" />
        </g>
        <g
           id="g350"
           transform="translate(572.6382,119.8289)">
          <path
             d="M 0,0 C 0,0 -1.47,12.202 9.285,15.673"
             style="fill:none;stroke:#282b30;stroke-width:1;stroke-linecap:round;stroke-linejoin:round;stroke-miterlimit:10;stroke-dasharray:none;stroke-opacity:1"
             id="path352" />
        </g>
        <g
           id="g354"
           transform="translate(613.0801,168.7781)">
          <path
             d="M 0,0 C 0,0 -12.274,-0.626 -13.866,-11.815"
             style="fill:none;stroke:#282b30;stroke-width:1;stroke-linecap:round;stroke-linejoin:round;stroke-miterlimit:10;stroke-dasharray:none;stroke-opacity:1"
             id="path356" />
        </g>
        <g
           id="g358"
           transform="translate(606.9766,115.9685)">
          <path
             d="m 0,0 c 0,0 6.125,-2.026 12.371,4.46 8.35,8.673 2.388,16.784 2.388,16.784"
             style="fill:none;stroke:#282b30;stroke-width:1;stroke-linecap:round;stroke-linejoin:round;stroke-miterlimit:10;stroke-dasharray:none;stroke-opacity:1"
             id="path360" />
        </g>
        <g
           id="g362"
           transform="translate(601.4424,113.5818)">
          <path
             d="m 0,0 c 3.416,-2.877 2.729,-9.312 -1.532,-14.372 -4.262,-5.061 -10.487,-6.831 -13.902,-3.954 -3.416,2.877 -2.73,9.311 1.532,14.372 C -9.64,1.106 -3.416,2.876 0,0"
             style="fill:#ea6e7a;fill-opacity:1;fill-rule:nonzero;stroke:none"
             id="path364" />
        </g>
        <g
           id="g366"
           transform="translate(641.7159,159.3928)">
          <path
             d="m 0,0 c 3.416,-2.877 2.73,-9.311 -1.532,-14.372 -4.262,-5.06 -10.486,-6.831 -13.902,-3.954 -3.416,2.877 -2.73,9.311 1.532,14.372 C -9.64,1.106 -3.416,2.877 0,0"
             style="fill:#ea6e7a;fill-opacity:1;fill-rule:nonzero;stroke:none"
             id="path368" />
        </g>
        <g
           id="g370"
           transform="translate(573.7452,82.0901)">
          <path
             d="M 0,0 C 0,0 -12.611,8.272 -20.303,18.666"
             style="fill:none;stroke:#282b30;stroke-width:1;stroke-linecap:round;stroke-linejoin:round;stroke-miterlimit:10;stroke-dasharray:none;stroke-opacity:1"
             id="path372" />
        </g>
        <g
           id="g374"
           transform="translate(630.1544,192.7702)">
          <path
             d="M 0,0 C 0,0 15.384,-5.909 22.545,-15.072"
             style="fill:none;stroke:#282b30;stroke-width:1;stroke-linecap:round;stroke-linejoin:round;stroke-miterlimit:10;stroke-dasharray:none;stroke-opacity:1"
             id="path376" />
        </g>
        <g
           id="g378"
           transform="translate(638.8951,188.634)">
          <path
             d="m 0,0 -22.38,-4.015 8.192,-6.888 -27.158,-10.947 10.76,-3.26 c -23.778,-25.446 -58.802,-9.045 -58.802,-9.045 -13.342,-28.349 9.179,-56.078 11.277,-61.983 2.098,-5.905 -18.438,6.71 -18.438,6.71 0,0 -19.208,11.868 -21.505,34.504 -2.297,22.637 18.599,31.162 18.599,31.162 0,0 -0.459,21.95 20.541,42.95 21,21 26,31 26,31 l 10,-23 10,11 6,-17 14,4 C -12.914,25.188 -15.086,3.812 0,0"
             style="fill:#b55252;fill-opacity:1;fill-rule:nonzero;stroke:none"
             id="path380" />
        </g>
        <g
           id="g382"
           transform="translate(536.0211,40.1389)">
          <path
             d="m 0,0 c -0.937,1.753 -0.096,39.591 -0.096,39.591 0,0 79.946,-8.549 103.014,8.014 0,0 9.53,-9.467 24.042,1.079 14.512,10.546 1.99,26.52 1.99,26.52 0,0 12.359,22.255 13.411,50.527 1.053,28.273 1.691,41.21 1.691,41.21 l 37.661,9.405 c 0,0 8.532,-55.364 4.041,-84.15 -4.49,-28.785 -2.793,-22.044 -2.793,-22.044 0,0 60.935,-72.28 60.321,-70.884 -0.614,1.394 -18.218,-16.507 -35.767,-40.212 -17.549,-23.705 -37.307,-29.898 -37.307,-29.898 0,0 -48.513,54.263 -59.004,62.971 0,0 -42.125,-3.042 -66.569,-0.472 C 20.191,-5.772 0,0 0,0"
             style="fill:#26778e;fill-opacity:1;fill-rule:nonzero;stroke:none"
             id="path384" />
        </g>
      </g>
    </g>
    <g
       id="g386">
      <g
         id="g388"
         clip-path="url(#clipPath392)">
        <g
           id="g394"
           transform="translate(654.7408,18.5881)">
          <path
             d="m 0,0 -21.238,67.593 c 0,0 17.193,-14.669 32.196,-1.076 15.003,13.593 7.973,26.737 2.197,34.189 l -1.255,5.692 c 0,0 59.735,-23.933 68.107,-20.25 8.372,3.682 64.686,-58.473 64.686,-58.473 L 45.548,-72.887 Z"
             style="fill:#ffffff;fill-opacity:1;fill-rule:nonzero;stroke:none"
             id="path396" />
        </g>
      </g>
    </g>
    <g
       id="g398">
      <g
         id="g400"
         clip-path="url(#clipPath404)">
        <g
           id="g406"
           transform="translate(541.2711,293.5212)">
          <path
             d="m 0,0 c 18.275,1.665 49.942,-2.387 60.547,23.315 10.605,25.703 49.573,11.949 50.202,37.464 0.629,25.514 -68.076,87.498 -103.21,98.48 -35.135,10.982 -63.015,-10.056 -63.685,-33.354 -0.671,-23.298 -13.699,-8.574 -20.393,-35.866 C -83.233,62.747 -53.686,-4.891 0,0"
             style="fill:#f2674a;fill-opacity:1;fill-rule:nonzero;stroke:none"
             id="path408" />
        </g>
        <g
           id="g410"
           transform="translate(722.9913,563.1936)">
          <path
             d="m 0,0 -13.924,-8.082 c 2.37,4.572 4.837,9.456 7.278,14.482 z m -152.05,-87.99 c -13.266,1.77 -39.215,4.049 -72.486,1.124 -43.339,-3.809 -74.538,-19.282 -81.229,-22.841 -8.228,1.812 -19.201,3.71 -19.61,1.053 -0.656,-4.27 4.409,-5.216 8.06,-8.804 3.65,-3.585 -22.04,-2.325 -20.095,-9.348 1.946,-7.022 15.018,0.381 17.077,-2.625 2.059,-3.006 -22.229,-9.02 -18.073,-13.693 4.155,-4.673 19.4,3.74 23.378,2.289 3.98,-1.453 -17.492,-12.102 -13.841,-15.689 3.651,-3.587 18.465,8.59 24.363,8.692 5.899,0.102 -3.889,-14.361 3.892,-14.044 7.78,0.315 16.53,25.527 16.53,25.527 l -0.417,0.803 c 13.195,4.037 49.774,13.61 87.573,9.153 12.599,-1.485 39.85,-12.899 41.296,-14.452 l -11.66,-12.107 23.76,-22.884 14.707,15.271 c 0.604,-0.266 1.212,-0.565 1.815,-0.806 0,0 26.479,-7.343 55.396,-31.394 29.714,-24.712 46.364,-56.359 47.839,-59.058 -2.393,-6.206 -8.422,-23.341 -3.884,-27.771 5.572,-5.439 7.97,11.859 12.287,7.838 4.317,-4.021 7.185,-22.982 12.298,-22.758 5.112,0.225 -3.726,22.503 0.203,20.921 3.929,-1.582 9.634,-18.032 15.849,-17.338 6.215,0.694 -7.817,21.41 -4.276,22.267 3.541,0.857 8.307,-13.389 14.45,-9.47 6.144,3.919 -13.798,20.165 -8.685,20.39 5.114,0.224 9.512,-2.459 11.88,1.153 1.814,2.769 -12.893,11.115 -19.864,14.864 -3.038,8.171 -15.969,39.704 -44.887,70.717 -9.537,10.228 -22.289,20.911 -30.567,28.116 8.457,7.079 23.71,22.474 32.794,32.663 15.595,17.491 22.674,34.404 40.062,54.105 C 28.37,-28.384 57.302,-7.516 49.013,3.99 39.438,17.279 19.367,31.062 7.34,38.614 c 5.977,16.346 8.719,30.238 3.543,35.222 -7.542,7.264 -44.008,14.455 -72.15,26.141 -21.989,9.132 -42.014,14.514 -43.199,10.76 -2.669,-8.457 16.935,-20.596 18.699,-29.151 1.526,-7.398 11.486,-6.767 14.149,-6.461 l 33.776,-20.613 c 0,0 -24.316,-24.949 -40.174,-51.838 -11.964,-20.287 -26.287,-47.926 -42.06,-61.691 -11.885,-10.37 -23.351,-19.787 -31.974,-28.973"
             style="fill:#d98b7c;fill-opacity:1;fill-rule:nonzero;stroke:none"
             id="path412" />
        </g>
        <g
           id="g414"
           transform="translate(678.1461,442.572)">
          <path
             d="m 0,0 c 0,0 46.864,45.881 80.274,45.828 0,0 -4.422,17.644 -18.851,23.508 -14.428,5.866 -26.31,21.324 -35.517,39.56 -9.206,18.235 -28.316,19.239 -42.898,33.283 -14.582,14.044 -28.239,15.151 -28.239,15.151 L -73.502,65.435 Z"
             style="fill:#6baa77;fill-opacity:1;fill-rule:nonzero;stroke:none"
             id="path416" />
        </g>
        <g
           id="g418"
           transform="translate(650.0201,369.3)">
          <path
             d="m 0,0 c -10,5 -29.055,13.384 -43.975,27.939 0,0 5.177,14.756 -14.164,28.029 -19.34,13.272 -32.072,1.442 -32.072,1.442 0,0 -14.057,-1.907 -27.366,4.94 C -126.526,66.954 -133,67 -133,67 l 22,42 c 0,0 18,1 34.835,-0.872 l 34.158,32.688 C 0,131 31.069,105.593 39,85 39,85 24.242,62.29 17.554,55.346 10.867,48.402 14.262,49.148 14.262,49.148 14.262,49.148 25.814,37.458 28,30 Z"
             style="fill:#f9bf55;fill-opacity:1;fill-rule:nonzero;stroke:none"
             id="path420" />
        </g>
        <g
           id="g422"
           transform="translate(592.9698,400.0325)">
          <path
             d="m 0,0 c -3.712,3.768 -8.03,7.46 -12.961,11.07 -5.423,3.97 -10.728,7.233 -15.904,9.776 0,0 3.073,3.754 17.521,-3.133 C 0.492,12.07 0,0 0,0"
             style="fill:#282b30;fill-opacity:1;fill-rule:nonzero;stroke:none"
             id="path424" />
        </g>
        <g
           id="g426"
           transform="translate(493.8413,386.5847)">
          <path
             d="m 0,0 c 0,0 -28.369,1.466 -17.539,21.746 10.831,20.28 29.077,-0.499 29.077,-0.499 z"
             style="fill:#d98b7c;fill-opacity:1;fill-rule:nonzero;stroke:none"
             id="path428" />
        </g>
        <g
           id="g430"
           transform="translate(505.3789,407.8313)">
          <path
             d="M 0,0 -0.659,-1.059 C -4.406,-7.076 -12.045,-8.998 -17.205,-5.221"
             style="fill:none;stroke:#282b30;stroke-width:1;stroke-linecap:round;stroke-linejoin:round;stroke-miterlimit:10;stroke-dasharray:none;stroke-opacity:1"
             id="path432" />
        </g>
        <g
           id="g434"
           transform="translate(582.5836,321.6257)">
          <path
             d="M 0,0 C 0,0 9.972,-26.599 26.03,-10.146 42.088,6.307 16.766,17.419 16.766,17.419 Z"
             style="fill:#d98b7c;fill-opacity:1;fill-rule:nonzero;stroke:none"
             id="path436" />
        </g>
        <g
           id="g438"
           transform="translate(599.3497,339.0452)">
          <path
             d="m 0,0 -0.81,-0.948 c -4.604,-5.391 -4.127,-13.253 1.033,-17.03"
             style="fill:none;stroke:#282b30;stroke-width:1;stroke-linecap:round;stroke-linejoin:round;stroke-miterlimit:10;stroke-dasharray:none;stroke-opacity:1"
             id="path440" />
        </g>
        <g
           id="g442"
           transform="translate(589.7149,322.9553)">
          <path
             d="m 0,0 c 0,0 -7.902,-51.229 -38.557,-52.543 -30.654,-1.315 -44.53,45.944 -44.53,45.944 z"
             style="fill:#f2674a;fill-opacity:1;fill-rule:nonzero;stroke:none"
             id="path444" />
        </g>
        <g
           id="g446"
           transform="translate(498.023,403.7527)">
          <path
             d="m 0,0 c 21.67,29.604 49.743,30.951 81.985,7.35 33.833,-24.766 38.809,-53.46 17.14,-83.065 C 77.454,-105.319 40.96,-111.823 11.356,-90.153 -18.248,-68.483 -21.67,-29.604 0,0"
             style="fill:#d98b7c;fill-opacity:1;fill-rule:nonzero;stroke:none"
             id="path448" />
        </g>
        <g
           id="g450"
           transform="translate(562.5308,351.1501)">
          <path
             d="M 0,0 C 0.782,1.068 2.281,1.3 3.349,0.518 4.417,-0.264 4.648,-1.763 3.867,-2.831 3.085,-3.898 1.586,-4.13 0.519,-3.349 -0.549,-2.567 -0.781,-1.068 0,0"
             style="fill:#282b30;fill-opacity:1;fill-rule:nonzero;stroke:none"
             id="path452" />
        </g>
        <g
           id="g454"
           transform="translate(526.7647,377.3308)">
          <path
             d="M 0,0 C 0.782,1.068 2.281,1.3 3.349,0.519 4.417,-0.263 4.648,-1.762 3.867,-2.83 3.085,-3.898 1.586,-4.13 0.518,-3.348 -0.55,-2.567 -0.782,-1.067 0,0"
             style="fill:#282b30;fill-opacity:1;fill-rule:nonzero;stroke:none"
             id="path456" />
        </g>
        <g
           id="g458"
           transform="translate(548.2901,360.0896)">
          <path
             d="M 0,0 C 0,0 9.433,2.746 7.335,7.993"
             style="fill:none;stroke:#282b30;stroke-width:1;stroke-linecap:round;stroke-linejoin:round;stroke-miterlimit:10;stroke-dasharray:none;stroke-opacity:1"
             id="path460" />
        </g>
        <g
           id="g462"
           transform="translate(566.0884,333.7004)">
          <path
             d="M 0,0 C 0,0 -12.074,-2.297 -16.269,8.197"
             style="fill:none;stroke:#282b30;stroke-width:1;stroke-linecap:round;stroke-linejoin:round;stroke-miterlimit:10;stroke-dasharray:none;stroke-opacity:1"
             id="path464" />
        </g>
        <g
           id="g466"
           transform="translate(514.502,370.719)">
          <path
             d="M 0,0 C 0,0 1.459,-12.203 12.73,-13.03"
             style="fill:none;stroke:#282b30;stroke-width:1;stroke-linecap:round;stroke-linejoin:round;stroke-miterlimit:10;stroke-dasharray:none;stroke-opacity:1"
             id="path468" />
        </g>
        <g
           id="g470"
           transform="translate(567.6041,368.2214)">
          <path
             d="m 0,0 c 0,0 1.604,6.249 -5.292,12.039 -9.22,7.741 -16.906,1.241 -16.906,1.241"
             style="fill:none;stroke:#282b30;stroke-width:1;stroke-linecap:round;stroke-linejoin:round;stroke-miterlimit:10;stroke-dasharray:none;stroke-opacity:1"
             id="path472" />
        </g>
        <g
           id="g474"
           transform="translate(570.3619,362.8621)">
          <path
             d="m 0,0 c 2.638,3.604 9.104,3.357 14.443,-0.551 5.339,-3.907 7.528,-9.997 4.89,-13.6 -2.638,-3.604 -9.104,-3.358 -14.443,0.55 C -0.448,-9.693 -2.638,-3.604 0,0"
             style="fill:#ea6e7a;fill-opacity:1;fill-rule:nonzero;stroke:none"
             id="path476" />
        </g>
        <g
           id="g478"
           transform="translate(521.9175,399.927)">
          <path
             d="m 0,0 c 2.638,3.604 9.104,3.357 14.442,-0.551 5.339,-3.908 7.529,-9.997 4.891,-13.601 -2.638,-3.603 -9.104,-3.357 -14.443,0.551 C -0.449,-9.693 -2.638,-3.604 0,0"
             style="fill:#ea6e7a;fill-opacity:1;fill-rule:nonzero;stroke:none"
             id="path480" />
        </g>
        <g
           id="g482"
           transform="translate(603.6641,337.3718)">
          <path
             d="M 0,0 C 0,0 -7.395,-13.145 -17.241,-21.525"
             style="fill:none;stroke:#282b30;stroke-width:1;stroke-linecap:round;stroke-linejoin:round;stroke-miterlimit:10;stroke-dasharray:none;stroke-opacity:1"
             id="path484" />
        </g>
        <g
           id="g486"
           transform="translate(489.4034,386.1218)">
          <path
             d="M 0,0 C 0,0 4.849,15.75 13.504,23.519"
             style="fill:none;stroke:#282b30;stroke-width:1;stroke-linecap:round;stroke-linejoin:round;stroke-miterlimit:10;stroke-dasharray:none;stroke-opacity:1"
             id="path488" />
        </g>
        <g
           id="g490"
           transform="translate(524.6685,301.2776)">
          <path
             d="M 0,0 C 0,0 -46.99,-2.93 -60.696,37.04 -74.402,77.009 -28.44,98.328 -28.44,98.328 -28.44,98.328 17.826,31.017 0,0"
             style="fill:#f2674a;fill-opacity:1;fill-rule:nonzero;stroke:none"
             id="path492" />
        </g>
      </g>
    </g>
    <text
       xml:space="preserve"
       transform="scale(1,-1)"
       style="font-style:normal;font-variant:normal;font-weight:normal;font-stretch:normal;font-size:40.000001px;font-family:Chiller;-inkscape-font-specification:Chiller;text-align:center;writing-mode:lr-tb;text-anchor:middle;fill:#ff2a2a;fill-opacity:1;fill-rule:nonzero;stroke:none"
       id="text500"
       x="373.94269"
       y="-295.68671"><tspan
         sodipodi:role="line"
         id="tspan498"
         x="373.94269"
         y="-295.68671">Sistema Estatal</tspan><tspan
         sodipodi:role="line"
         x="373.94269"
         y="-255.68671"
         id="tspan817">de Información de Niñas,</tspan><tspan
         sodipodi:role="line"
         x="373.94269"
         y="-215.68671"
         id="tspan821">Niños y Adolescentes del</tspan><tspan
         sodipodi:role="line"
         x="373.94269"
         y="-175.68671"
         id="tspan823">Estado de Michoacán</tspan></text>
    <g
       id="g502">
      <g
         id="g504"
         clip-path="url(#clipPath508)">
        <g
           id="g510"
           transform="translate(380.7647,352.7166)">
          <path
             d="M 0,0 C 0,-2.485 -2.015,-4.5 -4.5,-4.5 -6.985,-4.5 -9,-2.485 -9,0 -9,2.485 -6.985,4.5 -4.5,4.5 -2.015,4.5 0,2.485 0,0"
             style="fill:#ffffff;fill-opacity:1;fill-rule:nonzero;stroke:none"
             id="path512" />
        </g>
        <g
           id="g514"
           transform="translate(514.7647,177.7165)">
          <path
             d="M 0,0 C 0,-2.485 -2.015,-4.5 -4.5,-4.5 -6.985,-4.5 -9,-2.485 -9,0 -9,2.485 -6.985,4.5 -4.5,4.5 -2.015,4.5 0,2.485 0,0"
             style="fill:#ffffff;fill-opacity:1;fill-rule:nonzero;stroke:none"
             id="path516" />
        </g>
        <g
           id="g518"
           transform="translate(221.981,197.8225)">
          <path
             d="M 0,0 C 0,-2.485 -2.015,-4.5 -4.5,-4.5 -6.985,-4.5 -9,-2.485 -9,0 -9,2.485 -6.985,4.5 -4.5,4.5 -2.015,4.5 0,2.485 0,0"
             style="fill:#ffffff;fill-opacity:1;fill-rule:nonzero;stroke:none"
             id="path520" />
        </g>
        <g
           id="g522"
           transform="translate(95.9849,233.5744)">
          <path
             d="m 0,0 c 0,-1.796 -1.456,-3.252 -3.252,-3.252 -1.796,0 -3.252,1.456 -3.252,3.252 0,1.796 1.456,3.252 3.252,3.252 C -1.456,3.252 0,1.796 0,0"
             style="fill:#ffffff;fill-opacity:1;fill-rule:nonzero;stroke:none"
             id="path524" />
        </g>
        <g
           id="g526"
           transform="translate(361.2657,456.2117)">
          <path
             d="m 0,0 c 0,-3.314 -2.686,-6 -6,-6 -3.313,0 -6,2.686 -6,6 0,3.313 2.687,6 6,6 3.314,0 6,-2.687 6,-6"
             style="fill:#ffffff;fill-opacity:1;fill-rule:nonzero;stroke:none"
             id="path528" />
        </g>
        <g
           id="g530"
           transform="translate(416.9805,104.823)">
          <path
             d="m 0,0 c 0,-3.313 -2.686,-6 -6,-6 -3.313,0 -5.999,2.687 -5.999,6 0,3.313 2.686,6 5.999,6 3.314,0 6,-2.687 6,-6"
             style="fill:#ffffff;fill-opacity:1;fill-rule:nonzero;stroke:none"
             id="path532" />
        </g>
        <g
           id="g534"
           transform="translate(335.7671,384.2151)">
          <path
             d="m 0,0 c 0,-1.657 -1.343,-3 -3,-3 -1.657,0 -3,1.343 -3,3 0,1.657 1.343,3 3,3 1.657,0 3,-1.343 3,-3"
             style="fill:#ffffff;fill-opacity:1;fill-rule:nonzero;stroke:none"
             id="path536" />
        </g>
        <g
           id="g538"
           transform="translate(367.981,51.8225)">
          <path
             d="m 0,0 c 0,-1.657 -1.343,-3 -3,-3 -1.657,0 -3,1.343 -3,3 0,1.657 1.343,3 3,3 1.657,0 3,-1.343 3,-3"
             style="fill:#ffffff;fill-opacity:1;fill-rule:nonzero;stroke:none"
             id="path540" />
        </g>
        <g
           id="g542"
           transform="translate(487.981,280.8225)">
          <path
             d="m 0,0 c 0,-1.657 -1.343,-3 -3,-3 -1.657,0 -3,1.343 -3,3 0,1.657 1.343,3 3,3 1.657,0 3,-1.343 3,-3"
             style="fill:#ffffff;fill-opacity:1;fill-rule:nonzero;stroke:none"
             id="path544" />
        </g>
        <g
           id="g546"
           transform="translate(639.981,291.8225)">
          <path
             d="m 0,0 c 0,-1.657 -1.343,-3 -3,-3 -1.657,0 -3,1.343 -3,3 0,1.657 1.343,3 3,3 1.657,0 3,-1.343 3,-3"
             style="fill:#ffffff;fill-opacity:1;fill-rule:nonzero;stroke:none"
             id="path548" />
        </g>
      </g>
    </g>
  </g>
</svg>
