<?xml version="1.0" encoding="utf-8"?>
<!-- Generator: Adobe Illustrator 27.9.0, SVG Export Plug-In . SVG Version: 6.00 Build 0)  -->
<svg version="1.1" id="Capa_1" xmlns="http://www.w3.org/2000/svg" xmlns:xlink="http://www.w3.org/1999/xlink" x="0px" y="0px"
	 viewBox="0 0 164 36" style="enable-background:new 0 0 164 36;" xml:space="preserve">
<style type="text/css">
	.st0{fill:#003057;}
</style>
<g id="Logotipo" transform="translate(-605 -368)">
	<rect id="Rectángulo_2" x="607" y="369.9" class="st0" width="1" height="32.5"/>
	<rect id="Rectángulo_3" x="616.1" y="369.9" class="st0" width="1" height="32.5"/>
	<rect id="Rectángulo_4" x="626.3" y="369.9" class="st0" width="1" height="32.5"/>
	<rect id="Rectángulo_5" x="635.4" y="369.9" class="st0" width="1" height="32.5"/>
	<rect id="Rectángulo_6" x="645.5" y="369.9" class="st0" width="1" height="32.5"/>
	<rect id="Rectángulo_7" x="654.7" y="369.9" class="st0" width="1" height="32.5"/>
	<path id="Trazado_1" class="st0" d="M612.2,383.9c-1.8,0-3.3-1.4-3.3-3.2c0-1.8,1.4-3.3,3.2-3.3s3.3,1.4,3.3,3.2l0,0
		C615.4,382.5,614,383.9,612.2,383.9L612.2,383.9"/>
	<path id="Trazado_2" class="st0" d="M612.2,376.4c-1.8,0-3.2-1.4-3.3-3.2c0-1.8,1.4-3.2,3.2-3.3c1.8,0,3.2,1.4,3.3,3.2l0,0
		C615.4,375,614,376.4,612.2,376.4"/>
	<path id="Trazado_3" class="st0" d="M621.7,395.2c-1.8,0-3.3-1.5-3.3-3.3s1.5-3.3,3.3-3.3s3.3,1.5,3.3,3.3
		C624.9,393.8,623.5,395.2,621.7,395.2L621.7,395.2"/>
	<path id="Trazado_4" class="st0" d="M621.7,387.7c-1.8,0-3.3-1.5-3.3-3.3s1.5-3.3,3.3-3.3s3.3,1.5,3.3,3.3
		C624.9,386.2,623.5,387.7,621.7,387.7L621.7,387.7"/>
	<path id="Trazado_5" class="st0" d="M621.7,380.2c-1.8,0-3.3-1.5-3.3-3.3s1.5-3.3,3.3-3.3s3.3,1.5,3.3,3.3
		C624.9,378.7,623.4,380.2,621.7,380.2"/>
	<path id="Trazado_6" class="st0" d="M631.2,399c-1.8,0-3.3-1.4-3.3-3.2s1.4-3.3,3.2-3.3s3.3,1.4,3.3,3.2l0,0c0,1.8-1.4,3.2-3.1,3.3
		C631.3,399,631.2,399,631.2,399"/>
	<path id="Trazado_7" class="st0" d="M631.2,391.5c-1.8,0-3.3-1.4-3.3-3.2s1.4-3.3,3.2-3.3s3.3,1.4,3.3,3.2l0,0
		c0,1.8-1.4,3.2-3.1,3.3C631.3,391.5,631.2,391.5,631.2,391.5"/>
	<path id="Trazado_8" class="st0" d="M631.2,384c-1.8,0-3.3-1.4-3.3-3.2s1.4-3.3,3.2-3.3s3.3,1.4,3.3,3.2l0,0
		C634.4,382.5,633,384,631.2,384L631.2,384"/>
	<path id="Trazado_9" class="st0" d="M640.8,401.3c-1.8,0-3.3-1.4-3.3-3.2s1.4-3.3,3.2-3.3s3.3,1.4,3.3,3.2l0,0
		C644.1,399.8,642.6,401.3,640.8,401.3L640.8,401.3"/>
	<path id="Trazado_10" class="st0" d="M640.8,393.8c-1.8,0-3.3-1.4-3.3-3.2s1.4-3.3,3.2-3.3s3.3,1.4,3.3,3.2l0,0
		C644.1,392.3,642.6,393.8,640.8,393.8L640.8,393.8"/>
	<path id="Trazado_11" class="st0" d="M650.3,398.2c-1.8,0-3.3-1.5-3.3-3.3s1.5-3.3,3.3-3.3s3.3,1.5,3.3,3.3
		C653.5,396.7,652.1,398.2,650.3,398.2"/>
	<path id="Trazado_12" class="st0" d="M650.3,390.7c-1.8,0-3.3-1.4-3.3-3.2s1.4-3.3,3.2-3.3s3.3,1.4,3.3,3.2l0,0
		C653.5,389.2,652.1,390.6,650.3,390.7L650.3,390.7"/>
	<path id="Trazado_13" class="st0" d="M759.6,369.7v25.7c0,1.7,0.7,3.3,2.1,4.4c1.5,1.2,3.4,1.8,5.3,1.7v-31.8H759.6L759.6,369.7z"
		/>
	<path id="Trazado_14" class="st0" d="M670.7,401.5c-1.9,0-3.8-0.6-5.3-1.7c-1.4-1-2.1-2.7-2.1-4.4v-25.7h7.4L670.7,401.5
		L670.7,401.5z"/>
	<path id="Trazado_15" class="st0" d="M674.8,401.6h7.5V388l0.6,0.7c1.4,1.5,2.7,3.1,3.7,4.9c0.9,1.5,1.8,2.8,2.9,4.2
		c1,1.2,2.2,2.2,3.6,2.9c1.7,0.8,3.6,1.1,5.5,1.1v-31.9h-7.5v17.2l-0.7-1.1c-1.4-2.2-2.6-4.4-3.7-6.7c-0.8-1.8-1.8-3.5-2.9-5.1
		c-0.9-1.3-2.2-2.4-3.6-3.2c-1.7-0.8-3.6-1.2-5.4-1.1L674.8,401.6z"/>
	<path id="Trazado_16" class="st0" d="M713.6,369.7c-3.3,0-6.4,1.4-8.4,3.9c-2.3,2.6-3.4,5.3-3.4,7.9v8.2c0,2.6,1.2,5.3,3.5,7.9
		c2.1,2.5,5.1,3.9,8.3,3.9h11.8V394h-11.8c-1.1,0-2.2-0.5-3.1-1.3c-0.9-0.8-1.4-2-1.4-3.2v-0.4h16.3v-7.4h-16.3v-0.3
		c0-1.2,0.5-2.3,1.4-3.1c0.8-0.8,1.9-1.3,3-1.3h11.9v-7.4L713.6,369.7L713.6,369.7z"/>
	<path id="Trazado_17" class="st0" d="M728.8,389.4v0.3c0,2.9,1,5.8,2.9,8.1c1.9,2.6,4.9,3.9,9,3.8h14.8v-16.5
		c0-1.7-1.4-3.2-3.1-3.2h-9.3v6.7h6.2v5.6h-8.6c-1.1,0-2.2-0.5-3-1.3c-0.9-0.8-1.4-1.9-1.4-3.1v-8.2c0-1.2,0.5-2.3,1.4-3.1
		c0.8-0.8,1.9-1.3,3.1-1.4h14.7v-7.4h-14.8c-4.2,0-7.2,1.3-9.1,3.8c-1.8,2.3-2.8,5.1-2.8,8v4.3C728.8,387.2,728.8,388.8,728.8,389.4
		"/>
</g>
</svg>
