<?xml version="1.0" standalone="no"?>
<!DOCTYPE svg PUBLIC "-//W3C//DTD SVG 20010904//EN"
 "http://www.w3.org/TR/2001/REC-SVG-20010904/DTD/svg10.dtd">
<svg version="1.0" xmlns="http://www.w3.org/2000/svg"
 width="2953.000000pt" height="779.000000pt" viewBox="0 0 2953.000000 779.000000"
 preserveAspectRatio="xMidYMid meet">

<g transform="translate(0.000000,779.000000) scale(0.100000,-0.100000)"
fill="#000000" stroke="none">
<path d="M0 4618 c0 -1744 2 -3169 5 -3166 3 2 49 123 104 269 l99 264 65 3
64 3 102 -271 c55 -149 101 -273 101 -276 0 -3 -30 -4 -67 -2 l-66 3 -17 50
-17 50 -101 3 -100 3 -20 -53 -20 -53 -66 -3 -66 -3 0 -719 0 -720 14765 0
14765 0 0 355 0 355 -266 2 -266 3 -281 483 -281 482 -108 0 -108 0 0 -485 0
-485 -225 0 -225 0 0 1196 0 1195 498 -3 c483 -4 499 -5 582 -27 406 -111 605
-419 535 -827 -40 -227 -171 -379 -410 -474 -44 -17 -82 -33 -84 -35 -3 -4
613 -990 630 -1010 5 -5 9 1525 9 3528 l0 3537 -27 0 c-25 0 -25 -1 -10 -18
20 -22 22 -56 4 -74 -8 -7 -879 -542 -1935 -1188 -1057 -646 -1922 -1177
-1922 -1180 0 -3 13 -12 29 -21 26 -15 29 -23 33 -75 2 -33 0 -68 -5 -79 -4
-11 -53 -48 -108 -83 l-99 -64 1 -41 c0 -23 6 -175 12 -337 7 -162 9 -329 5
-370 -9 -100 -39 -178 -88 -226 l-39 -39 252 -90 252 -90 66 -66 c128 -128
244 -303 313 -473 23 -55 45 -107 49 -113 6 -10 49 -13 155 -13 86 0 174 -6
212 -14 353 -75 633 -370 690 -726 13 -86 13 -925 -1 -1010 -49 -311 -286
-591 -582 -690 -45 -16 -119 -33 -162 -40 -59 -8 -981 -10 -3425 -8 l-3345 3
-88 28 c-355 111 -587 382 -636 740 -14 102 -14 836 0 947 43 348 289 637 629
742 l75 23 1015 5 1015 5 1577 965 c1571 961 1577 965 1578 998 0 41 2 42 218
180 146 94 181 112 202 107 14 -4 39 -8 55 -8 23 -2 453 257 1980 1192 1073
656 1952 1195 1954 1197 2 2 -6618 4 -14712 4 l-14717 0 0 -3172z m1000 898
c170 -31 286 -92 410 -216 147 -145 204 -285 204 -495 0 -138 -15 -206 -73
-331 -74 -157 -186 -308 -551 -739 -129 -153 -241 -287 -248 -297 -13 -17 0
-18 355 -18 l368 0 1 183 c1 153 4 194 22 260 46 170 126 326 230 454 l46 57
-3 81 c-4 125 14 195 71 281 44 66 129 154 149 154 4 0 18 9 31 20 12 12 48
34 78 51 50 27 49 23 -5 -17 -19 -13 -18 -14 15 -8 19 3 39 7 44 8 11 1 51 39
53 51 0 4 8 12 17 17 9 5 14 13 11 18 -9 14 39 20 151 18 60 -1 94 -4 77 -6
-63 -7 -32 -20 36 -15 40 3 78 0 88 -6 15 -9 11 -11 -22 -12 l-40 -1 44 -10
c30 -7 47 -6 54 1 6 6 29 11 51 11 53 0 41 8 -30 21 -33 5 -79 14 -104 18
l-45 9 61 1 c34 0 105 -8 157 -19 62 -12 130 -19 190 -18 113 2 133 -8 177
-86 35 -61 64 -91 80 -81 6 4 8 16 4 28 l-6 22 21 -22 c23 -24 27 -54 11 -83
-7 -13 -7 -21 0 -25 5 -3 10 -2 10 3 0 5 9 12 20 15 13 3 20 14 20 30 0 14 5
29 10 32 7 4 8 -3 4 -22 -4 -15 -3 -25 1 -21 9 8 47 -61 40 -73 -3 -4 -1 -10
4 -13 9 -6 35 20 44 44 4 11 6 9 6 -5 1 -11 -8 -26 -19 -33 -12 -7 -19 -16
-16 -21 3 -4 -1 -8 -9 -8 -8 0 -15 5 -15 11 0 6 -7 0 -16 -12 -19 -27 -12 -41
11 -22 9 7 18 11 20 8 3 -2 -14 -15 -36 -27 -33 -19 -50 -22 -87 -17 -36 5
-43 3 -34 -6 6 -6 32 -12 57 -13 55 -3 73 -15 22 -15 -42 0 -51 -20 -9 -21 27
0 27 0 4 -10 -22 -8 -19 -12 55 -67 280 -209 435 -493 468 -859 4 -40 9 -73
12 -73 2 0 35 13 73 29 305 130 644 120 946 -27 301 -148 516 -414 605 -749
27 -100 37 -326 19 -445 -53 -362 -291 -687 -624 -848 -677 -329 -1469 63
-1620 802 -9 42 -16 92 -16 111 0 19 -3 55 -6 79 l-6 46 -64 -29 c-324 -147
-727 -123 -1034 61 -182 110 -341 273 -424 437 l-16 33 -784 2 -783 3 454 550
c667 807 745 915 789 1088 44 171 -46 357 -214 439 -64 32 -71 33 -192 33
-115 0 -130 -2 -182 -27 -112 -52 -188 -162 -223 -320 l-17 -78 -179 0 -179 0
5 23 c2 12 10 51 16 87 52 307 216 524 456 604 137 46 310 58 453 32z m8862
-36 l133 -50 63 26 c141 57 337 68 487 29 117 -32 255 -113 255 -151 0 -43
-165 -133 -292 -158 -147 -30 -327 -15 -459 39 l-56 22 -129 -48 c-71 -27
-134 -49 -140 -49 -6 0 -18 7 -25 16 -12 14 -7 28 30 97 l44 81 -44 82 c-37
70 -41 84 -30 98 7 9 17 16 22 16 5 0 68 -22 141 -50z m437 -385 c59 -30 119
-113 199 -278 92 -186 115 -250 116 -322 1 -74 -43 -125 -109 -125 -13 0 -65
16 -117 36 -120 47 -157 47 -281 1 -123 -47 -149 -47 -193 -3 -30 30 -34 40
-34 88 0 64 22 133 87 273 133 287 229 384 332 330z m9081 -70 c0 -2 -25 -40
-57 -85 l-56 -80 -69 0 c-37 0 -68 2 -68 4 0 5 9 21 64 119 l27 47 79 0 c44 0
80 -2 80 -5z m-9489 -221 c9 -11 10 -20 2 -32 -9 -16 -65 -17 -647 -20 l-636
-2 2 -1933 3 -1932 32 -68 c38 -79 107 -151 191 -195 37 -20 248 -85 600 -186
565 -162 638 -188 749 -269 l60 -45 51 39 c54 41 157 96 232 122 25 9 268 80
540 157 294 84 525 155 568 175 90 42 172 122 210 202 l27 58 3 1938 2 1937
-635 0 c-631 0 -634 0 -645 21 -27 50 -40 49 679 47 l666 -3 3 -1950 c2 -2153
6 -2011 -61 -2124 -42 -71 -126 -144 -212 -187 -46 -22 -253 -87 -595 -184
-582 -166 -668 -199 -764 -290 -29 -27 -60 -50 -68 -50 -8 0 -25 12 -39 26
-38 42 -158 117 -234 146 -39 15 -277 86 -530 158 -253 72 -495 142 -538 156
-158 52 -283 163 -339 302 l-23 57 -3 1959 c-2 1452 1 1962 9 1972 9 12 124
14 669 14 588 0 659 -2 671 -16z m5374 -14 c33 -11 73 -30 88 -43 l28 -22 -27
-75 c-15 -41 -28 -76 -29 -78 -1 -1 -32 13 -68 32 -80 42 -142 53 -211 37
-115 -27 -177 -104 -184 -231 -4 -68 -1 -85 21 -132 66 -145 257 -183 410 -82
22 14 40 24 41 22 2 -2 15 -34 31 -71 34 -82 32 -88 -49 -133 -97 -53 -227
-68 -339 -39 -201 52 -317 204 -317 415 0 264 192 440 465 425 44 -2 107 -13
140 -25z m1614 15 c85 -20 152 -58 207 -117 149 -160 149 -436 0 -596 -55 -59
-122 -97 -207 -117 -222 -52 -435 39 -522 223 -31 64 -32 72 -32 192 0 122 1
127 34 194 43 87 104 149 185 187 106 50 219 61 335 34z m1702 1 c64 -14 123
-39 162 -68 16 -12 16 -17 -9 -83 -15 -38 -30 -74 -34 -78 -4 -5 -24 3 -45 17
-45 31 -124 56 -176 56 -59 0 -144 -36 -178 -76 -46 -52 -63 -100 -64 -179 0
-115 42 -186 138 -231 90 -43 236 -24 302 37 28 28 33 23 68 -61 l27 -65 -37
-32 c-106 -92 -320 -108 -471 -37 -82 39 -139 96 -181 182 -38 76 -38 76 -38
201 0 121 1 129 32 193 85 181 286 270 504 224z m3282 -15 c46 -20 107 -67
107 -82 0 -6 -12 -25 -27 -44 l-27 -34 -39 31 c-71 57 -144 71 -216 42 -49
-19 -71 -51 -71 -103 0 -63 33 -92 166 -148 128 -53 187 -96 215 -157 44 -97
7 -222 -84 -283 -87 -58 -228 -68 -320 -22 -58 30 -127 87 -127 107 0 9 14 30
30 47 l30 31 46 -42 c98 -92 227 -98 297 -15 21 25 27 43 27 78 0 41 -5 50
-37 81 -23 20 -85 54 -152 82 -68 29 -127 62 -147 81 -100 96 -79 264 40 334
81 47 200 54 289 16z m-8228 -158 c31 -98 68 -216 83 -263 14 -47 29 -89 33
-93 3 -5 21 38 39 95 17 57 55 177 84 268 l52 165 121 3 122 3 5 -33 c6 -38
56 -729 56 -770 l0 -28 -95 0 -95 0 0 33 c0 53 -29 510 -33 513 -1 2 -41 -119
-88 -269 l-85 -272 -80 -3 -80 -3 -83 263 c-90 283 -100 311 -101 263 0 -62
-21 -442 -26 -482 l-5 -43 -95 0 -95 0 6 48 c3 26 17 207 31 402 14 195 27
361 29 368 3 9 37 12 124 12 l120 0 56 -177z m915 -238 l0 -415 -100 0 -100 0
0 408 c0 225 3 412 7 415 3 4 48 7 100 7 l93 0 0 -415z m1130 250 l0 -165 165
0 165 0 2 163 3 162 98 3 97 3 0 -416 0 -415 -100 0 -100 0 0 170 0 170 -165
0 -165 0 0 -170 0 -170 -100 0 -100 0 0 408 c0 225 3 412 7 415 3 4 48 7 100
7 l93 0 0 -165z m2058 113 c102 -270 281 -747 287 -761 7 -16 0 -17 -101 -15
l-109 3 -26 75 -26 75 -149 3 -149 2 -29 -80 -28 -80 -100 0 c-91 0 -100 2
-96 18 6 19 273 730 293 780 l14 32 100 0 100 0 19 -52z m1718 -358 c84 -223
153 -409 154 -413 0 -4 -48 -6 -107 -5 l-107 3 -25 78 -25 77 -150 -2 -150 -3
-27 -75 -27 -75 -101 -3 c-55 -1 -101 -1 -101 2 0 2 68 183 150 403 83 219
152 404 155 411 3 9 31 12 106 10 l102 -3 153 -405z m614 131 l175 -274 3 277
2 277 93 -3 92 -3 3 -412 2 -413 -104 0 -103 0 -174 270 c-96 148 -176 270
-179 270 -3 0 -3 -121 -1 -270 l3 -270 -96 0 -96 0 0 415 0 416 102 -3 103 -3
175 -274z m1260 229 l0 -50 -185 0 -185 0 0 -125 0 -125 175 0 175 0 0 -50 0
-50 -175 0 -176 0 3 -142 3 -143 188 -3 187 -2 0 -45 0 -45 -250 0 -250 0 0
408 c0 225 3 412 7 415 3 4 114 7 245 7 l238 0 0 -50z m-18017 -95 c-3 -9 -8
-14 -10 -11 -3 3 -2 9 2 15 9 16 15 13 8 -4z m6493 -147 c14 -47 2 -48 -473
-48 l-443 0 0 -517 c0 -284 4 -513 8 -508 5 6 38 48 73 95 95 128 138 170 200
200 l56 26 -58 26 c-50 22 -59 30 -59 52 0 39 23 42 91 11 33 -15 62 -25 65
-22 2 2 -3 23 -11 47 -19 55 -19 160 1 208 35 86 139 154 236 156 75 1 94 -14
190 -150 71 -101 76 -110 62 -129 -26 -36 -27 -46 -14 -117 16 -81 14 -84 -62
-94 -53 -7 -60 -15 -25 -31 54 -25 114 -94 166 -189 30 -55 65 -119 79 -143
l24 -43 43 80 c57 106 113 187 191 277 l64 73 2 292 c3 261 5 294 20 303 12 8
21 7 32 -2 14 -12 16 -106 16 -927 l0 -914 660 0 660 0 0 970 0 970 -444 0
c-391 0 -446 2 -460 16 -9 8 -16 19 -16 23 0 29 36 31 506 29 l479 -3 3 -1809
2 -1809 -24 -41 c-14 -23 -42 -51 -64 -64 -23 -12 -285 -92 -584 -177 -558
-159 -610 -176 -689 -226 -54 -34 -71 -36 -110 -8 -66 47 -185 86 -703 234
-301 85 -559 161 -574 169 -36 19 -78 65 -91 99 -12 32 -16 3619 -4 3630 3 4
224 7 489 7 l483 0 7 -22z m1476 -327 c103 -26 172 -61 176 -87 3 -24 -142
-194 -167 -194 -9 0 -45 9 -79 20 -35 11 -79 20 -97 20 -18 0 -62 -9 -97 -20
-34 -11 -70 -20 -79 -20 -23 0 -164 165 -164 192 0 18 12 29 49 46 129 62 315
79 458 43z m-59 -317 c51 -17 69 -46 44 -72 -14 -13 -20 -13 -58 2 -24 10 -66
17 -94 17 -28 0 -70 -7 -94 -17 -38 -15 -44 -15 -58 -2 -61 62 133 116 260 72z
m-328 -192 c136 -44 166 -64 147 -97 -4 -8 -40 -51 -81 -95 -82 -91 -69 -87
-194 -54 -66 17 -72 17 -135 0 -130 -34 -118 -38 -202 60 -41 47 -76 95 -78
105 -4 24 67 59 179 89 95 26 272 22 364 -8z m-85 -310 c49 -19 63 -48 36 -72
-13 -10 -23 -9 -56 4 -52 20 -128 20 -180 0 -51 -20 -72 -13 -68 23 2 22 12
31 48 45 58 22 162 22 220 0z m530 -191 c52 -18 100 -37 107 -43 25 -21 12
-48 -64 -134 -86 -96 -78 -93 -193 -59 -64 19 -127 14 -202 -16 l-51 -20 -73
78 c-116 124 -118 140 -29 175 114 45 185 58 300 55 92 -3 126 -9 205 -36z
m2954 -764 c272 -810 347 -1029 352 -1024 2 2 120 345 263 763 142 417 273
801 291 852 l33 92 286 0 287 0 98 -1152 c54 -634 100 -1172 103 -1196 l6 -42
-224 2 -224 3 -67 875 c-37 481 -68 889 -70 905 -3 35 22 105 -371 -1015
l-272 -775 -154 -3 c-85 -1 -158 1 -162 5 -4 5 -55 145 -112 313 -172 501
-499 1453 -509 1479 -5 13 -10 22 -12 20 -2 -2 -32 -410 -67 -906 l-64 -903
-218 0 -219 0 6 48 c3 26 46 544 96 1152 49 608 92 1124 96 1148 l5 42 297 0
297 0 229 -683z m3576 498 l0 -185 -515 0 -515 0 0 -295 0 -295 485 0 485 0 0
-185 0 -185 -482 -2 -483 -3 -3 -337 -2 -338 527 -2 528 -3 3 -187 2 -188
-755 0 -755 0 0 1195 0 1195 740 0 740 0 0 -185z m850 -1057 c0 -1034 -3
-1259 -15 -1338 -38 -250 -136 -387 -330 -460 -103 -38 -320 -38 -459 1 l-39
11 6 165 c3 90 7 166 10 169 2 2 17 -1 33 -7 16 -6 70 -12 119 -13 77 -1 95 2
125 21 43 26 74 79 89 151 8 37 11 424 11 1297 l0 1245 225 0 225 0 0 -1242z
m-7482 1018 c40 -21 50 -42 29 -63 -14 -14 -20 -14 -63 1 -61 21 -117 20 -176
-1 -39 -14 -49 -14 -62 -4 -32 27 -15 53 51 77 50 19 177 13 221 -10z m-10303
-772 c26 -18 50 -18 65 1 7 8 23 15 36 15 33 0 31 -30 -2 -64 -30 -29 -74 -34
-114 -11 -33 19 -76 19 -84 0 -6 -17 -24 -19 -44 -6 -11 6 -11 13 0 36 23 50
91 64 143 29z m790 -131 c72 -24 139 -95 161 -169 68 -234 -123 -424 -361
-359 -127 34 -198 129 -199 265 -1 66 3 85 29 136 32 62 94 114 159 133 52 15
159 12 211 -6z m609 -3 c75 -29 80 -37 50 -88 l-25 -42 -31 21 c-42 30 -122
38 -148 14 -44 -40 -20 -69 90 -110 43 -17 88 -42 107 -60 57 -57 54 -153 -8
-214 -30 -31 -110 -61 -159 -61 -62 0 -190 58 -190 85 0 6 13 27 29 47 l28 37
32 -23 c71 -53 161 -54 180 -4 12 31 -3 56 -42 73 -146 63 -167 75 -187 107
-34 57 -20 148 30 193 51 46 157 57 244 25z m-1404 -173 l115 -181 3 182 2
182 60 0 60 0 0 -270 0 -271 -67 3 -67 3 -114 175 c-62 96 -116 176 -120 178
-4 1 -6 -79 -4 -178 l4 -180 -61 0 -61 0 0 270 0 270 68 0 67 -1 115 -182z
m-168 -737 c26 -32 32 -66 18 -101 -16 -37 -56 -59 -110 -59 l-40 0 0 96 0 96
57 -4 c43 -4 61 -10 75 -28z m228 20 c0 -5 -20 -10 -45 -10 -43 0 -45 -1 -45
-30 0 -28 2 -30 40 -30 22 0 40 -4 40 -10 0 -5 -18 -10 -40 -10 -39 0 -40 -1
-40 -35 0 -35 0 -35 45 -35 25 0 45 -4 45 -10 0 -5 -25 -10 -55 -10 l-55 0 0
95 0 95 55 0 c30 0 55 -4 55 -10z m120 -75 l0 -85 35 0 c19 0 35 -4 35 -10 0
-5 -20 -10 -45 -10 l-45 0 0 95 c0 57 4 95 10 95 6 0 10 -35 10 -85z m370 75
c0 -5 -18 -10 -40 -10 -38 0 -40 -2 -40 -30 0 -28 2 -30 40 -30 22 0 40 -4 40
-10 0 -5 -18 -10 -40 -10 -39 0 -40 -1 -40 -35 0 -34 1 -35 40 -35 22 0 40 -4
40 -10 0 -5 -25 -10 -55 -10 l-55 0 0 95 0 95 55 0 c30 0 55 -4 55 -10z m197
-6 c2 -7 -10 -11 -34 -10 -54 1 -53 -30 2 -58 67 -35 57 -106 -15 -106 -29 0
-69 24 -58 36 4 4 14 1 22 -5 24 -20 70 -10 74 17 3 18 -5 26 -42 42 -39 16
-46 23 -46 48 0 15 6 34 12 40 15 15 80 12 85 -4z m213 6 c0 -5 -11 -10 -25
-10 -25 0 -25 -1 -25 -85 0 -50 -4 -85 -10 -85 -6 0 -10 35 -10 85 l0 85 -30
0 c-16 0 -30 5 -30 10 0 6 28 10 65 10 37 0 65 -4 65 -10z m184 -78 c20 -48
36 -91 36 -95 0 -17 -21 -5 -30 18 -8 21 -16 25 -53 25 -37 0 -46 -4 -55 -25
-22 -48 -31 -24 -11 28 12 28 28 71 37 95 9 23 21 42 28 42 6 0 28 -40 48 -88z
m237 73 c19 -10 32 -26 36 -45 17 -85 -20 -130 -107 -130 l-40 0 0 95 0 95 40
0 c23 0 54 -7 71 -15z m293 -11 c60 -61 17 -164 -70 -164 -58 0 -93 37 -94 98
0 60 32 92 93 92 34 0 50 -6 71 -26z m336 16 c0 -5 -18 -10 -40 -10 -39 0 -40
-1 -40 -35 0 -34 1 -35 43 -37 l42 -1 -42 -4 -43 -4 0 -45 c0 -24 -4 -44 -10
-44 -6 0 -10 38 -10 95 l0 95 50 0 c28 0 50 -4 50 -10z m200 0 c0 -5 -20 -10
-45 -10 -43 0 -45 -1 -45 -30 0 -29 2 -30 45 -30 25 0 45 -4 45 -10 0 -5 -20
-10 -45 -10 -45 0 -45 0 -45 -35 0 -35 0 -35 45 -35 25 0 45 -4 45 -10 0 -5
-25 -10 -55 -10 l-55 0 0 95 0 95 55 0 c30 0 55 -4 55 -10z m209 -5 c33 -17
41 -33 41 -84 0 -52 -34 -82 -100 -89 l-50 -5 0 97 0 96 40 0 c23 0 54 -7 69
-15z m251 5 c0 -5 -20 -10 -45 -10 -43 0 -45 -1 -45 -30 0 -28 2 -30 40 -30
22 0 40 -4 40 -10 0 -5 -18 -10 -40 -10 -39 0 -40 -1 -40 -35 0 -35 0 -35 45
-35 25 0 45 -4 45 -10 0 -5 -25 -10 -55 -10 l-55 0 0 95 0 95 55 0 c30 0 55
-4 55 -10z m192 -7 c24 -21 23 -48 -3 -74 l-21 -21 26 -39 c19 -27 22 -39 12
-39 -7 0 -25 18 -40 40 -14 22 -33 40 -41 40 -11 0 -15 -11 -15 -40 0 -22 -4
-40 -10 -40 -6 0 -10 38 -10 95 l0 95 42 0 c24 0 49 -7 60 -17z m228 -81 c26
-61 34 -92 26 -92 -7 0 -18 11 -24 25 -10 21 -18 25 -57 25 -39 0 -45 -3 -51
-25 -3 -14 -12 -25 -19 -25 -13 0 -7 19 51 158 7 19 19 32 25 30 6 -2 28 -45
49 -96z m140 13 l0 -85 35 0 c19 0 35 -4 35 -10 0 -5 -20 -10 -45 -10 l-45 0
0 95 c0 57 4 95 10 95 6 0 10 -35 10 -85z m381 70 c19 -10 32 -26 36 -45 17
-85 -20 -130 -107 -130 l-40 0 0 95 0 95 40 0 c23 0 54 -7 71 -15z m249 5 c0
-5 -20 -10 -45 -10 -43 0 -45 -1 -45 -30 0 -28 2 -30 40 -30 22 0 40 -4 40
-10 0 -5 -18 -10 -40 -10 -39 0 -40 -1 -40 -35 0 -35 0 -35 45 -35 25 0 45 -4
45 -10 0 -5 -25 -10 -55 -10 l-55 0 0 95 0 95 55 0 c30 0 55 -4 55 -10z
m-4300 -110 c0 -6 -87 -10 -240 -10 -153 0 -240 4 -240 10 0 6 87 10 240 10
153 0 240 -4 240 -10z m4880 0 c0 -6 -88 -10 -245 -10 -157 0 -245 4 -245 10
0 6 88 10 245 10 157 0 245 -4 245 -10z m-795 -287 c-42 -71 -60 -84 -103 -81
l-41 3 30 53 c30 52 31 52 80 52 l50 0 -16 -27z m-3079 -143 c23 -10 44 -22
48 -28 7 -11 -23 -105 -33 -99 -3 1 -28 13 -55 26 -122 58 -246 -17 -246 -147
0 -142 132 -215 265 -147 27 13 49 23 50 22 46 -96 44 -102 -37 -137 -44 -19
-65 -22 -138 -18 -71 3 -95 9 -132 31 -93 54 -131 124 -131 242 -1 91 13 132
63 189 79 89 229 118 346 66z m1260 1 c50 -23 104 -75 130 -127 27 -54 27
-204 0 -254 -52 -99 -125 -142 -249 -148 -83 -4 -91 -3 -153 28 -109 53 -149
129 -142 270 2 64 8 85 33 125 57 93 156 139 275 129 35 -3 83 -13 106 -23z
m1290 -1 c23 -10 44 -22 47 -27 5 -8 -13 -71 -28 -100 0 -1 -23 9 -50 22 -128
65 -258 -7 -258 -144 0 -105 54 -163 158 -169 49 -3 69 1 108 21 l49 25 19
-46 c19 -45 19 -47 2 -60 -47 -37 -99 -52 -178 -52 -92 0 -149 21 -203 73 -60
58 -77 101 -77 202 0 82 3 95 31 144 36 64 89 105 164 126 66 18 156 12 216
-15z m-3782 -162 c32 -101 61 -176 64 -168 3 8 29 89 57 180 l52 165 81 3 82
3 0 -26 c0 -33 28 -417 35 -472 l5 -43 -60 0 c-47 0 -60 3 -64 18 -2 9 -8 90
-12 180 -3 89 -9 162 -13 162 -3 0 -31 -80 -61 -178 l-56 -177 -51 -3 -51 -3
-51 163 c-69 218 -67 214 -74 148 -4 -30 -9 -112 -13 -183 l-6 -127 -59 0
c-52 0 -59 2 -59 20 0 33 30 432 36 478 l5 42 77 0 78 0 58 -182z m666 -88 l0
-270 -65 0 -65 0 0 270 0 270 65 0 65 0 0 -270z m900 165 l0 -105 110 0 110 0
0 105 0 105 65 0 65 0 0 -270 0 -270 -65 0 -65 0 0 110 0 110 -110 0 -110 0 0
-110 0 -110 -60 0 -60 0 0 270 0 270 60 0 60 0 0 -105z m1589 -118 c46 -122
92 -243 102 -269 l19 -48 -69 0 -68 0 -19 55 -18 56 -100 -3 -99 -3 -17 -50
-17 -50 -65 -3 -66 -3 102 271 101 270 65 0 65 0 84 -223z m1126 206 c18 -45
195 -516 195 -520 0 -2 -30 -3 -66 -1 l-67 3 -20 52 -20 53 -98 0 -98 0 -17
-55 -18 -55 -63 0 c-35 0 -63 2 -63 5 0 4 149 405 189 508 10 26 14 27 75 27
51 0 65 -3 71 -17z m575 -156 c59 -93 113 -174 119 -180 8 -8 11 38 11 171 l0
182 60 0 60 0 0 -270 0 -270 -67 0 -68 0 -115 180 c-63 99 -117 179 -120 180
-3 0 -4 -81 -2 -180 l3 -180 -61 0 -60 0 0 270 0 271 66 -3 67 -3 107 -168z"/>
<path d="M2306 5030 c-16 -5 -34 -6 -39 -3 -6 4 -8 -2 -5 -15 3 -12 0 -26 -7
-32 -11 -9 -12 -7 -8 9 7 29 -6 26 -47 -11 -29 -25 -31 -30 -12 -25 30 7 28
-1 -3 -13 -14 -5 -25 -14 -25 -20 0 -14 12 -13 37 5 16 11 22 12 26 2 3 -9 8
-9 21 2 9 8 29 15 44 16 15 2 36 6 47 9 11 4 7 0 -8 -9 -16 -9 -26 -22 -24
-29 3 -7 -15 -34 -40 -62 -24 -27 -37 -37 -28 -23 14 24 14 27 0 33 -25 9 -55
7 -55 -3 0 -18 21 -23 37 -9 12 9 15 10 9 0 -4 -6 -20 -19 -37 -27 -26 -14
-29 -14 -29 1 0 14 -3 14 -15 4 -12 -10 -13 -15 -4 -20 8 -5 6 -11 -7 -18 -32
-18 -8 -24 28 -7 31 15 23 6 -19 -22 -17 -12 -17 -12 2 -7 11 3 -5 -8 -35 -26
-63 -35 -92 -60 -71 -60 7 0 25 8 39 19 44 30 72 43 72 32 0 -6 -17 -19 -37
-30 -38 -19 -84 -61 -67 -61 5 0 36 18 69 40 33 22 68 40 78 40 10 0 20 6 23
14 3 8 20 18 37 22 18 3 51 19 74 35 41 27 58 19 20 -10 -13 -9 -15 -17 -9
-23 12 -12 46 -3 38 10 -2 4 5 14 17 22 20 12 21 12 8 -3 -8 -10 -9 -17 -3
-17 6 0 14 5 18 11 4 8 9 7 15 -2 9 -15 -20 -39 -54 -44 -45 -7 -211 -70 -194
-73 14 -3 8 -9 -22 -24 -56 -28 -52 -42 5 -18 52 23 58 24 49 10 -8 -13 16
-13 35 0 13 9 13 12 -3 24 -15 12 -12 14 32 19 61 7 115 37 166 90 22 23 58
57 80 74 58 47 30 40 -32 -7 -29 -22 -53 -35 -53 -29 0 5 -5 7 -12 3 -7 -4 -8
-3 -4 4 4 6 13 9 20 6 8 -3 17 -1 21 5 3 6 -1 11 -11 11 -14 0 -15 2 -3 17 8
10 9 14 2 10 -6 -4 -14 -3 -17 2 -4 5 -1 13 6 17 21 13 45 11 45 -3 0 -7 -4
-13 -9 -13 -4 0 -8 -5 -8 -10 0 -6 23 1 51 16 28 14 48 20 44 13 -5 -7 -3 -10
5 -7 7 2 14 12 16 22 3 24 7 26 46 35 18 5 44 11 58 15 19 6 21 5 10 -3 -13
-9 -13 -11 -1 -11 11 0 9 -4 -5 -15 -10 -8 -15 -15 -10 -15 5 0 -15 -12 -45
-27 -30 -16 -56 -25 -59 -21 -7 9 -70 -31 -70 -44 0 -9 12 -5 40 16 8 6 -10
-12 -40 -41 -57 -54 -55 -75 2 -24 60 52 111 82 130 75 10 -3 18 0 18 6 0 6
-4 8 -10 5 -5 -3 -10 -3 -10 2 0 4 25 19 55 32 30 13 55 28 55 33 0 6 -6 8
-14 5 -8 -3 -13 1 -13 11 0 10 -1 22 -2 27 -3 22 -216 8 -266 -18 -19 -9 -19
-9 -5 8 12 16 8 15 -27 -5 -49 -27 -100 -74 -108 -99 -3 -10 -21 -25 -40 -34
-47 -22 -51 -21 -26 6 12 12 28 31 37 42 8 11 12 13 8 5 -5 -8 14 4 40 28 27
23 53 42 57 42 5 0 9 5 9 10 0 7 -6 7 -19 1 -21 -12 -32 -5 -24 15 7 19 -26
30 -48 15 -15 -9 -19 -8 -19 2 0 16 42 57 58 57 7 0 12 5 12 10 0 12 -14 12
-54 0z m124 -114 c0 -2 -8 -10 -17 -17 -16 -13 -17 -12 -4 4 13 16 21 21 21
13z m-40 -30 c0 -2 -8 -10 -17 -17 -16 -13 -17 -12 -4 4 13 16 21 21 21 13z
m11 -59 c-6 -8 -7 -18 -3 -22 4 -5 1 -5 -6 -1 -10 6 -10 11 -1 22 6 8 14 14
16 14 3 0 0 -6 -6 -13z m-196 -57 c-3 -5 -14 -10 -23 -10 -15 0 -15 2 -2 10
20 13 33 13 25 0z"/>
<path d="M2363 5013 c-14 -5 -18 -23 -5 -23 5 0 17 7 28 15 14 11 15 14 4 14
-8 0 -21 -3 -27 -6z"/>
<path d="M2891 5011 c-10 -6 -9 -10 3 -14 8 -3 18 -2 21 3 8 13 -9 20 -24 11z"/>
<path d="M2440 4988 c-19 -6 -29 -13 -22 -15 20 -8 83 7 77 18 -7 11 -9 10
-55 -3z"/>
<path d="M2929 4976 c15 -18 51 -27 51 -14 0 6 6 5 15 -2 8 -7 15 -8 15 -2 0
17 -31 37 -39 24 -4 -7 -12 -8 -21 -2 -22 14 -34 12 -21 -4z"/>
<path d="M2493 4970 c-38 -15 -26 -22 25 -14 73 11 96 23 42 23 -25 0 -55 -4
-67 -9z"/>
<path d="M2890 4971 c0 -6 -7 -11 -17 -11 -27 0 -6 -13 34 -20 l38 -8 -35 -1
c-35 -2 -35 -2 -11 -15 16 -9 20 -16 12 -20 -6 -4 -9 -12 -5 -17 3 -6 -13 -17
-35 -26 -44 -17 -56 -37 -17 -27 15 3 33 0 46 -9 19 -13 16 -14 -31 -9 -42 4
-62 0 -110 -23 -32 -16 -58 -33 -57 -39 3 -14 -24 -56 -36 -56 -5 0 1 12 15
27 l24 27 -35 -25 c-32 -24 -36 -32 -43 -95 -5 -38 -15 -84 -23 -101 -16 -39
1 -46 18 -8 21 47 26 25 5 -24 -11 -28 -24 -48 -29 -45 -5 3 -8 2 -7 -3 3 -19
-2 -34 -10 -28 -5 3 -13 0 -17 -6 -4 -8 -3 -9 4 -5 7 4 12 1 12 -6 0 -7 12 0
25 15 29 33 34 14 9 -34 -8 -17 -13 -37 -10 -44 2 -7 -6 -29 -20 -48 -44 -66
-21 -61 27 5 22 32 29 36 29 21 0 -11 -18 -41 -40 -66 -49 -55 -72 -137 -53
-187 6 -17 7 -28 2 -24 -11 6 -12 -16 -1 -32 4 -6 16 -14 26 -17 10 -4 16 -10
13 -14 -12 -11 15 -34 27 -24 8 7 11 -2 11 -30 0 -21 -4 -39 -8 -39 -5 0 -5
-5 -1 -11 3 -6 21 -9 39 -7 19 2 31 0 29 -4 -3 -4 1 -8 8 -9 7 0 4 -4 -7 -9
-19 -8 -19 -8 4 -17 27 -11 71 -5 71 8 0 5 8 9 18 9 13 -1 10 -6 -13 -25 -16
-13 -26 -27 -22 -31 4 -4 15 0 26 10 17 16 18 16 15 -6 -4 -30 -12 -63 -15
-63 -1 0 -3 -10 -4 -22 -2 -17 3 -23 18 -23 19 0 19 -1 4 -12 -24 -18 -31 -58
-10 -58 9 0 14 -3 11 -6 -4 -3 -52 7 -108 21 -65 18 -116 26 -140 22 -31 -4
-37 -2 -33 9 3 8 -3 24 -12 34 -10 11 -14 20 -9 20 5 0 2 5 -6 10 -12 8 -12
10 -1 10 11 0 11 3 0 18 -11 14 -9 13 9 -2 12 -11 25 -16 29 -12 4 4 1 11 -7
16 -12 8 -9 10 10 10 20 0 22 2 10 10 -13 8 -13 10 -1 10 11 0 10 4 -4 13 -11
9 -14 16 -7 21 6 3 13 2 17 -4 3 -5 10 -10 16 -10 10 0 -10 40 -26 52 -6 5 -6
8 2 8 6 0 9 9 6 20 -7 27 -13 20 -19 -20 -4 -25 -2 -31 8 -25 7 3 4 0 -6 -9
-31 -25 -41 -8 -21 37 4 9 4 24 1 33 -4 10 -2 13 7 8 9 -6 9 -5 0 7 -6 8 -17
28 -23 43 -9 26 -9 27 5 16 15 -12 22 0 8 14 -4 3 -8 16 -10 28 -2 12 -8 27
-14 35 -8 9 -8 13 0 13 6 0 11 5 11 10 0 6 -9 10 -20 10 -13 0 -18 5 -14 15 4
8 1 15 -5 15 -8 0 -9 5 -3 16 5 9 7 25 5 35 -3 11 -1 19 5 19 20 0 20 26 -1
27 -30 3 -45 22 -27 33 13 9 13 10 0 10 -9 0 -21 -5 -27 -11 -7 -7 -17 5 -32
40 -26 61 -67 87 -132 82 -8 0 -34 -17 -57 -37 l-42 -36 0 -72 c0 -64 5 -82
36 -145 38 -76 70 -106 144 -135 25 -10 53 -22 63 -27 11 -6 17 -5 17 1 0 6
10 8 24 4 18 -4 27 0 36 16 6 12 14 20 17 17 11 -12 -24 -47 -47 -47 -24 -1
-24 -1 -5 -16 18 -13 17 -14 -12 -8 -24 5 -37 2 -50 -12 -13 -12 -14 -19 -5
-22 19 -6 14 -24 -5 -20 -10 1 -33 -4 -51 -11 -25 -11 -39 -11 -57 -3 -29 13
-33 5 -8 -13 16 -12 14 -12 -10 -8 -16 3 -27 1 -27 -6 0 -6 6 -11 13 -11 8 0
14 -7 14 -15 0 -11 -4 -12 -11 -5 -14 14 -29 12 -23 -3 4 -10 -2 -13 -21 -11
-17 2 -12 -1 13 -10 26 -8 35 -15 25 -19 -10 -4 -11 -6 -2 -6 7 -1 11 -5 7
-11 -3 -5 -12 -7 -20 -4 -8 4 -13 9 -11 13 3 4 -4 7 -15 7 -22 0 -26 -14 -5
-22 14 -5 10 -54 -5 -54 -5 0 -6 -6 -3 -14 3 -8 20 -17 37 -19 30 -4 29 -4 -7
-5 -29 -2 -37 -5 -32 -17 3 -8 0 -15 -5 -15 -7 0 -9 9 -5 23 5 22 -13 77 -26
77 -11 0 -152 191 -183 248 -15 28 -31 52 -35 52 -4 0 -17 -21 -28 -47 -99
-233 -85 -507 38 -713 64 -108 61 -105 99 -86 17 9 30 20 27 24 -3 5 5 14 17
22 21 12 21 12 7 -5 -11 -14 -12 -19 -2 -22 6 -3 12 -9 12 -14 0 -4 -7 -6 -16
-2 -14 5 -16 2 -10 -20 4 -16 1 -31 -9 -40 -12 -13 -7 -21 43 -64 78 -67 103
-83 130 -83 13 0 20 -4 17 -10 -7 -12 121 -74 135 -65 4 3 10 -1 13 -7 4 -10
7 -11 18 0 7 6 19 12 27 12 12 0 12 -2 1 -17 -13 -15 -12 -15 11 -2 13 8 31
21 40 29 8 9 11 10 6 3 -5 -8 -4 -13 3 -13 6 0 14 7 17 15 8 20 22 19 69 -5
37 -19 38 -20 12 -20 -21 0 -27 -5 -27 -21 0 -21 3 -22 98 -16 108 7 198 28
194 46 -1 7 6 9 23 5 27 -7 32 4 13 26 -7 8 -3 6 9 -3 20 -17 23 -17 52 -3 33
17 56 50 46 66 -3 6 1 10 9 10 19 0 21 -26 4 -33 -7 -2 -10 -7 -7 -11 4 -4 14
0 22 9 9 8 20 15 26 15 6 0 11 5 11 10 0 6 5 10 10 10 12 0 70 41 70 49 0 3
-10 6 -22 6 -13 1 -92 7 -176 14 -132 12 -155 12 -163 0 -7 -11 -9 -11 -9 4 0
12 -8 17 -30 17 -18 0 -33 6 -36 15 -4 8 -18 15 -33 15 -21 0 -23 -2 -11 -11
12 -8 11 -9 -5 -6 -11 3 -44 11 -72 17 -46 10 -53 15 -53 36 0 26 -15 33 -23
11 -10 -26 5 -69 22 -65 22 5 62 -37 48 -51 -8 -8 -19 -3 -39 16 -21 20 -31
24 -40 15 -8 -8 -4 -13 16 -18 14 -3 26 -10 26 -14 0 -5 9 -12 20 -15 20 -6
20 -7 -2 -25 -15 -12 -28 -15 -38 -10 -9 5 -44 12 -79 16 -40 4 -58 10 -49 15
7 5 20 6 29 4 25 -8 40 18 51 94 6 39 14 68 19 65 5 -3 9 16 9 42 0 44 1 46
23 39 12 -4 30 -7 39 -8 13 -1 14 -5 6 -14 -6 -7 -16 -13 -22 -13 -6 0 -18 -4
-26 -10 -12 -7 -12 -12 4 -29 14 -15 31 -21 63 -21 23 0 43 5 43 11 0 5 5 7
10 4 6 -3 10 0 10 7 1 7 7 0 14 -17 22 -50 52 -70 103 -69 27 1 39 -2 31 -7
-22 -14 5 -10 35 5 24 13 27 13 27 -2 0 -15 1 -15 16 0 15 14 15 21 4 48 -9
22 -18 30 -31 27 -12 -3 -16 0 -12 9 3 8 0 14 -6 14 -6 0 -11 -4 -11 -10 0 -5
-23 -10 -51 -10 -47 0 -50 -1 -39 -17 7 -10 -6 2 -28 27 -23 25 -55 59 -72 77
-16 17 -30 36 -30 41 0 6 -6 12 -12 15 -10 3 -10 7 0 20 8 9 11 21 7 27 -3 5
-1 10 5 10 15 0 40 26 40 41 0 10 -3 10 -11 2 -9 -9 -15 -8 -27 3 -9 9 -28 14
-51 12 -30 -3 -36 -7 -35 -25 0 -13 -3 -23 -8 -23 -4 0 -8 -7 -8 -15 0 -18 16
-20 23 -2 3 7 6 5 6 -5 1 -26 -17 -22 -50 11 -30 30 -38 68 -18 88 8 8 4 16
-14 28 -35 23 -72 17 -71 -12 0 -12 -3 -20 -8 -17 -4 3 -8 0 -8 -6 0 -6 -13
-1 -30 12 -16 12 -30 28 -30 35 0 11 -6 10 -25 -4 -23 -17 -41 -49 -37 -65 1
-5 -5 -8 -14 -8 -8 0 -12 5 -8 11 4 7 0 9 -13 5 -14 -4 -20 -2 -20 9 0 9 6 14
14 11 17 -7 43 3 43 16 0 5 -8 17 -18 26 -10 10 -12 13 -5 8 18 -12 28 0 14
18 -24 29 36 27 113 -3 16 -6 37 -9 48 -5 10 3 30 -2 44 -11 13 -8 30 -15 37
-14 6 1 25 -3 40 -9 16 -7 33 -12 38 -12 5 0 9 -7 9 -15 0 -8 5 -15 11 -15 5
0 7 5 4 10 -3 6 -1 10 5 10 6 0 8 5 4 12 -4 7 10 2 31 -10 25 -16 40 -20 45
-12 4 7 13 3 25 -10 17 -19 17 -21 2 -38 -20 -22 -22 -43 -4 -62 6 -7 -1 -4
-18 7 -39 26 -63 20 -38 -11 9 -11 11 -15 3 -8 -17 15 -30 16 -30 2 0 -11 48
-34 65 -32 15 2 58 -65 52 -82 -3 -7 0 -19 6 -25 15 -15 84 -14 90 2 3 9 9 9
26 -1 17 -10 21 -10 21 0 0 29 22 88 30 83 11 -7 2 50 -12 78 -5 9 -16 17 -24
17 -8 0 -12 5 -9 10 3 6 1 10 -6 10 -7 0 -9 3 -6 7 4 4 22 -4 39 -17 20 -15
33 -19 36 -12 2 8 17 5 44 -9 30 -15 39 -17 35 -7 -4 11 2 13 24 10 29 -4 51
-22 28 -22 -7 0 -10 -3 -7 -6 4 -3 15 -1 26 5 17 9 22 8 27 -8 3 -10 24 -47
47 -82 22 -35 34 -58 26 -51 -8 6 -18 9 -22 5 -4 -4 -4 0 -1 9 4 10 -4 23 -24
38 -17 12 -29 25 -26 29 10 17 -37 44 -85 49 -50 5 -61 -3 -38 -26 9 -9 7 -12
-10 -12 -24 0 -62 -32 -62 -54 0 -7 11 -29 24 -49 l25 -36 -24 9 c-29 11 -37
3 -24 -22 6 -11 8 -26 5 -34 -8 -20 11 -17 23 4 10 16 10 16 11 0 0 -23 17
-32 65 -34 22 0 72 -4 111 -8 49 -5 74 -4 78 3 5 7 -5 11 -27 11 -46 0 -63 20
-37 43 11 9 20 12 20 7 0 -24 21 -7 27 21 l6 32 18 -24 c20 -26 25 -44 9 -34
-5 3 -10 2 -10 -4 0 -5 9 -9 21 -8 13 1 37 25 68 73 154 230 181 519 71 767
-20 46 -23 48 -57 45 -20 -2 -40 -10 -46 -19 -15 -24 0 -68 28 -81 24 -11 24
-12 9 -30 -16 -17 -16 -19 0 -37 16 -17 16 -22 1 -57 -17 -40 -13 -64 16 -106
26 -36 24 -42 -6 -13 -13 14 -33 25 -43 25 -18 0 -37 31 -33 54 1 5 -5 6 -14
3 -17 -7 -21 18 -5 28 19 12 10 21 -36 34 -45 13 -47 13 -64 -9 l-18 -24 0 37
c0 20 5 40 11 44 6 4 7 1 2 -7 -6 -10 -1 -12 19 -8 14 3 26 1 26 -3 0 -18 21
-8 58 26 29 26 44 33 63 28 24 -6 24 -6 -3 16 -16 12 -28 29 -28 36 0 29 -27
43 -71 35 -34 -6 -45 -4 -60 11 -14 14 -15 20 -6 26 16 10 18 43 3 43 -6 0 -4
5 4 10 8 5 11 10 6 10 -5 0 1 9 14 20 13 11 32 20 43 20 16 0 15 -4 -12 -29
-32 -30 -41 -53 -18 -47 6 1 9 1 5 -1 -10 -6 -10 -43 -1 -43 4 0 20 12 35 27
22 21 40 27 81 30 99 5 102 6 105 34 2 17 -5 34 -22 50 -14 13 -26 30 -26 37
0 6 -4 12 -8 12 -4 0 -15 12 -24 28 -20 32 -85 102 -95 102 -5 0 -21 11 -37
25 -26 22 -50 36 -33 18 4 -3 0 -14 -8 -23 -21 -23 -29 -64 -11 -57 11 5 11 0
-1 -23 -9 -18 -19 -27 -28 -23 -8 3 -12 10 -8 16 3 5 1 7 -4 4 -6 -4 -8 -18
-5 -32 3 -18 1 -25 -9 -23 -8 2 -13 -3 -12 -9 2 -8 -7 -13 -20 -13 -21 0 -20
1 8 25 29 24 29 26 12 39 -11 8 -25 12 -33 9 -28 -11 -13 14 19 30 31 17 31
17 5 12 -16 -3 -28 -1 -28 4 0 5 -7 16 -15 25 -14 14 -12 17 25 36 42 22 54
50 20 50 -26 0 -100 -69 -82 -77 6 -2 12 -10 12 -17 0 -12 -12 -16 -53 -17
-12 0 -17 -5 -13 -15 3 -8 -1 -14 -9 -14 -8 0 -18 15 -23 33 -8 29 -5 34 27
59 20 15 41 28 48 28 6 0 21 14 34 31 25 36 15 55 -22 41 -13 -5 -29 -7 -36
-5 -16 6 -5 33 13 33 8 0 14 4 14 9 0 15 41 20 60 8 14 -8 25 -8 45 1 17 8 32
9 45 2 11 -6 29 -14 40 -20 32 -16 45 -12 26 9 -10 11 -22 37 -27 58 -6 21
-11 43 -13 48 -2 6 -6 24 -11 40 -4 17 -13 37 -19 45 -7 8 -18 26 -25 40 -21
43 -141 109 -198 111 -15 0 -22 3 -14 6 17 7 121 -16 121 -26 0 -5 13 -8 30
-7 33 1 36 6 18 24 -18 18 3 14 24 -5 29 -26 21 -1 -14 42 -33 39 -29 39 25 3
28 -20 38 -10 12 12 -12 10 -13 16 -4 26 9 11 4 20 -21 44 -18 17 -49 38 -69
47 -20 9 -39 18 -43 20 -5 2 -8 -1 -8 -6z m20 -594 c0 -2 -12 -14 -26 -28
l-27 -24 18 28 c14 22 35 36 35 24z m-644 -84 c-3 -8 -2 -12 2 -9 4 2 15 -9
24 -25 10 -16 15 -29 13 -29 -12 0 -74 63 -69 71 11 18 -13 8 -34 -14 -15 -16
-19 -30 -15 -46 4 -17 3 -22 -5 -17 -22 13 -14 63 14 85 21 17 30 18 50 9 15
-7 23 -17 20 -25z m-89 -115 c-3 -7 -5 -2 -5 12 0 14 2 19 5 13 2 -7 2 -19 0
-25z m202 1 c1 10 4 11 15 2 11 -10 9 -17 -15 -41 -33 -32 -36 -48 -14 -76 16
-21 20 -54 6 -54 -5 0 -11 9 -14 20 -3 12 -14 20 -26 20 -21 0 -22 13 -5 68 4
15 3 15 -33 -3 -23 -12 -30 -21 -27 -40 3 -29 -11 -25 -19 4 -10 38 71 128 89
99 5 -7 11 -3 17 13 l10 24 7 -25 c5 -14 8 -19 9 -11z m-169 -68 c0 -28 34
-81 67 -106 10 -8 13 -15 7 -15 -19 0 -84 78 -84 101 0 11 -5 29 -10 39 -8 16
-8 18 5 14 8 -4 15 -18 15 -33z m220 29 c0 -5 -5 -10 -11 -10 -5 0 -7 5 -4 10
3 6 8 10 11 10 2 0 4 -4 4 -10z m584 -34 c-10 -8 -21 -12 -24 -10 -5 6 21 24
34 24 6 0 1 -6 -10 -14z m-74 -26 c0 -5 -2 -10 -4 -10 -3 0 -8 5 -11 10 -3 6
-1 10 4 10 6 0 11 -4 11 -10z m-12 -47 c2 -8 -6 -13 -22 -13 -25 0 -33 10 -19
24 10 10 36 3 41 -11z m-28 -53 c12 -8 9 -10 -13 -10 -16 0 -26 4 -22 10 8 12
16 12 35 0z m-70 -30 c13 -8 13 -10 -2 -10 -9 0 -20 5 -23 10 -8 13 5 13 25 0z
m113 -27 c-7 -2 -21 -2 -30 0 -10 3 -4 5 12 5 17 0 24 -2 18 -5z m157 -23 c0
-5 -5 -10 -11 -10 -5 0 -7 5 -4 10 3 6 8 10 11 10 2 0 4 -4 4 -10z m-703 -46
c-3 -3 -12 -4 -19 -1 -8 3 -5 6 6 6 11 1 17 -2 13 -5z m710 -16 c-3 -8 -6 -5
-6 6 -1 11 2 17 5 13 3 -3 4 -12 1 -19z m-636 -55 c13 -16 12 -17 -3 -4 -17
13 -22 21 -14 21 2 0 10 -8 17 -17z m402 -90 c-13 -2 -33 -2 -45 0 -13 2 -3 4
22 4 25 0 35 -2 23 -4z m-443 -23 c18 -12 2 -12 -25 0 -13 6 -15 9 -5 9 8 0
22 -4 30 -9z m759 -11 c-16 -10 -23 -4 -14 10 3 6 11 8 17 5 6 -4 5 -9 -3 -15z
m-322 5 c-3 -3 -12 -4 -19 -1 -8 3 -5 6 6 6 11 1 17 -2 13 -5z m173 -8 c0 -2
-8 -10 -17 -17 -16 -13 -17 -12 -4 4 13 16 21 21 21 13z m-157 -13 c-13 -2
-33 -2 -45 0 -13 2 -3 4 22 4 25 0 35 -2 23 -4z m-658 -21 c-3 -3 -11 0 -18 7
-9 10 -8 11 6 5 10 -3 15 -9 12 -12z m242 12 c-3 -3 -12 -4 -19 -1 -8 3 -5 6
6 6 11 1 17 -2 13 -5z m-50 -10 c-3 -3 -12 -4 -19 -1 -8 3 -5 6 6 6 11 1 17
-2 13 -5z m-50 -10 c-3 -3 -12 -4 -19 -1 -8 3 -5 6 6 6 11 1 17 -2 13 -5z
m-104 -11 c-7 -2 -19 -2 -25 0 -7 3 -2 5 12 5 14 0 19 -2 13 -5z m562 -3 c3
-5 -1 -10 -10 -10 -9 0 -13 5 -10 10 3 6 8 10 10 10 2 0 7 -4 10 -10z m45 -10
c-8 -5 -19 -10 -25 -10 -5 0 -3 5 5 10 8 5 20 10 25 10 6 0 3 -5 -5 -10z m104
1 c3 -5 -2 -8 -11 -7 -9 0 -18 -5 -21 -13 -3 -10 2 -13 21 -9 16 3 24 1 20 -5
-3 -5 7 -7 26 -2 34 7 74 -2 66 -15 -3 -5 0 -12 6 -15 5 -4 8 -13 5 -21 -3 -9
2 -14 14 -14 11 0 20 -4 20 -10 0 -5 5 -10 11 -10 5 0 7 5 4 10 -3 6 1 10 9
10 9 0 16 -4 16 -10 0 -5 8 -10 18 -10 14 0 15 2 2 10 -16 11 -18 10 68 16 27
2 40 -1 36 -8 -11 -17 -107 -58 -139 -58 -17 0 -41 -8 -54 -17 -18 -12 -22
-13 -16 -2 8 12 6 12 -8 0 -9 -7 -14 -17 -11 -22 3 -5 -7 -14 -21 -21 -14 -6
-24 -17 -21 -24 3 -7 -2 -10 -15 -7 -20 5 -20 6 1 20 11 8 20 20 20 28 0 7 14
39 30 71 32 60 29 73 -13 74 -11 0 -15 4 -11 12 5 8 2 9 -10 5 -10 -4 -37 -2
-61 4 l-44 11 22 19 c25 21 33 23 41 10z m-77 -17 c-3 -3 -12 -4 -19 -1 -8 3
-5 6 6 6 11 1 17 -2 13 -5z m413 -14 c0 -11 -7 -20 -15 -20 -13 0 -13 3 -3 20
7 11 14 20 15 20 2 0 3 -9 3 -20z m-1113 -6 c-3 -3 -12 -4 -19 -1 -8 3 -5 6 6
6 11 1 17 -2 13 -5z m40 -10 c-3 -3 -12 -4 -19 -1 -8 3 -5 6 6 6 11 1 17 -2
13 -5z m58 -14 c13 -5 14 -9 5 -9 -8 0 -24 4 -35 9 -13 5 -14 9 -5 9 8 0 24
-4 35 -9z m-143 -18 c40 -6 24 -22 -22 -22 -30 0 -43 -6 -59 -27 l-20 -28 9
39 c9 42 27 59 50 49 8 -3 27 -8 42 -11z m195 2 c-3 -3 -12 -4 -19 -1 -8 3 -5
6 6 6 11 1 17 -2 13 -5z m40 -10 c-3 -3 -12 -4 -19 -1 -8 3 -5 6 6 6 11 1 17
-2 13 -5z m40 -10 c-3 -3 -12 -4 -19 -1 -8 3 -5 6 6 6 11 1 17 -2 13 -5z m70
-20 c-3 -3 -12 -4 -19 -1 -8 3 -5 6 6 6 11 1 17 -2 13 -5z m58 -14 c13 -5 14
-9 5 -9 -8 0 -24 4 -35 9 -13 5 -14 9 -5 9 8 0 24 -4 35 -9z m-409 -15 c14
-13 14 -16 0 -21 -22 -9 -52 16 -34 27 17 11 17 11 34 -6z m511 -11 c-3 -3
-12 -4 -19 -1 -8 3 -5 6 6 6 11 1 17 -2 13 -5z m40 -10 c-3 -3 -12 -4 -19 -1
-8 3 -5 6 6 6 11 1 17 -2 13 -5z m-623 -72 c-8 -8 -13 -17 -10 -19 8 -9 46 8
41 18 -11 16 22 10 36 -7 12 -15 11 -16 -6 -11 -11 4 -27 2 -35 -3 -13 -9 -12
-12 4 -25 26 -20 47 -19 90 3 40 19 44 28 19 35 -10 3 -1 5 19 6 33 1 68 -18
36 -20 -10 0 -9 -2 1 -6 10 -4 5 -10 -15 -19 -28 -13 -27 -13 28 -12 32 1 61
-1 65 -5 14 -15 53 -7 53 11 1 16 1 16 11 0 5 -10 18 -18 27 -18 9 -1 28 -7
42 -15 l25 -15 -30 6 c-16 3 -36 8 -44 10 -12 4 -12 2 0 -12 13 -16 12 -16 -7
-6 -37 20 -210 37 -249 25 -23 -8 -35 -8 -35 -1 0 6 -6 8 -14 5 -8 -3 -28 -1
-45 6 -33 12 -41 40 -21 78 9 15 7 21 -5 25 -8 3 -15 13 -15 22 0 10 8 6 24
-13 21 -25 23 -30 10 -43z m663 62 c-3 -3 -12 -4 -19 -1 -8 3 -5 6 6 6 11 1
17 -2 13 -5z m-430 -12 c7 -4 -8 -9 -35 -10 -33 -1 -43 1 -32 8 18 12 50 13
67 2z m446 -50 c-1 -5 10 -7 25 -4 l27 4 -23 -17 c-21 -16 -26 -16 -55 -1 -18
8 -26 16 -19 16 16 0 16 20 -1 20 -8 0 -14 7 -14 15 0 12 6 11 31 -5 17 -11
30 -24 29 -28z m-350 -29 c-21 -16 -22 -14 -16 20 5 25 6 26 19 10 11 -15 11
-20 -3 -30z m564 31 c-3 -3 -12 -4 -19 -1 -8 3 -5 6 6 6 11 1 17 -2 13 -5z
m-194 -51 c-7 -2 -19 -2 -25 0 -7 3 -2 5 12 5 14 0 19 -2 13 -5z m-70 -22 c-3
-10 0 -22 6 -25 6 -4 11 -13 11 -19 0 -7 -5 -4 -11 7 -9 15 -13 16 -20 5 -7
-11 -9 -9 -9 7 0 11 5 25 12 32 16 16 17 15 11 -7z m-636 -44 c-22 -19 -25
-25 -15 -37 11 -12 10 -12 -4 -1 -15 11 -19 8 -34 -26 -14 -31 -18 -34 -22
-18 -2 10 1 21 7 23 5 2 13 19 17 38 3 18 10 31 15 28 5 -3 17 0 26 5 32 19
39 11 10 -12z m743 12 c0 -6 -7 -8 -15 -5 -9 3 -18 -1 -21 -9 -4 -8 -10 -15
-15 -15 -5 0 -4 9 3 20 14 21 48 28 48 9z m230 1 c8 -5 11 -10 5 -10 -5 0 -17
5 -25 10 -8 5 -10 10 -5 10 6 0 17 -5 25 -10z m-712 -27 c-16 -2 -40 -2 -55 0
-16 2 -3 4 27 4 30 0 43 -2 28 -4z m-131 -9 c-3 -3 -12 -4 -19 -1 -8 3 -5 6 6
6 11 1 17 -2 13 -5z m547 -26 c7 -5 4 -8 -6 -8 -12 0 -18 7 -17 23 0 15 2 17
6 7 3 -8 11 -18 17 -22z m277 12 c16 0 29 5 29 10 0 7 5 6 13 -2 7 -6 13 -21
12 -32 -2 -31 -82 -35 -116 -6 -14 12 -17 18 -7 14 11 -4 19 2 24 18 4 13 9
17 11 11 3 -7 18 -13 34 -13z m-392 -34 c-3 -3 -11 5 -18 17 -13 21 -12 21 5
5 10 -10 16 -20 13 -22z m-224 -46 c-7 -38 -12 -46 -20 -38 -3 3 0 17 6 32 9
20 10 32 0 54 -11 26 -10 26 4 7 11 -14 14 -30 10 -55z m-241 24 c3 -8 2 -12
-4 -9 -6 3 -10 10 -10 16 0 14 7 11 14 -7z m963 -26 c-3 -7 -5 -2 -5 12 0 14
2 19 5 13 2 -7 2 -19 0 -25z m-842 12 c-3 -5 -10 -10 -16 -10 -5 0 -9 5 -9 10
0 6 7 10 16 10 8 0 12 -4 9 -10z m808 3 c-7 -2 -13 -11 -13 -18 0 -8 -4 -16
-9 -19 -4 -3 -6 6 -3 19 2 15 11 25 21 24 10 0 11 -2 4 -6z m-843 -16 c0 -2
-19 -21 -42 -42 l-43 -40 40 43 c36 39 45 47 45 39z m96 -31 c0 -15 -5 -21
-10 -16 -5 5 -6 16 -3 24 9 23 15 19 13 -8z m639 6 c-3 -3 -11 0 -18 7 -9 10
-8 11 6 5 10 -3 15 -9 12 -12z m-220 -2 c13 -6 15 -9 5 -9 -8 0 -22 4 -30 9
-18 12 -2 12 25 0z m278 -7 c-7 -2 -21 -2 -30 0 -10 3 -4 5 12 5 17 0 24 -2
18 -5z m-728 -51 c-3 -3 -11 0 -18 7 -9 10 -8 11 6 5 10 -3 15 -9 12 -12z m72
-24 c-3 -8 -6 -5 -6 6 -1 11 2 17 5 13 3 -3 4 -12 1 -19z m269 -13 c60 -3 86
-14 72 -29 -10 -10 -17 -10 -38 1 -14 7 -34 13 -45 13 -43 1 -63 11 -58 31 5
18 7 18 17 3 7 -10 29 -17 52 -19z m-333 -12 c-7 -2 -19 -2 -25 0 -7 3 -2 5
12 5 14 0 19 -2 13 -5z m474 1 c-3 -3 -12 -4 -19 -1 -8 3 -5 6 6 6 11 1 17 -2
13 -5z m-610 -10 c-3 -3 -12 -4 -19 -1 -8 3 -5 6 6 6 11 1 17 -2 13 -5z m110
-18 c0 -7 -8 -11 -17 -9 -9 2 -17 10 -17 17 0 7 8 11 17 9 9 -2 17 -10 17 -17z
m587 18 c9 -3 16 -10 16 -15 0 -14 -24 -11 -46 6 -16 12 -17 14 -2 15 9 0 23
-3 32 -6z m-79 -25 c8 -11 -34 -32 -51 -25 -19 7 -18 26 2 26 8 0 13 4 10 9
-4 5 3 7 14 4 11 -3 23 -9 25 -14z m58 -16 c-7 -2 -19 -2 -25 0 -7 3 -2 5 12
5 14 0 19 -2 13 -5z m-421 -25 c-8 -8 -29 -11 -62 -9 -19 1 -22 3 -11 10 16
11 84 10 73 -1z m221 -17 c6 -25 -24 -54 -47 -45 -20 8 -20 9 7 38 28 30 33
31 40 7z m54 -3 c-3 -8 -6 -5 -6 6 -1 11 2 17 5 13 3 -3 4 -12 1 -19z m130 -4
c-3 -3 -12 -4 -19 -1 -8 3 -5 6 6 6 11 1 17 -2 13 -5z"/>
<path d="M2980 3181 c0 -16 49 -26 63 -12 8 8 6 11 -10 11 -12 0 -28 3 -37 6
-9 3 -16 1 -16 -5z"/>
<path d="M2627 2873 c-4 -3 -7 -11 -7 -17 0 -6 5 -5 12 2 6 6 9 14 7 17 -3 3
-9 2 -12 -2z"/>
<path d="M2260 4920 c-8 -5 -23 -11 -32 -14 -24 -7 -23 -21 1 -23 10 -1 29 9
42 23 22 24 17 31 -11 14z"/>
<path d="M2635 4894 c-29 -18 -33 -23 -15 -18 26 7 80 44 64 44 -5 0 -27 -12
-49 -26z"/>
<path d="M2060 4900 c-20 -12 -10 -19 14 -10 11 3 15 9 10 13 -6 3 -16 2 -24
-3z"/>
<path d="M2785 4880 c-3 -5 -2 -10 4 -10 5 0 13 5 16 10 3 6 2 10 -4 10 -5 0
-13 -4 -16 -10z"/>
<path d="M1990 4829 c0 -5 5 -7 10 -4 6 3 10 8 10 11 0 2 -4 4 -10 4 -5 0 -10
-5 -10 -11z"/>
<path d="M1985 4800 c-3 -5 -2 -10 4 -10 5 0 13 5 16 10 3 6 2 10 -4 10 -5 0
-13 -4 -16 -10z"/>
<path d="M2593 4783 c-7 -2 -13 -10 -13 -17 0 -7 -13 -25 -30 -41 -18 -18 -30
-23 -30 -15 0 8 -15 0 -35 -20 -19 -18 -33 -36 -30 -39 3 -2 17 6 31 20 14 13
31 24 38 24 16 0 96 71 96 85 0 11 -7 12 -27 3z"/>
<path d="M2055 4730 c-3 -5 -1 -10 4 -10 6 0 11 5 11 10 0 6 -2 10 -4 10 -3 0
-8 -4 -11 -10z"/>
<path d="M2005 4700 c-3 -5 -1 -10 4 -10 6 0 11 5 11 10 0 6 -2 10 -4 10 -3 0
-8 -4 -11 -10z"/>
<path d="M2178 4693 c-19 -5 -25 -23 -9 -23 17 0 41 12 41 21 0 9 -4 10 -32 2z"/>
<path d="M2340 4655 c-7 -8 -9 -15 -4 -15 5 0 2 -4 -6 -10 -8 -5 -11 -12 -7
-16 4 -4 32 6 64 21 31 16 51 31 45 33 -6 2 -25 -4 -42 -13 -18 -9 -34 -14
-38 -11 -3 3 0 6 6 6 7 0 12 5 12 10 0 15 -16 12 -30 -5z"/>
<path d="M2563 4628 c-21 -24 -35 -39 -30 -33 4 5 7 14 7 20 0 5 -7 1 -15 -9
-8 -10 -12 -23 -9 -27 7 -12 -52 -40 -73 -33 -14 4 -15 4 -4 -4 21 -15 -52
-37 -76 -23 -17 10 -17 10 0 11 9 0 17 5 17 11 0 7 -11 8 -32 3 -18 -4 -50 -8
-70 -9 -21 0 -43 -6 -50 -13 -6 -6 -16 -12 -22 -12 -5 0 -1 7 10 15 11 8 14
14 6 15 -20 0 -105 -46 -143 -77 -19 -15 -28 -20 -20 -10 8 10 9 17 3 17 -11
0 -42 -38 -42 -51 0 -13 30 -3 62 22 48 36 90 61 83 49 -3 -5 -21 -18 -38 -27
-19 -9 -27 -18 -19 -21 7 -2 30 8 51 22 20 14 41 26 46 26 5 0 -7 -12 -28 -26
-21 -14 -36 -31 -34 -37 3 -7 -6 -31 -20 -55 -23 -40 -23 -42 -4 -39 11 2 24
7 28 12 5 4 2 5 -4 1 -23 -13 -14 10 15 36 36 34 72 53 72 38 0 -7 8 -9 23 -4
12 4 29 7 37 6 33 -2 115 20 129 34 9 9 31 24 49 35 17 10 32 24 32 30 0 8 -4
8 -15 -1 -8 -7 -40 -23 -72 -36 -32 -13 -51 -24 -43 -25 23 -2 -41 -17 -75
-17 l-30 0 35 11 c26 8 30 11 16 15 -16 3 -15 6 10 23 32 21 49 25 39 9 -11
-18 36 -10 90 15 50 24 155 123 155 146 0 16 -7 10 -47 -33z m-226 -114 c-3
-3 -12 -4 -19 -1 -8 3 -5 6 6 6 11 1 17 -2 13 -5z"/>
<path d="M2470 4635 c-7 -9 -11 -18 -8 -20 3 -3 11 1 18 10 7 9 11 18 8 20 -3
3 -11 -1 -18 -10z"/>
<path d="M2034 4606 c-38 -32 -28 -41 11 -11 16 13 27 27 23 30 -3 3 -19 -5
-34 -19z"/>
<path d="M2271 4614 c-1 -6 -11 -16 -23 -22 -14 -6 -17 -11 -8 -11 23 -1 43
15 37 30 -3 8 -6 9 -6 3z"/>
<path d="M2397 4603 c-16 -8 -26 -17 -24 -20 6 -5 67 24 67 32 0 8 -13 4 -43
-12z"/>
<path d="M1857 4591 c-4 -17 -3 -21 5 -13 5 5 8 16 6 23 -3 8 -7 3 -11 -10z"/>
<path d="M2058 4581 c-47 -42 -31 -47 17 -6 22 19 34 34 28 35 -7 0 -27 -13
-45 -29z"/>
<path d="M1980 4581 c-6 -12 -7 -21 -1 -21 10 0 24 30 17 37 -2 3 -9 -5 -16
-16z"/>
<path d="M2150 4570 c-52 -26 -115 -80 -93 -80 6 0 16 7 24 16 15 18 74 50 65
35 -9 -14 0 -14 41 1 33 12 44 28 21 28 -10 0 -9 3 1 9 7 5 9 11 5 13 -5 3
-34 -8 -64 -22z"/>
<path d="M2310 4590 c-12 -8 -9 -10 12 -10 15 0 30 5 33 10 8 13 -25 13 -45 0z"/>
<path d="M2252 4571 c-10 -6 -7 -10 13 -15 15 -4 30 -5 33 -1 3 3 -2 5 -10 5
-9 0 -18 4 -20 10 -2 5 -9 6 -16 1z"/>
<path d="M2013 4508 c-18 -24 -24 -38 -16 -38 10 0 36 40 30 46 -2 3 -9 -1
-14 -8z"/>
<path d="M2490 4495 c-13 -14 -19 -25 -13 -25 12 0 48 38 41 45 -2 3 -15 -6
-28 -20z"/>
<path d="M2474 4434 c-21 -19 -57 -40 -81 -47 -24 -6 -43 -15 -43 -19 0 -10 7
-10 55 3 24 7 58 29 85 55 53 52 38 60 -16 8z"/>
<path d="M1957 4443 c-4 -3 -7 -11 -7 -17 0 -6 5 -5 12 2 6 6 9 14 7 17 -3 3
-9 2 -12 -2z"/>
<path d="M2550 4429 c0 -5 5 -7 10 -4 6 3 10 8 10 11 0 2 -4 4 -10 4 -5 0 -10
-5 -10 -11z"/>
<path d="M2070 4390 c-6 -11 -7 -20 -3 -20 5 0 14 9 21 20 7 11 8 20 2 20 -5
0 -14 -9 -20 -20z"/>
<path d="M2189 4393 c-13 -16 -12 -17 4 -4 9 7 17 15 17 17 0 8 -8 3 -21 -13z"/>
<path d="M2325 4400 c-8 -13 35 -13 55 0 11 7 7 10 -17 10 -17 0 -35 -4 -38
-10z"/>
<path d="M2490 4399 c0 -5 5 -7 10 -4 6 3 10 8 10 11 0 2 -4 4 -10 4 -5 0 -10
-5 -10 -11z"/>
<path d="M1971 4374 c0 -11 3 -14 6 -6 3 7 2 16 -1 19 -3 4 -6 -2 -5 -13z"/>
<path d="M2507 4363 c-4 -3 -7 -11 -7 -17 0 -6 5 -5 12 2 6 6 9 14 7 17 -3 3
-9 2 -12 -2z"/>
<path d="M2050 4318 c0 -19 2 -20 10 -8 13 19 13 30 0 30 -5 0 -10 -10 -10
-22z"/>
<path d="M2418 4313 c7 -3 16 -2 19 1 4 3 -2 6 -13 5 -11 0 -14 -3 -6 -6z"/>
<path d="M2080 4294 c0 -8 5 -12 10 -9 6 3 10 10 10 16 0 5 -4 9 -10 9 -5 0
-10 -7 -10 -16z"/>
<path d="M2020 4223 c0 -19 11 -43 21 -43 13 0 11 14 -6 36 -8 10 -15 14 -15
7z"/>
<path d="M2533 4194 c-8 -17 -8 -24 -1 -22 13 5 31 48 20 48 -4 0 -12 -12 -19
-26z"/>
<path d="M2040 4141 c0 -5 5 -13 10 -16 6 -3 10 -2 10 4 0 5 -4 13 -10 16 -5
3 -10 2 -10 -4z"/>
<path d="M2500 4050 c0 -5 5 -10 11 -10 5 0 7 5 4 10 -3 6 -8 10 -11 10 -2 0
-4 -4 -4 -10z"/>
<path d="M2080 4021 c0 -5 5 -13 10 -16 6 -3 10 -2 10 4 0 5 -4 13 -10 16 -5
3 -10 2 -10 -4z"/>
<path d="M2015 4010 c3 -5 8 -10 11 -10 2 0 4 5 4 10 0 6 -5 10 -11 10 -5 0
-7 -4 -4 -10z"/>
<path d="M2530 3965 c7 -9 15 -13 17 -11 7 7 -7 26 -19 26 -6 0 -6 -6 2 -15z"/>
<path d="M2515 3930 c3 -5 8 -10 11 -10 2 0 4 5 4 10 0 6 -5 10 -11 10 -5 0
-7 -4 -4 -10z"/>
<path d="M2310 3850 c0 -5 5 -10 11 -10 5 0 7 5 4 10 -3 6 -8 10 -11 10 -2 0
-4 -4 -4 -10z"/>
<path d="M2131 3814 c9 -10 14 -25 12 -31 -3 -7 0 -13 7 -13 6 0 8 5 4 12 -5
8 -2 9 11 4 15 -5 16 -4 5 9 -7 9 -23 21 -34 27 -20 10 -20 10 -5 -8z"/>
<path d="M3194 3779 c-8 -13 25 -24 37 -12 7 7 3 12 -10 16 -12 3 -24 1 -27
-4z"/>
<path d="M2670 3750 c-13 -8 -13 -10 2 -10 9 0 20 5 23 10 8 13 -5 13 -25 0z"/>
<path d="M2720 3740 c-8 -5 -11 -12 -7 -16 4 -4 13 -2 19 4 15 15 7 24 -12 12z"/>
<path d="M2510 3710 c0 -5 5 -10 10 -10 6 0 10 5 10 10 0 6 -4 10 -10 10 -5 0
-10 -4 -10 -10z"/>
<path d="M2525 3670 c3 -5 10 -10 16 -10 5 0 9 5 9 10 0 6 -7 10 -16 10 -8 0
-12 -4 -9 -10z"/>
<path d="M2690 3659 c0 -5 5 -7 10 -4 6 3 10 8 10 11 0 2 -4 4 -10 4 -5 0 -10
-5 -10 -11z"/>
<path d="M2230 3460 c0 -5 4 -10 9 -10 6 0 13 5 16 10 3 6 -1 10 -9 10 -9 0
-16 -4 -16 -10z"/>
<path d="M2466 3381 c-4 -7 -5 -15 -2 -18 9 -9 19 4 14 18 -4 11 -6 11 -12 0z"/>
<path d="M2631 3361 c-7 -12 -7 -22 -2 -26 5 -3 13 4 16 16 9 28 -1 36 -14 10z"/>
<path d="M4078 3340 c-282 -70 -514 -296 -590 -577 -27 -101 -29 -286 -5 -386
36 -148 121 -291 235 -399 88 -83 180 -138 302 -180 90 -31 103 -32 240 -33
125 0 156 3 220 23 233 73 413 226 510 435 98 208 98 467 0 676 -83 178 -246
332 -427 406 -139 56 -339 70 -485 35z"/>
<path d="M2885 3280 c-3 -5 1 -10 10 -10 9 0 13 5 10 10 -3 6 -8 10 -10 10 -2
0 -7 -4 -10 -10z"/>
<path d="M2615 3230 c10 -11 20 -18 23 -15 7 6 -18 35 -31 35 -5 0 -2 -9 8
-20z"/>
<path d="M2490 3200 c0 -5 7 -10 16 -10 8 0 12 5 9 10 -3 6 -10 10 -16 10 -5
0 -9 -4 -9 -10z"/>
<path d="M2650 3191 c0 -5 5 -13 10 -16 6 -3 10 -2 10 4 0 5 -4 13 -10 16 -5
3 -10 2 -10 -4z"/>
<path d="M2886 3043 c-11 -11 -6 -23 9 -23 8 0 15 4 15 9 0 13 -16 22 -24 14z"/>
<path d="M2460 2816 c0 -12 10 -16 36 -16 45 0 42 24 -4 28 -24 2 -32 -1 -32
-12z"/>
<path d="M10197 5425 c-37 -8 -93 -25 -124 -39 -30 -14 -64 -26 -74 -26 -9 0
-54 14 -99 30 -45 17 -83 30 -86 30 -2 0 6 -20 18 -45 l22 -45 -23 -40 c-12
-22 -19 -40 -14 -40 5 0 44 14 86 30 93 36 101 36 156 9 159 -76 395 -78 561
-3 83 37 90 48 48 74 -106 65 -325 96 -471 65z"/>
<path d="M10206 5019 c-39 -31 -82 -98 -146 -228 -84 -171 -112 -245 -108
-293 5 -64 20 -66 134 -23 134 51 177 51 317 1 l109 -39 20 20 c18 19 19 25 9
73 -13 60 -113 284 -171 381 -40 67 -99 129 -124 129 -7 0 -25 -9 -40 -21z"/>
<path d="M16665 4635 c-54 -19 -118 -91 -136 -152 -51 -183 54 -345 226 -346
108 0 189 53 225 150 34 92 21 206 -34 277 -56 74 -182 106 -281 71z"/>
<path d="M17605 4569 c-49 -135 -92 -268 -88 -273 10 -10 193 -7 193 3 0 10
-90 274 -96 280 -2 2 -6 -2 -9 -10z"/>
<path d="M19147 4448 c-26 -73 -47 -139 -47 -146 0 -9 26 -12 95 -12 71 0 95
3 95 13 0 16 -74 239 -87 262 -7 13 -21 -15 -56 -117z"/>
<path d="M9442 4167 c-48 -18 -102 -65 -118 -103 -15 -36 -19 -121 -6 -141 5
-9 14 4 26 37 22 61 83 132 144 167 60 34 59 33 42 43 -19 12 -47 11 -88 -3z"/>
<path d="M9539 4075 c-67 -35 -114 -92 -138 -170 -12 -37 -21 -83 -21 -103 0
-35 97 -302 109 -302 7 0 51 211 51 241 0 8 -18 23 -40 33 -23 10 -48 28 -56
41 -37 57 16 88 67 39 23 -22 40 -29 89 -32 67 -5 65 -7 49 67 -8 41 -8 54 5
73 15 23 14 27 -19 75 -19 28 -38 54 -42 56 -5 3 -29 -5 -54 -18z"/>
<path d="M9283 3702 l-22 -7 20 -55 c31 -90 77 -176 125 -235 25 -30 49 -55
53 -55 9 0 -115 326 -132 348 -10 13 -11 13 -44 4z"/>
<path d="M9128 3619 c-27 -29 -91 -108 -143 -178 l-95 -126 0 -87 c0 -49 3
-88 8 -87 4 0 50 56 102 124 96 126 122 148 145 124 17 -19 88 -314 82 -341
-3 -13 -26 -70 -52 -128 -43 -97 -135 -356 -135 -380 0 -25 46 -8 68 25 39 56
155 137 232 160 14 4 49 16 78 27 l52 19 0 90 0 89 -35 14 c-36 15 -70 61 -80
107 -9 40 17 82 70 115 58 37 58 59 -1 102 -80 59 -177 212 -215 340 -6 23
-17 42 -23 42 -5 0 -32 -23 -58 -51z"/>
<path d="M9596 3648 c-11 -36 -55 -282 -52 -286 9 -8 66 128 83 196 14 58 14
73 4 86 -16 19 -30 20 -35 4z"/>
<path d="M10178 3633 c-84 -91 -170 -240 -237 -410 -43 -111 -81 -174 -165
-273 -31 -36 -56 -68 -56 -72 0 -12 196 -106 289 -138 51 -17 118 -34 147 -37
l54 -6 0 482 c0 264 -1 481 -3 481 -2 0 -15 -12 -29 -27z"/>
<path d="M9676 3477 c-20 -62 -47 -117 -83 -170 -29 -43 -53 -80 -53 -83 0
-11 34 7 122 62 96 61 133 67 133 25 0 -20 -17 -36 -90 -82 -55 -35 -88 -62
-86 -71 2 -7 6 -30 9 -50 4 -36 5 -37 36 -31 17 3 62 19 100 36 61 28 70 36
88 77 11 25 20 52 21 60 0 14 -145 296 -161 312 -4 3 -20 -35 -36 -85z"/>
<path d="M8996 3145 l-106 -136 0 -239 0 -240 40 0 c27 0 40 4 40 14 0 29 85
278 137 398 l54 126 -26 104 c-15 56 -28 104 -29 106 -2 1 -51 -58 -110 -133z"/>
<path d="M9456 3120 c-35 -31 -35 -32 -21 -61 20 -38 55 -38 97 0 29 26 32 32
23 57 -15 42 -53 44 -99 4z"/>
<path d="M9662 3005 c-30 -7 -55 -15 -58 -17 -2 -3 9 -16 24 -31 l28 -27 44
45 c47 48 45 50 -38 30z"/>
<path d="M9540 2886 l0 -57 31 21 30 22 -23 27 c-12 14 -26 30 -30 36 -5 5 -8
-17 -8 -49z"/>
<path d="M9603 2787 c-28 -23 -51 -45 -50 -49 1 -3 46 -52 100 -107 l98 -101
230 0 229 0 0 49 0 48 -62 6 c-105 10 -365 111 -459 177 -15 11 -29 20 -31 19
-1 0 -26 -19 -55 -42z"/>
<path d="M9389 2666 c-100 -38 -142 -62 -183 -105 l-30 -31 239 0 240 0 -85
85 c-47 47 -87 85 -90 84 -3 0 -44 -15 -91 -33z"/>
<path d="M8890 2139 c0 -293 1 -321 16 -315 9 4 76 42 149 86 73 44 139 80
147 80 29 0 38 -24 38 -102 l0 -77 149 89 c82 50 155 90 163 90 30 0 38 -24
38 -117 l0 -93 89 0 89 0 6 48 c3 26 13 137 21 247 9 110 18 206 20 213 3 8
29 12 85 12 44 0 80 -1 81 -2 1 -2 11 -118 23 -258 l21 -255 93 -3 92 -3 0
341 0 340 -660 0 -660 0 0 -321z"/>
<path d="M10280 1469 c0 -545 3 -989 8 -987 84 43 218 86 687 219 540 154 561
161 593 194 l32 35 0 765 0 765 -660 0 -660 0 0 -991z m595 532 l65 -32 67 33
c61 29 77 33 153 33 77 0 92 -3 152 -34 106 -53 99 -28 96 -342 -3 -273 -3
-274 -25 -277 -12 -2 -39 8 -60 22 -109 72 -217 72 -325 1 -21 -14 -43 -25
-50 -25 -7 0 -46 17 -87 37 -64 33 -84 38 -140 38 -57 -1 -76 -6 -138 -39
-115 -61 -108 -77 -108 249 l0 280 55 33 c121 72 230 79 345 23z m0 -680 l67
-31 66 31 c119 57 227 50 350 -24 44 -26 52 -36 50 -57 -4 -35 -38 -37 -85 -6
-109 72 -217 72 -325 1 -21 -14 -43 -25 -50 -25 -7 0 -46 17 -87 37 -64 33
-84 38 -140 38 -57 -1 -76 -6 -138 -39 -80 -42 -108 -44 -108 -6 0 19 12 32
55 58 120 72 226 79 345 23z"/>
<path d="M10608 1939 l-68 -32 0 -215 c0 -200 1 -214 18 -207 132 58 202 58
335 0 16 -7 17 5 15 206 l-3 214 -59 29 c-88 44 -153 46 -238 5z"/>
<path d="M11070 1952 c-97 -40 -90 -19 -90 -259 l0 -212 48 21 c36 17 66 22
132 22 66 0 96 -5 133 -22 l47 -21 0 214 0 214 -57 27 c-72 36 -150 41 -213
16z"/>
<path d="M9876 2193 c-3 -27 -13 -140 -22 -253 -12 -163 -19 -208 -32 -217
-17 -14 -255 -19 -286 -7 -13 5 -16 23 -16 90 0 46 -3 84 -6 84 -3 0 -65 -35
-138 -79 -178 -106 -174 -105 -192 -90 -10 8 -14 34 -14 91 0 44 -4 78 -8 76
-5 -1 -68 -38 -140 -82 l-132 -78 0 -392 c0 -418 1 -421 51 -458 14 -11 268
-89 580 -177 305 -87 584 -172 622 -189 l67 -31 0 615 0 614 -114 0 c-84 0
-117 4 -125 14 -6 7 -20 119 -31 252 -11 132 -22 245 -25 252 -2 6 -11 12 -19
12 -9 0 -16 -16 -20 -47z m-298 -645 c7 -7 12 -22 12 -34 0 -34 40 -39 68 -9
19 20 27 23 42 15 21 -11 27 -49 10 -66 -17 -17 19 -39 64 -39 37 0 41 -3 44
-27 2 -19 -2 -28 -17 -33 -37 -11 -24 -60 18 -66 52 -8 54 -69 2 -69 -23 0
-30 -5 -36 -27 -5 -22 -2 -31 14 -42 25 -16 28 -59 5 -68 -8 -3 -25 -1 -38 5
-34 15 -65 -14 -52 -49 5 -15 6 -34 3 -43 -9 -23 -43 -20 -60 5 -23 32 -57 21
-71 -21 -9 -28 -16 -35 -36 -35 -21 0 -26 5 -28 32 -4 44 -42 56 -77 23 -13
-12 -31 -20 -42 -18 -22 4 -29 43 -12 64 10 12 9 19 -8 35 -17 17 -23 18 -46
8 -14 -6 -33 -9 -41 -6 -23 9 -20 52 6 69 16 11 20 20 14 41 -5 22 -12 27 -37
27 -56 0 -50 60 7 70 37 7 46 45 14 67 -13 9 -20 23 -18 36 3 18 10 22 44 22
51 0 78 19 64 45 -15 29 -12 48 10 60 17 9 24 6 45 -16 22 -24 28 -26 50 -16
16 8 25 20 25 35 0 13 3 27 7 30 10 11 38 8 51 -5z"/>
<path d="M9490 1413 c-116 -44 -146 -199 -54 -285 56 -52 120 -61 191 -27 63
31 97 92 91 165 -8 93 -73 155 -162 153 -28 0 -58 -3 -66 -6z"/>
<path d="M10975 4126 c-72 -21 -105 -34 -105 -44 0 -4 19 -27 43 -50 l43 -43
65 16 c81 19 118 19 195 -1 l63 -15 38 42 c21 23 38 46 38 52 0 6 -25 19 -55
30 -73 26 -254 33 -325 13z"/>
<path d="M10550 3621 c-108 -29 -109 -30 -57 -86 44 -49 44 -49 83 -38 80 24
132 26 210 8 l78 -17 42 48 c48 56 49 54 -56 83 -92 26 -210 27 -300 2z"/>
<path d="M10960 3129 c-41 -10 -78 -23 -83 -28 -6 -6 7 -29 34 -59 l44 -49 40
15 c53 19 188 19 241 -1 l41 -15 43 50 c25 30 39 53 33 59 -5 5 -44 18 -87 29
-100 25 -208 25 -306 -1z"/>
<path d="M1565 1883 c-11 -3 -34 -16 -51 -28 -99 -75 -79 -255 35 -302 44 -19
114 -12 150 14 50 38 71 80 71 148 0 68 -21 110 -71 148 -27 19 -97 30 -134
20z"/>
<path d="M650 995 l0 -75 35 0 c22 0 43 8 55 20 12 12 20 33 20 55 0 22 -8 43
-20 55 -12 12 -33 20 -55 20 l-35 0 0 -75z"/>
<path d="M2007 1016 l-16 -46 35 0 c32 0 35 2 28 23 -3 12 -12 33 -19 46 -12
23 -12 23 -28 -23z"/>
<path d="M2220 995 l0 -75 33 0 c43 0 77 35 77 78 0 43 -30 72 -75 72 l-35 0
0 -75z"/>
<path d="M2480 1048 c-26 -28 -26 -68 1 -102 55 -70 160 7 118 87 -16 30 -28
37 -66 37 -20 0 -40 -8 -53 -22z"/>
<path d="M3260 995 l0 -75 29 0 c15 0 40 9 55 21 54 42 19 129 -52 129 l-32 0
0 -75z"/>
<path d="M3710 1036 c0 -31 3 -36 23 -36 33 0 49 15 45 41 -2 19 -10 25 -35
27 -32 3 -33 2 -33 -32z"/>
<path d="M3948 1015 l-17 -45 34 0 c19 0 35 4 35 9 0 10 -29 81 -33 81 -1 0
-10 -20 -19 -45z"/>
<path d="M4450 995 l0 -75 33 0 c43 0 77 35 77 78 0 43 -30 72 -75 72 l-35 0
0 -75z"/>
<path d="M2544 442 c-46 -29 -72 -68 -80 -118 -10 -67 3 -111 45 -157 36 -38
43 -41 102 -45 55 -3 69 0 98 20 99 66 103 221 9 291 -40 30 -133 34 -174 9z"/>
<path d="M3231 324 c-17 -47 -31 -90 -31 -95 0 -5 31 -9 69 -9 l69 0 -31 95
c-17 52 -34 95 -38 95 -3 0 -20 -39 -38 -86z"/>
<path d="M4466 410 c-13 -34 -66 -184 -66 -187 0 -2 32 -3 71 -3 65 0 70 1 64
19 -36 115 -64 183 -69 171z"/>
<path d="M23581 4075 c-820 -502 -1495 -915 -1498 -919 -4 -3 370 -6 830 -6
l836 0 11 43 c62 248 163 452 310 632 86 104 150 163 195 178 22 7 167 42 322
78 266 60 282 65 276 84 -16 43 -7 87 21 112 35 30 60 29 132 -3 130 -58 277
-114 284 -109 16 10 31 74 33 141 1 38 -2 186 -7 329 l-8 261 -42 10 c-22 6
-77 27 -122 46 l-81 36 -1492 -913z"/>
<path d="M24541 3962 l-273 -57 -45 -50 c-24 -28 -77 -100 -118 -160 -236
-351 -306 -713 -210 -1091 33 -129 93 -263 175 -386 85 -127 94 -138 112 -138
15 0 661 120 664 123 10 13 27 413 31 712 7 498 -23 1108 -55 1104 -4 0 -130
-26 -281 -57z"/>
<path d="M25034 3966 c69 -478 81 -1066 30 -1580 -10 -104 -12 -161 -6 -165 6
-3 205 -51 443 -105 l433 -99 34 39 c19 21 57 73 84 114 269 407 246 896 -61
1352 -39 57 -92 126 -118 155 l-48 52 -398 139 -399 140 6 -42z"/>
<path d="M28220 2395 l0 -355 193 0 c209 0 277 11 353 55 62 37 122 104 144
163 25 67 27 189 3 262 -35 108 -154 198 -293 220 -36 5 -140 10 -232 10
l-168 0 0 -355z"/>
<path d="M19867 2689 c-32 -11 -75 -30 -95 -43 -58 -37 -141 -131 -167 -190
-39 -88 -46 -161 -43 -443 l3 -262 564 345 c310 190 576 357 590 372 36 38
208 145 221 137 9 -6 180 90 180 101 0 2 -269 4 -597 4 -572 -1 -601 -2 -656
-21z"/>
<path d="M21213 2627 l-133 -82 0 -42 c0 -41 -2 -44 -57 -79 l-56 -36 7 -207
c7 -225 -1 -280 -45 -327 l-22 -23 29 -12 c16 -6 79 -29 139 -51 65 -23 122
-50 138 -66 85 -80 180 -245 213 -367 8 -33 18 -99 21 -147 l6 -88 2546 0
c2755 0 2597 -3 2703 51 64 33 154 124 187 191 50 99 52 130 49 599 l-3 434
-37 78 c-47 99 -119 172 -213 218 -66 31 -78 34 -192 37 l-123 4 0 -53 c0
-145 -74 -404 -162 -569 -62 -117 -128 -212 -168 -240 -27 -19 -307 -90 -567
-143 l-71 -15 -589 103 c-323 57 -600 106 -614 110 -42 11 -93 59 -173 165
-127 169 -222 371 -262 558 l-17 82 -1201 -1 -1201 0 -132 -82z"/>
<path d="M20194 2003 c-318 -194 -591 -362 -606 -373 -23 -17 -28 -28 -28 -64
0 -168 93 -332 231 -405 63 -35 145 -61 189 -61 l25 0 0 138 c1 128 3 143 33
231 18 51 50 124 73 162 56 96 151 196 198 208 20 5 98 24 174 41 134 32 138
33 133 56 -8 29 27 68 52 61 10 -3 55 -21 101 -40 47 -20 88 -34 93 -31 16 10
20 81 13 237 l-7 162 -48 16 -47 16 -579 -354z"/>
<path d="M236 1758 c-15 -46 -30 -89 -33 -95 -3 -10 14 -13 67 -13 65 0 71 2
65 18 -3 9 -18 52 -33 94 -15 43 -29 78 -32 78 -3 0 -18 -37 -34 -82z"/>
<path d="M20432 1810 c-85 -17 -140 -34 -153 -46 -44 -40 -137 -194 -169 -280
-29 -78 -34 -104 -38 -211 -2 -67 -2 -134 2 -148 l6 -25 277 0 276 0 -6 293
c-4 160 -10 327 -13 370 -8 91 8 87 -182 47z"/>
<path d="M20714 1813 c15 -53 30 -286 30 -485 l1 -228 313 0 c284 0 313 2 319
17 12 32 -16 202 -48 283 -28 74 -97 189 -151 253 -18 22 -68 44 -233 102
-115 41 -216 75 -223 75 -8 0 -11 -7 -8 -17z"/>
</g>
</svg>
