<?xml version="1.0" standalone="no"?>
<!DOCTYPE svg PUBLIC "-//W3C//DTD SVG 20010904//EN"
 "http://www.w3.org/TR/2001/REC-SVG-20010904/DTD/svg10.dtd">
<svg version="1.0" xmlns="http://www.w3.org/2000/svg"
 width="1285.000000pt" height="596.000000pt" viewBox="0 0 1285.000000 596.000000"
 preserveAspectRatio="xMidYMid meet">

<g transform="translate(0.000000,596.000000) scale(0.100000,-0.100000)"
fill="#000000" stroke="none">
<path d="M0 5563 c0 -309 3 -394 12 -385 9 9 185 12 730 12 656 0 719 -1 725
-16 3 -9 2 -24 -4 -33 -9 -14 -78 -16 -697 -19 l-686 -2 2 -2103 3 -2102 27
-59 c36 -76 133 -171 218 -213 41 -21 263 -89 610 -188 300 -85 587 -171 638
-191 90 -35 223 -113 251 -147 13 -16 17 -14 56 17 54 45 143 96 225 129 36
15 317 99 625 187 325 93 586 173 623 191 132 64 230 190 251 319 7 44 11 732
11 2113 l0 2047 -689 0 c-616 0 -690 2 -702 16 -9 11 -10 20 -2 32 9 16 69 17
734 17 l724 0 3 -2105 c1 -1432 -1 -2121 -8 -2156 -29 -140 -138 -275 -280
-347 -55 -27 -228 -81 -635 -197 -308 -88 -589 -172 -625 -186 -83 -32 -195
-102 -239 -148 -19 -20 -44 -36 -54 -36 -11 0 -45 24 -77 54 -108 99 -181 127
-822 310 -318 91 -594 173 -615 182 -168 77 -286 212 -319 364 -10 46 -12 -29
-13 -432 l-1 -488 6425 0 6425 0 0 2980 0 2980 -5777 0 c-3177 0 -5774 -2
-5772 -4 2 -2 66 -26 142 -55 l138 -51 40 21 c57 29 179 58 273 65 152 12 331
-26 449 -96 140 -82 131 -122 -45 -205 -122 -57 -184 -70 -348 -69 -154 0
-219 12 -323 58 l-52 23 -140 -54 c-200 -76 -220 -66 -142 77 l42 79 -45 85
c-39 74 -43 88 -32 106 l12 20 -635 0 -635 0 0 -397z m1909 -78 c73 -37 176
-201 280 -447 71 -166 74 -243 13 -301 -44 -42 -69 -42 -173 -3 -167 62 -175
63 -265 33 -43 -14 -105 -35 -137 -47 -71 -25 -111 -17 -153 33 -24 28 -26 37
-22 101 5 81 32 155 133 360 69 140 136 235 188 266 38 24 97 26 136 5z m3500
-610 c23 -8 61 -28 86 -45 l45 -31 -41 -60 -41 -61 -21 20 c-92 84 -252 85
-287 3 -16 -40 -2 -80 38 -107 17 -12 80 -41 139 -64 194 -78 254 -172 207
-329 -49 -168 -283 -231 -475 -129 -31 16 -68 42 -83 57 l-25 27 38 57 c35 54
39 56 54 40 8 -10 41 -33 71 -52 102 -61 224 -53 261 19 37 71 3 123 -113 170
-240 99 -276 132 -276 260 0 93 34 152 117 205 69 44 212 54 306 20z m-4044
-20 l0 -30 -492 -3 -493 -2 0 -562 c0 -309 4 -558 8 -553 5 6 46 59 92 118 99
128 167 192 221 208 21 7 39 15 39 18 0 3 -25 17 -55 30 -63 27 -79 43 -70 70
8 28 34 34 62 16 27 -18 104 -47 110 -42 2 2 -4 24 -13 48 -9 24 -17 76 -17
114 -1 58 3 80 26 127 42 86 127 145 222 155 102 11 131 -11 252 -193 l61 -91
-24 -30 -24 -31 16 -77 c9 -45 12 -81 7 -86 -5 -5 -38 -15 -73 -22 l-64 -13
44 -26 c74 -44 124 -106 205 -255 42 -79 79 -143 81 -143 2 0 24 39 48 88 53
105 120 202 210 301 l66 73 2 322 3 321 30 0 30 0 3 -997 2 -998 715 0 715 0
0 1055 0 1055 -489 0 c-485 0 -490 0 -496 20 -16 50 -20 50 529 50 385 0 515
-3 524 -12 17 -17 17 -3869 0 -3919 -17 -49 -45 -83 -87 -107 -20 -12 -305
-97 -633 -191 -573 -163 -673 -197 -778 -262 l-36 -22 -69 41 c-38 23 -94 51
-124 63 -31 11 -316 95 -634 185 -318 90 -591 171 -606 179 -41 21 -88 79
-100 122 -17 58 -15 3895 1 3911 9 9 136 12 533 10 l520 -3 0 -30z m8658 22
c-4 -7 -33 -48 -63 -90 l-55 -77 -58 0 c-66 0 -67 -11 5 113 l39 67 70 0 c55
0 68 -3 62 -13z m-1643 -162 l0 -85 70 0 70 0 0 -60 0 -60 -70 0 -70 0 0 -153
c0 -184 5 -197 79 -197 l49 0 5 -57 c2 -32 4 -59 2 -61 -1 -1 -28 -7 -61 -13
-72 -13 -151 1 -182 34 -38 41 -45 77 -50 265 l-4 182 -44 0 -44 0 0 60 0 60
45 0 45 0 0 85 0 85 80 0 80 0 0 -85z m-2285 -99 c105 -49 148 -117 153 -248
l4 -88 -221 0 -221 0 11 -27 c38 -102 169 -137 294 -79 32 14 59 26 60 26 1 0
15 -19 30 -42 27 -40 27 -42 9 -56 -111 -83 -297 -102 -414 -42 -177 91 -201
370 -44 509 59 52 111 69 209 70 64 1 90 -4 130 -23z m719 4 c78 -30 83 -38
61 -109 l-17 -59 -55 29 c-137 72 -268 12 -280 -128 -9 -112 64 -192 175 -193
54 0 113 19 143 46 15 13 18 9 38 -42 17 -45 19 -60 9 -71 -21 -25 -83 -52
-150 -63 -163 -29 -318 53 -364 192 -23 69 -16 197 14 254 27 54 111 129 165
147 64 23 195 21 261 -3z m576 -12 c0 -18 -3 -50 -6 -70 l-7 -38 -58 0 c-50 0
-63 -4 -89 -27 -42 -38 -49 -79 -50 -270 l0 -163 -80 0 -80 0 0 295 0 295 80
0 80 0 0 -40 0 -41 32 37 c39 44 58 53 126 53 l52 1 0 -32z m495 15 c110 -37
180 -151 173 -280 l-3 -58 -218 -3 -218 -2 7 -23 c34 -109 175 -144 309 -77
l40 21 28 -33 c34 -40 32 -56 -12 -85 -54 -36 -137 -57 -226 -57 -66 0 -91 5
-143 29 -111 50 -162 135 -162 271 0 146 71 255 197 300 53 19 169 17 228 -3z
m1147 -16 c31 -18 57 -44 75 -75 l28 -47 3 -222 4 -223 -76 0 -76 0 0 32 0 31
-23 -21 c-64 -60 -198 -75 -277 -32 -95 53 -124 166 -66 255 30 45 115 76 241
88 110 10 115 12 115 33 0 39 -21 72 -58 90 -45 21 -141 15 -200 -14 l-42 -20
-25 48 c-29 56 -27 59 60 89 49 18 79 21 165 19 94 -3 110 -6 152 -31z m636
-34 l-3 -68 -66 -5 c-117 -9 -131 -37 -137 -282 l-4 -178 -74 0 -74 0 0 295 0
295 75 0 75 0 0 -47 0 -48 20 33 c29 48 75 72 138 72 l53 0 -3 -67z m858 31
c31 -19 58 -46 74 -74 24 -44 25 -52 28 -267 l4 -223 -76 0 -76 0 0 32 0 31
-23 -21 c-64 -60 -198 -75 -277 -32 -95 53 -124 166 -66 255 30 45 115 76 241
88 l115 11 0 28 c0 17 -12 41 -29 60 -28 32 -32 33 -108 33 -60 0 -88 -5 -121
-21 l-43 -22 -24 49 -25 48 32 17 c68 35 112 44 219 41 98 -2 109 -4 155 -33z
m-576 -269 l0 -295 -80 0 -80 0 0 295 0 295 80 0 80 0 0 -295z m-6966 170
c126 -35 176 -60 176 -87 0 -22 -138 -190 -171 -208 -8 -5 -46 2 -89 17 -87
30 -162 28 -249 -6 -28 -12 -54 -21 -56 -21 -11 0 -185 202 -185 215 0 22 50
49 144 80 156 50 278 53 430 10z m-103 -331 c66 -19 79 -30 79 -60 0 -31 -28
-38 -81 -18 -58 21 -127 20 -188 -2 -41 -14 -52 -15 -65 -5 -34 29 -14 58 55
82 67 23 129 24 200 3z m-370 -205 c109 -27 193 -67 197 -94 3 -22 -160 -215
-181 -215 -7 0 -37 10 -67 22 -74 29 -174 28 -253 -2 -31 -12 -62 -20 -67 -18
-20 6 -180 193 -180 209 0 22 15 33 80 59 160 64 317 77 471 39z m-54 -347
c39 -14 49 -22 51 -45 4 -37 -18 -43 -80 -23 -64 21 -117 20 -185 -1 -49 -15
-55 -15 -69 -1 -35 35 0 64 111 92 33 8 121 -3 172 -22z m4814 -26 c37 -8 86
-24 108 -36 42 -21 121 -86 121 -100 0 -4 -22 -26 -50 -49 l-49 -41 -45 34
c-69 52 -122 69 -208 64 -110 -6 -183 -51 -231 -142 -30 -58 -36 -204 -12
-277 24 -71 93 -140 165 -164 73 -24 192 -17 252 17 l43 23 3 83 3 82 -101 0
-100 0 0 60 0 60 180 0 180 0 -2 -172 -3 -172 -50 -38 c-139 -106 -366 -126
-530 -48 -304 145 -299 637 9 781 105 49 200 60 317 35z m2124 -11 c57 -57 16
-145 -67 -145 -55 0 -85 21 -94 64 -11 63 27 105 94 106 32 0 49 -6 67 -25z
m-3805 -410 l0 -425 -75 0 -75 0 0 42 0 42 -32 -31 c-69 -65 -158 -86 -250
-59 -83 24 -131 64 -170 143 -30 62 -33 75 -33 158 1 78 4 98 28 147 49 101
141 158 255 158 72 0 124 -16 162 -51 17 -16 33 -29 36 -29 2 0 4 74 4 165 l0
165 75 0 75 0 0 -425z m3030 260 l0 -165 45 34 c112 86 295 58 373 -57 47 -70
57 -105 57 -202 0 -106 -24 -170 -83 -228 -105 -102 -306 -107 -382 -10 l-20
26 0 -42 0 -41 -75 0 -75 0 0 425 0 425 80 0 80 0 0 -165z m-5625 -5 c39 -12
91 -31 118 -42 68 -30 64 -49 -34 -159 -45 -50 -88 -93 -95 -96 -7 -3 -39 5
-71 17 -79 30 -160 30 -252 0 l-74 -25 -26 31 c-14 17 -54 63 -88 103 -64 73
-73 91 -50 108 21 17 127 56 201 75 97 25 272 19 371 -12z m3170 -97 c109 -37
175 -143 175 -280 l0 -63 -221 0 -220 0 7 -22 c11 -38 44 -77 77 -95 52 -27
153 -23 218 10 l54 27 28 -32 c34 -40 34 -51 1 -77 -80 -63 -254 -85 -363 -47
-71 25 -141 94 -164 161 -22 63 -22 177 0 241 22 64 110 154 173 177 60 21
174 21 235 0z m1980 -15 c115 -59 170 -159 163 -296 -5 -126 -60 -207 -172
-258 -51 -24 -74 -28 -146 -28 -72 -1 -94 4 -145 27 -78 36 -111 69 -146 142
-56 117 -33 269 53 351 84 79 126 94 253 90 74 -2 99 -7 140 -28z m1828 16
c111 -38 177 -140 177 -274 l0 -70 -221 0 -220 0 7 -22 c23 -74 82 -112 174
-112 59 0 94 11 172 52 4 2 21 -16 37 -39 l31 -42 -32 -23 c-76 -56 -213 -85
-310 -65 -102 22 -164 65 -206 146 -24 44 -27 61 -27 150 0 89 3 105 27 151
33 62 104 127 161 148 56 19 172 20 230 0z m675 -51 l-3 -68 -59 -3 c-32 -2
-69 -10 -83 -19 -49 -32 -56 -64 -61 -260 l-4 -183 -74 0 -74 0 0 295 0 295
75 0 75 0 0 -47 0 -48 20 33 c29 48 75 72 138 72 l53 0 -3 -67z m569 46 c33
-16 50 -33 71 -73 26 -50 27 -54 30 -278 l4 -228 -81 0 -81 0 0 190 c0 251
-12 280 -112 280 -51 0 -81 -18 -105 -63 -15 -26 -18 -66 -21 -219 l-4 -188
-79 0 -79 0 0 295 0 295 80 0 80 0 0 -42 0 -42 30 32 c40 45 83 61 159 62 46
0 77 -6 108 -21z m719 -12 c112 -57 171 -166 162 -301 -11 -170 -133 -279
-313 -280 -111 -1 -175 22 -241 88 -62 62 -87 128 -86 227 0 132 76 237 202
283 71 26 210 17 276 -17z m-2536 -272 l0 -295 -75 0 -75 0 0 295 0 295 75 0
75 0 0 -295z m-6492 47 c38 -14 48 -22 50 -45 5 -37 -18 -44 -82 -23 -64 20
-118 20 -171 1 -66 -24 -95 -16 -95 26 0 15 49 42 103 55 60 15 129 10 195
-14z"/>
<path d="M1795 5399 c-48 -42 -113 -149 -185 -307 -70 -152 -100 -253 -84
-279 23 -37 37 -36 152 6 147 54 185 54 333 1 62 -22 116 -40 120 -40 18 0 39
34 39 64 0 48 -30 129 -108 291 -100 205 -165 295 -216 295 -9 0 -31 -14 -51
-31z"/>
<path d="M977 4486 c-113 -41 -170 -150 -138 -266 6 -22 10 -17 30 38 30 79
91 148 168 189 l58 32 -28 10 c-35 14 -43 13 -90 -3z"/>
<path d="M1079 4385 c-97 -50 -169 -176 -169 -293 0 -58 114 -359 123 -327 3
11 15 70 27 130 12 61 23 117 26 126 3 11 -6 21 -28 30 -43 18 -98 67 -98 88
0 36 37 52 63 27 36 -36 83 -56 135 -56 59 0 61 4 42 88 -8 34 -7 47 6 68 17
25 16 27 -23 82 -22 30 -44 57 -49 58 -5 2 -30 -8 -55 -21z"/>
<path d="M802 3983 c-26 -5 -26 -8 16 -113 34 -87 97 -191 144 -237 21 -20 38
-33 38 -27 0 26 -150 379 -161 380 -8 1 -24 -1 -37 -3z"/>
<path d="M663 3923 c-33 -30 -159 -186 -237 -296 l-47 -66 3 -97 3 -98 112
142 c111 140 136 160 160 130 6 -7 29 -90 52 -184 l43 -171 -27 -59 c-67 -144
-185 -467 -185 -504 0 -5 9 -10 20 -10 12 0 47 28 85 69 62 65 154 125 225
146 14 4 49 16 78 27 l52 19 0 105 c0 93 -2 104 -18 104 -44 0 -102 79 -102
139 0 34 35 80 85 111 50 31 46 57 -15 109 -89 75 -179 218 -224 359 -10 28
-21 52 -25 52 -4 0 -21 -12 -38 -27z"/>
<path d="M1112 3778 c-17 -89 -30 -164 -27 -166 15 -15 105 226 105 282 0 16
-25 45 -40 46 -3 0 -20 -73 -38 -162z"/>
<path d="M1761 3893 c-90 -101 -178 -258 -249 -440 -46 -118 -86 -183 -176
-286 l-67 -76 43 -28 c103 -65 332 -150 451 -167 l47 -7 0 525 c0 289 -2 526
-4 526 -2 0 -23 -21 -45 -47z"/>
<path d="M1245 3784 c-25 -87 -80 -201 -125 -259 -67 -87 -54 -87 85 1 114 71
148 79 153 33 3 -24 -7 -33 -98 -89 -79 -49 -100 -66 -94 -79 4 -9 9 -33 12
-53 2 -21 10 -38 16 -38 22 0 130 40 170 63 31 17 45 34 62 77 l23 55 -74 141
c-40 78 -82 156 -93 174 l-20 32 -17 -58z"/>
<path d="M491 3378 l-111 -143 0 -262 0 -263 40 0 c38 0 40 1 50 43 25 98 87
271 142 401 l59 139 -27 114 c-16 62 -31 113 -35 113 -3 0 -56 -64 -118 -142z"/>
<path d="M1002 3360 c-45 -32 -51 -53 -26 -88 19 -27 37 -28 80 -1 45 28 58
52 43 82 -24 46 -42 47 -97 7z"/>
<path d="M1223 3231 c-34 -9 -65 -20 -69 -24 -4 -4 5 -21 21 -37 l29 -30 48
47 c45 44 58 65 41 62 -5 -1 -36 -9 -70 -18z"/>
<path d="M1080 3096 l0 -70 30 29 c17 16 30 31 30 34 0 3 -14 22 -30 41 l-29
35 -1 -69z"/>
<path d="M1148 2992 c-31 -26 -56 -50 -55 -54 1 -3 51 -56 110 -117 l108 -111
250 0 249 0 0 54 0 53 -57 5 c-115 11 -367 104 -483 179 -34 21 -62 39 -63 38
-1 0 -28 -21 -59 -47z"/>
<path d="M929 2866 c-100 -37 -158 -70 -214 -120 l-40 -35 265 -1 265 0 -95
95 c-52 52 -95 95 -95 94 0 -1 -39 -16 -86 -33z"/>
<path d="M380 2285 c0 -190 2 -345 4 -345 3 0 76 43 163 95 87 52 166 95 175
95 26 0 32 -18 38 -108 l5 -82 158 95 c87 52 164 95 171 95 29 0 36 -25 36
-127 l0 -103 100 0 c55 0 100 1 100 3 1 1 11 125 24 276 17 198 28 276 37 282
18 11 140 11 158 0 9 -6 20 -84 37 -282 13 -151 23 -275 24 -277 0 -1 44 -1
98 0 l97 3 3 363 2 362 -715 0 -715 0 0 -345z"/>
<path d="M1880 1561 l0 -1070 76 35 c60 28 773 238 1184 350 85 23 133 47 153
78 16 23 17 100 17 851 l0 825 -715 0 -715 0 0 -1069z m648 578 l72 -35 72 35
c66 33 79 36 162 36 79 0 99 -4 151 -28 32 -15 74 -39 92 -53 l33 -25 0 -294
c0 -285 -1 -295 -20 -305 -17 -9 -31 -5 -78 24 -31 19 -84 42 -117 51 -53 13
-65 13 -120 0 -33 -9 -86 -32 -118 -51 l-57 -35 -48 28 c-75 46 -132 66 -195
66 -51 0 -71 -6 -146 -45 -65 -33 -93 -43 -105 -36 -14 8 -16 41 -16 308 l0
299 46 27 c102 60 153 75 239 71 67 -3 92 -9 153 -38z m-98 -700 c24 -5 73
-24 108 -41 l64 -30 48 26 c137 74 270 67 413 -24 49 -31 59 -57 32 -80 -13
-11 -30 -6 -102 31 -78 40 -92 44 -157 44 -72 0 -128 -19 -209 -72 -27 -18
-29 -18 -65 5 -90 55 -125 67 -202 67 -70 0 -81 -3 -157 -45 -69 -38 -83 -42
-97 -31 -37 30 -13 62 82 110 47 24 134 49 172 50 14 0 45 -4 70 -10z"/>
<path d="M2290 2095 c-25 -8 -63 -25 -85 -38 l-40 -23 -3 -228 c-2 -215 -1
-228 15 -223 10 3 44 15 75 26 32 12 80 21 108 21 49 0 162 -31 188 -52 9 -8
12 38 12 225 l0 236 -63 31 c-75 37 -145 45 -207 25z"/>
<path d="M2765 2097 c-22 -8 -59 -24 -82 -36 l-43 -21 0 -231 c0 -181 3 -230
13 -225 6 2 43 15 81 27 81 26 164 22 240 -10 26 -12 50 -21 52 -21 2 0 4 104
4 231 l0 230 -64 30 c-75 35 -145 44 -201 26z"/>
<path d="M1447 2358 c-3 -18 -13 -134 -23 -258 -9 -124 -21 -235 -25 -248 -9
-22 -10 -22 -171 -20 l-163 3 -3 93 c-1 50 -5 92 -8 92 -3 0 -78 -43 -166 -95
-87 -52 -165 -95 -172 -95 -27 0 -36 26 -36 108 0 46 -4 82 -8 80 -5 -1 -73
-41 -150 -88 l-142 -85 0 -432 0 -433 33 -37 c33 -35 42 -38 638 -208 372
-106 635 -186 682 -208 l77 -36 0 670 0 669 -130 0 c-126 0 -131 1 -139 23 -4
12 -15 123 -25 247 -21 283 -22 290 -45 290 -13 0 -20 -10 -24 -32z m-319
-735 c2 -24 10 -34 30 -41 23 -7 31 -4 54 20 23 25 30 27 48 18 22 -12 25 -31
9 -62 -9 -17 -7 -24 10 -41 17 -18 24 -19 46 -9 56 26 89 -29 39 -65 -21 -15
-24 -24 -19 -46 5 -18 14 -27 27 -27 30 0 58 -19 58 -38 0 -26 -20 -42 -51
-42 -21 0 -28 -6 -34 -27 -5 -22 -2 -31 19 -46 50 -36 17 -91 -39 -65 -22 10
-29 9 -46 -9 -17 -17 -19 -24 -10 -41 17 -31 13 -50 -11 -63 -19 -10 -25 -8
-44 15 -36 41 -84 33 -84 -15 0 -18 -7 -32 -21 -39 -27 -15 -49 3 -49 40 0 23
-5 30 -29 35 -23 5 -34 1 -55 -20 -21 -21 -29 -24 -46 -15 -22 12 -27 49 -8
68 10 10 8 17 -9 33 -19 19 -25 20 -54 10 -56 -20 -83 29 -35 66 36 26 26 71
-17 75 -62 6 -62 70 0 76 43 4 53 49 17 75 -48 37 -15 90 39 62 23 -12 27 -11
48 11 18 19 20 27 11 36 -19 19 -14 56 8 68 17 9 24 6 44 -15 37 -39 86 -31
86 14 0 35 8 43 40 39 20 -2 26 -9 28 -35z"/>
<path d="M1036 1505 c-49 -17 -102 -69 -117 -113 -16 -47 -7 -122 20 -165 32
-51 116 -92 174 -83 165 25 224 223 97 329 -29 25 -87 47 -120 47 -8 -1 -32
-7 -54 -15z"/>
<path d="M5915 4523 c-48 -13 -105 -79 -105 -122 0 -7 46 -11 145 -11 l145 0
-6 28 c-9 38 -33 76 -55 91 -23 13 -95 22 -124 14z"/>
<path d="M7705 4516 c-41 -18 -73 -56 -81 -94 l-6 -32 141 0 c140 0 141 0 141
23 0 35 -38 87 -75 103 -42 17 -81 17 -120 0z"/>
<path d="M8895 4299 c-44 -3 -91 -11 -103 -18 -73 -39 -44 -136 45 -148 31 -4
53 0 87 17 51 24 59 41 54 111 l-3 44 -80 -6z"/>
<path d="M10385 4299 c-44 -3 -91 -11 -103 -18 -73 -39 -44 -136 45 -148 31
-4 53 0 87 17 51 24 59 41 54 111 l-3 44 -80 -6z"/>
<path d="M2621 4435 c-52 -13 -96 -26 -98 -29 -8 -8 14 -40 54 -79 l39 -37 50
15 c64 19 177 19 244 -1 l54 -16 47 53 c26 30 45 57 41 61 -21 20 -157 51
-242 54 -78 4 -112 0 -189 -21z"/>
<path d="M2221 3905 c-35 -8 -86 -22 -112 -30 l-49 -17 48 -54 c26 -29 52 -54
57 -54 6 0 32 7 59 15 27 8 77 15 111 15 34 0 84 -7 111 -15 27 -8 54 -15 60
-15 6 0 33 25 58 54 l47 55 -81 25 c-102 33 -223 41 -309 21z"/>
<path d="M5190 3208 c-18 -13 -42 -40 -53 -61 -85 -164 59 -345 212 -267 95
48 119 196 48 292 -44 59 -146 77 -207 36z"/>
<path d="M8715 3216 c-67 -29 -113 -121 -101 -200 16 -95 79 -156 163 -156 64
0 110 29 141 90 31 59 26 153 -9 205 -43 63 -128 90 -194 61z"/>
<path d="M2698 3380 c-58 -10 -148 -37 -167 -49 -11 -7 -4 -20 33 -64 l48 -54
60 18 c74 23 142 24 227 3 l65 -17 49 54 49 54 -32 13 c-97 39 -245 58 -332
42z"/>
<path d="M5996 3230 c-35 -11 -64 -36 -82 -72 -29 -57 -27 -58 126 -58 139 0
140 0 140 23 0 28 -33 83 -58 96 -29 16 -93 21 -126 11z"/>
<path d="M7935 3215 c-22 -8 -50 -27 -63 -42 -67 -83 -46 -245 38 -288 118
-61 240 20 240 159 0 129 -104 211 -215 171z"/>
<path d="M9806 3230 c-35 -11 -64 -36 -82 -72 -29 -57 -27 -58 126 -58 139 0
140 0 140 23 0 28 -33 83 -58 96 -29 16 -93 21 -126 11z"/>
<path d="M11710 3208 c-121 -62 -121 -265 0 -325 55 -28 82 -29 136 -2 64 30
89 77 89 164 0 79 -17 117 -68 152 -50 35 -104 38 -157 11z"/>
<path d="M1765 5840 c-38 -10 -96 -30 -129 -44 l-58 -26 -95 36 c-52 19 -97
33 -100 30 -3 -2 5 -23 18 -45 l23 -41 -23 -41 c-13 -22 -20 -43 -17 -46 3 -3
49 10 101 30 l96 37 51 -26 c135 -68 357 -88 511 -45 83 23 197 75 197 91 0
15 -121 69 -204 90 -104 26 -272 27 -371 0z"/>
</g>
</svg>
