<?xml version="1.0" encoding="utf-8"?>
<!-- Generator: Adobe Illustrator 27.0.0, SVG Export Plug-In . SVG Version: 6.00 Build 0)  -->
<svg version="1.1" id="Capa_1" xmlns="http://www.w3.org/2000/svg" xmlns:xlink="http://www.w3.org/1999/xlink" x="0px" y="0px"
	 viewBox="0 0 672.46 204.35" style="enable-background:new 0 0 672.46 204.35;" xml:space="preserve">
<style type="text/css">
	.st0{fill:#4F4F4E;stroke:#4F4F4E;stroke-width:0.25;stroke-miterlimit:10;}
	.st1{fill:#7B868C;}
	.st2{fill:#6F1D46;}
</style>
<g>
	<g>
		<path class="st0" d="M1010.33-296.92c0.22-0.13,0.45-0.28,0.65-0.43c0.09-0.06,0.21-0.05,0.28,0.04c0.01,0.01,0.01,0.02,0.02,0.03
			c0.04,0.09,0.01,0.19-0.06,0.25c-0.22,0.16-0.45,0.31-0.68,0.45c-0.1,0.06-0.22,0.03-0.27-0.07
			C1010.2-296.74,1010.24-296.86,1010.33-296.92"/>
		<path class="st0" d="M1015.13-302.12c0.16-0.22,0.32-0.43,0.49-0.64c0.07-0.09,0.19-0.1,0.28-0.04c0.03,0.02,0.05,0.05,0.06,0.07
			c0.03,0.07,0.02,0.15-0.02,0.21c-0.16,0.21-0.32,0.42-0.48,0.64c-0.07,0.09-0.19,0.11-0.28,0.04
			C1015.08-301.9,1015.07-302.03,1015.13-302.12"/>
		<path class="st0" d="M1012.17-298.38c0.19-0.19,0.37-0.38,0.54-0.58c0.07-0.08,0.2-0.09,0.28-0.02c0.02,0.02,0.04,0.04,0.05,0.07
			c0.03,0.07,0.02,0.16-0.03,0.22c-0.18,0.2-0.36,0.4-0.56,0.59c-0.08,0.08-0.21,0.08-0.28,0
			C1012.09-298.17,1012.09-298.3,1012.17-298.38"/>
		<path class="st0" d="M1016.65-304c0.18-0.2,0.37-0.39,0.57-0.58c0.08-0.08,0.21-0.07,0.28,0.01c0.02,0.02,0.03,0.03,0.04,0.05
			c0.03,0.08,0.02,0.17-0.04,0.23c-0.19,0.18-0.37,0.37-0.55,0.56c-0.07,0.08-0.2,0.09-0.28,0.01
			C1016.58-303.79,1016.58-303.92,1016.65-304"/>
		<path class="st0" d="M1018.5-305.6c0.23-0.15,0.47-0.29,0.71-0.41c0.1-0.05,0.22-0.01,0.27,0.09l0,0.01
			c0.04,0.1,0.01,0.21-0.09,0.26c-0.23,0.11-0.45,0.24-0.67,0.39c-0.09,0.06-0.22,0.03-0.28-0.06
			C1018.38-305.41,1018.41-305.54,1018.5-305.6"/>
		<path class="st0" d="M1003.7-302.96c-0.08,0.07-0.21,0.06-0.28-0.02c-0.16-0.18-0.35-0.35-0.56-0.5
			c-0.09-0.06-0.11-0.19-0.05-0.28c0.06-0.09,0.19-0.11,0.28-0.05c0.24,0.17,0.45,0.36,0.63,0.56c0.01,0.02,0.02,0.03,0.03,0.05
			C1003.79-303.12,1003.77-303.02,1003.7-302.96"/>
		<path class="st0" d="M997.84-301.3c0,0.11-0.09,0.2-0.2,0.2c-0.11,0-0.2-0.09-0.2-0.2c0-0.29,0.03-0.57,0.1-0.84
			c0.03-0.11,0.14-0.17,0.24-0.15c0.06,0.02,0.11,0.06,0.13,0.11c0.02,0.04,0.02,0.09,0.01,0.13
			C997.88-301.8,997.84-301.55,997.84-301.3"/>
		<path class="st0" d="M999.26-303.76c-0.22,0.12-0.42,0.27-0.6,0.44c-0.08,0.08-0.21,0.08-0.28,0c-0.08-0.08-0.08-0.21,0-0.28
			c0.2-0.2,0.43-0.37,0.69-0.51c0.1-0.05,0.22-0.02,0.27,0.08l0.01,0.01C999.39-303.93,999.35-303.81,999.26-303.76"/>
		<path class="st0" d="M1013.71-300.18c0.16-0.21,0.32-0.42,0.48-0.64c0.07-0.09,0.19-0.11,0.28-0.04c0.03,0.02,0.05,0.05,0.06,0.08
			c0.03,0.06,0.02,0.14-0.02,0.2c-0.16,0.22-0.32,0.43-0.48,0.65c-0.07,0.09-0.19,0.1-0.28,0.04
			C1013.66-299.97,1013.64-300.1,1013.71-300.18"/>
		<path class="st0" d="M993.55-294.24c0.27-0.01,0.53-0.01,0.8-0.02c0.08,0,0.16,0.05,0.19,0.12c0.01,0.02,0.02,0.05,0.02,0.08
			c0,0.11-0.08,0.2-0.19,0.21c-0.27,0.01-0.53,0.02-0.8,0.02c-0.11,0-0.2-0.09-0.21-0.2C993.35-294.14,993.44-294.23,993.55-294.24"
			/>
		<path class="st0" d="M1008.18-295.99c0.25-0.07,0.5-0.16,0.74-0.25c0.1-0.04,0.21,0.01,0.25,0.1c0,0,0,0.01,0.01,0.01
			c0.04,0.1-0.01,0.22-0.12,0.26c-0.25,0.1-0.51,0.18-0.77,0.26c-0.11,0.03-0.22-0.03-0.25-0.14
			C1008.01-295.85,1008.07-295.96,1008.18-295.99"/>
		<path class="st0" d="M1004.04-299.38c0.03-0.11,0.14-0.17,0.25-0.14c0.06,0.02,0.1,0.06,0.13,0.11c0.02,0.04,0.02,0.09,0.01,0.14
			c-0.07,0.26-0.17,0.53-0.28,0.78c-0.05,0.1-0.16,0.15-0.26,0.1c-0.1-0.04-0.15-0.16-0.1-0.26
			C1003.89-298.89,1003.97-299.13,1004.04-299.38"/>
		<path class="st0" d="M1000.7-304.52c0.28,0,0.56,0.02,0.84,0.07c0.07,0.01,0.12,0.06,0.14,0.11c0.02,0.04,0.02,0.08,0.01,0.12
			c-0.02,0.11-0.13,0.18-0.23,0.16c-0.25-0.05-0.51-0.07-0.76-0.07c-0.11,0-0.2-0.09-0.2-0.2
			C1000.5-304.43,1000.59-304.52,1000.7-304.52"/>
		<path class="st0" d="M1003.51-295.79c0.26,0.05,0.52,0.09,0.78,0.12c0.07,0.01,0.13,0.05,0.16,0.11c0.01,0.03,0.02,0.07,0.02,0.11
			c-0.01,0.11-0.11,0.19-0.22,0.18c-0.27-0.03-0.54-0.07-0.81-0.13c-0.11-0.02-0.18-0.13-0.16-0.23
			C1003.3-295.74,1003.41-295.81,1003.51-295.79"/>
		<path class="st0" d="M1004.22-300.9c-0.02-0.26-0.05-0.51-0.12-0.75c-0.03-0.11,0.04-0.22,0.14-0.24c0.1-0.03,0.19,0.02,0.23,0.11
			c0.01,0.01,0.01,0.02,0.01,0.03c0.07,0.27,0.11,0.55,0.13,0.83c0.01,0.11-0.08,0.21-0.19,0.21
			C1004.32-300.7,1004.22-300.79,1004.22-300.9"/>
		<path class="st0" d="M1002.44-296.78c0.11-0.11,0.22-0.22,0.33-0.33c0.07-0.07,0.14-0.15,0.2-0.23c0.07-0.09,0.2-0.1,0.28-0.03
			c0.02,0.02,0.04,0.04,0.05,0.07c0.03,0.07,0.02,0.15-0.03,0.21c-0.07,0.09-0.14,0.17-0.22,0.25c-0.11,0.12-0.23,0.24-0.35,0.35
			c-0.08,0.07-0.21,0.07-0.28-0.01C1002.36-296.58,1002.36-296.7,1002.44-296.78"/>
		<path class="st0" d="M1005.86-295.61c0.26-0.01,0.52-0.03,0.78-0.07c0.09-0.01,0.17,0.04,0.21,0.11c0.01,0.02,0.01,0.04,0.02,0.06
			c0.01,0.11-0.06,0.21-0.17,0.22c-0.27,0.03-0.54,0.05-0.81,0.07c-0.11,0.01-0.2-0.08-0.21-0.19
			C1005.66-295.51,1005.75-295.61,1005.86-295.61"/>
		<path class="st0" d="M1000.51-295.48c0.24-0.11,0.47-0.24,0.69-0.37c0.09-0.06,0.22-0.03,0.27,0.07c0,0.01,0.01,0.01,0.01,0.02
			c0.04,0.09,0.01,0.2-0.08,0.26c-0.23,0.14-0.47,0.27-0.72,0.39c-0.1,0.05-0.22,0.01-0.27-0.09l0,0
			C1000.36-295.31,1000.41-295.43,1000.51-295.48"/>
		<path class="st0" d="M997.88-299.92c0.1-0.04,0.23,0.01,0.26,0.11c0.09,0.24,0.2,0.47,0.33,0.7c0,0,0.01,0.01,0.01,0.01
			c0.04,0.09,0.01,0.21-0.08,0.26c-0.1,0.05-0.22,0.02-0.27-0.08c-0.14-0.24-0.26-0.49-0.35-0.75
			C997.72-299.77,997.77-299.88,997.88-299.92"/>
		<path class="st0" d="M1001.03-296.45c0.05-0.1,0.17-0.14,0.27-0.09c0.23,0.12,0.47,0.22,0.72,0.32c0.05,0.02,0.09,0.06,0.11,0.1
			c0.02,0.05,0.03,0.1,0.01,0.16c-0.04,0.1-0.16,0.15-0.26,0.11c-0.25-0.1-0.51-0.21-0.75-0.33
			C1001.02-296.23,1000.98-296.35,1001.03-296.45"/>
		<path class="st0" d="M998.28-294.7c0.26-0.06,0.51-0.13,0.76-0.21c0.1-0.03,0.2,0.02,0.24,0.11c0,0.01,0.01,0.02,0.01,0.03
			c0.03,0.11-0.03,0.22-0.13,0.25c-0.26,0.08-0.52,0.15-0.78,0.21c-0.11,0.03-0.21-0.04-0.24-0.15
			C998.11-294.57,998.17-294.68,998.28-294.7"/>
		<path class="st0" d="M995.94-294.34c0.26-0.02,0.53-0.05,0.79-0.08c0.09-0.01,0.17,0.04,0.21,0.11c0.01,0.02,0.01,0.04,0.02,0.06
			c0.01,0.11-0.06,0.21-0.17,0.22c-0.27,0.03-0.54,0.06-0.8,0.08c-0.11,0.01-0.2-0.07-0.22-0.18
			C995.75-294.24,995.83-294.34,995.94-294.34"/>
		<path class="st0" d="M999.11-297.87c0.08-0.08,0.2-0.08,0.28,0c0.12,0.12,0.24,0.23,0.37,0.34c0.07,0.06,0.14,0.12,0.22,0.17
			c0.03,0.02,0.05,0.05,0.06,0.07c0.03,0.07,0.03,0.15-0.02,0.21c-0.07,0.09-0.19,0.1-0.28,0.04c-0.08-0.06-0.15-0.12-0.23-0.18
			c-0.14-0.11-0.27-0.23-0.39-0.36C999.03-297.67,999.03-297.8,999.11-297.87"/>
	</g>
</g>
<g>
	<g>
		<g>
			<g>
				<g>
					<path class="st1" d="M283.81,80.19c0,14.81-10.87,24.64-27.76,24.64c-13.65,0-23.02-6.36-28.22-12.38L235,81.57
						c6.25,6.83,13.77,10.53,21.28,10.53c7.4,0,12.49-3.59,12.49-10.53c0-6.25-4.16-8.33-10.99-11.1l-12.49-4.97
						c-8.68-3.47-14.46-9.6-14.46-19.32c0-13.88,10.87-23.48,27.65-23.48c11.34,0,19.55,4.74,24.29,9.6l-7.17,10.76
						c-5.09-4.63-11.22-7.98-18.05-7.98c-6.59,0-11.8,3.24-11.8,9.14c0,5.78,4.97,7.98,9.14,9.72l13.3,5.44
						C279.42,63.99,283.81,70.24,283.81,80.19z"/>
					<path class="st1" d="M310.3,23.62v79.82h-15.04V23.62H310.3z"/>
					<path class="st1" d="M351.83,23.62c7.98,0,14.92,1.62,20.01,5.9c5.21,4.28,8.33,9.95,8.33,18.05c0,8.1-3.12,13.88-8.33,18.16
						c-5.09,4.28-12.03,6.25-20.01,6.25h-10.53v31.46h-15.15V23.62H351.83z M360.28,57.17c2.54-1.85,4.4-5.09,4.4-9.6
						c0-4.4-2.2-7.63-4.74-9.49c-2.54-1.85-5.67-2.66-10.29-2.66h-8.44v24.75h8.79C354.61,60.17,357.73,59.02,360.28,57.17z"/>
					<path class="st1" d="M405.39,23.62v79.82h-15.04V23.62H405.39z"/>
					<path class="st1" d="M436.05,64.22v39.21h-14.69V23.62h15.96l39.68,58.18c0,0-0.23-9.37-0.23-18.86V23.62h14.69v79.82H476.3
						l-40.49-58.88C435.81,44.56,436.05,54.74,436.05,64.22z"/>
					<path class="st1" d="M522.23,64.22v39.21h-14.69V23.62h15.96l39.68,58.18c0,0-0.23-9.37-0.23-18.86V23.62h14.69v79.82h-15.15
						L522,44.56C522,44.56,522.23,54.74,522.23,64.22z"/>
					<path class="st1" d="M608.06,85.04l-6.94,18.39H585.5l31.35-79.93h14.58l31.35,79.93h-16.43l-6.94-18.39H608.06z M635.71,73.01
						l-11.92-32.27l-12.03,32.27H635.71z"/>
				</g>
			</g>
			<g>
				<g>
					<path class="st1" d="M238.79,139.29c0,2.9-2.13,4.83-5.44,4.83c-2.67,0-4.51-1.25-5.53-2.42l1.4-2.13
						c1.22,1.34,2.7,2.06,4.17,2.06c1.45,0,2.45-0.7,2.45-2.06c0-1.22-0.82-1.63-2.15-2.17l-2.45-0.97
						c-1.7-0.68-2.83-1.88-2.83-3.78c0-2.72,2.13-4.6,5.41-4.6c2.22,0,3.83,0.93,4.76,1.88l-1.4,2.11c-1-0.91-2.2-1.56-3.53-1.56
						c-1.29,0-2.31,0.63-2.31,1.79c0,1.13,0.97,1.56,1.79,1.9l2.61,1.06C237.93,136.12,238.79,137.34,238.79,139.29z"/>
					<path class="st1" d="M242.31,129.52c0-0.93,0.72-1.61,1.74-1.61c1.02,0,1.74,0.68,1.74,1.61c0,0.95-0.72,1.61-1.74,1.61
						C243.03,131.13,242.31,130.48,242.31,129.52z M245.5,132.88v10.96h-2.9v-10.96H245.5z"/>
					<path class="st1" d="M253.73,134.85c-0.95,0-1.43,0.36-1.43,0.88c0,0.48,0.36,0.86,1.59,1.25l0.77,0.25
						c2.42,0.79,3.29,1.65,3.29,3.24c0,2.08-1.65,3.62-4.35,3.62c-1.68,0-3.56-0.68-4.44-1.7l1.18-1.97c1.29,1,2.4,1.5,3.33,1.5
						c1.09,0,1.59-0.41,1.59-1.04c0-0.57-0.43-0.88-1.84-1.36l-1.27-0.43c-1.63-0.54-2.47-1.52-2.47-3.13
						c0-1.99,1.81-3.29,3.92-3.29c1.95,0,3.04,0.52,3.94,1.18l-1.25,1.93C255.65,135.3,254.72,134.85,253.73,134.85z"/>
					<path class="st1" d="M266.14,141.67c0.59,0,1.04-0.18,1.04-0.18l0.16,2.24c-0.14,0.05-1,0.36-2.22,0.36
						c-2.24,0-3.17-1.02-3.17-3.87v-5.08h-1.63v-2.24h1.63v-3.13h2.88v3.13h2.54v2.24h-2.54v4.44
						C264.83,141.26,265.12,141.67,266.14,141.67z"/>
					<path class="st1" d="M276.25,141.87c1.47,0,2.79-0.66,3.31-1.11l1.13,1.56c-0.61,0.63-2.27,1.77-4.94,1.77
						c-3.31,0-5.75-2.02-5.75-5.55c0-3.51,2.56-5.87,5.69-5.87c3.38,0,5.42,2.22,5.42,5.14c0,0.57-0.05,1.47-0.05,1.47h-8.06
						C273.26,141.03,274.59,141.87,276.25,141.87z M272.94,137.41h5.26c-0.05-1.2-0.5-2.58-2.54-2.58
						C273.94,134.82,273.03,136.03,272.94,137.41z"/>
					<path class="st1" d="M296.64,135.05c-1.45,0-2.2,1.25-2.2,3.13v5.66h-2.9v-6.16c0-1.49-0.38-2.63-1.77-2.63
						c-1.49,0-2.15,1.4-2.15,3.13v5.66h-2.9v-10.96h2.9l-0.02,1.65h0.07c0.5-1.02,1.84-1.86,3.26-1.86c1.59,0,2.54,0.63,3.06,2.08
						c0.77-1.34,2.02-2.08,3.6-2.08c2.88,0,3.67,2.04,3.67,4.55v6.62h-2.9v-6.14C298.36,136.37,298.07,135.05,296.64,135.05z"/>
					<path class="st1" d="M308.58,144.09c-2.13,0-3.85-1.15-3.85-3.44s2.24-3.17,4.51-3.33l2.63-0.18v-0.3
						c0-1.4-0.93-2.06-2.45-2.06c-1.45,0-2.65,0.54-3.13,0.91l-0.88-1.86c0.84-0.5,2.38-1.16,4.28-1.16c1.95,0,3.06,0.5,3.87,1.27
						c0.79,0.77,1.2,1.77,1.2,3.63v6.27h-2.79l-0.05-1.27C311.48,143.37,310.22,144.09,308.58,144.09z M307.63,140.56
						c0,0.93,0.7,1.56,1.9,1.56c1.13,0,1.97-0.66,2.36-1.2v-2.02l-1.97,0.11C308.38,139.11,307.63,139.63,307.63,140.56z"/>
					<path class="st1" d="M335.03,128.21v2.45h-6.71v3.87h6.32v2.42h-6.32v4.44h6.89v2.45h-9.83v-15.63H335.03z"/>
					<path class="st1" d="M342.91,134.85c-0.95,0-1.43,0.36-1.43,0.88c0,0.48,0.36,0.86,1.59,1.25l0.77,0.25
						c2.42,0.79,3.29,1.65,3.29,3.24c0,2.08-1.65,3.62-4.35,3.62c-1.68,0-3.56-0.68-4.44-1.7l1.18-1.97c1.29,1,2.4,1.5,3.33,1.5
						c1.09,0,1.59-0.41,1.59-1.04c0-0.57-0.43-0.88-1.84-1.36l-1.27-0.43c-1.63-0.54-2.47-1.52-2.47-3.13
						c0-1.99,1.81-3.29,3.92-3.29c1.95,0,3.04,0.52,3.94,1.18l-1.25,1.93C344.84,135.3,343.91,134.85,342.91,134.85z"/>
					<path class="st1" d="M355.33,141.67c0.59,0,1.04-0.18,1.04-0.18l0.16,2.24c-0.14,0.05-1,0.36-2.22,0.36
						c-2.24,0-3.17-1.02-3.17-3.87v-5.08h-1.63v-2.24h1.63v-3.13h2.88v3.13h2.54v2.24h-2.54v4.44
						C354.02,141.26,354.31,141.67,355.33,141.67z"/>
					<path class="st1" d="M362.92,144.09c-2.13,0-3.85-1.15-3.85-3.44s2.24-3.17,4.51-3.33l2.63-0.18v-0.3
						c0-1.4-0.93-2.06-2.45-2.06c-1.45,0-2.65,0.54-3.13,0.91l-0.88-1.86c0.84-0.5,2.38-1.16,4.28-1.16c1.95,0,3.06,0.5,3.87,1.27
						c0.79,0.77,1.2,1.77,1.2,3.63v6.27h-2.79l-0.05-1.27C365.82,143.37,364.55,144.09,362.92,144.09z M361.97,140.56
						c0,0.93,0.7,1.56,1.9,1.56c1.13,0,1.97-0.66,2.36-1.2v-2.02l-1.97,0.11C362.72,139.11,361.97,139.63,361.97,140.56z"/>
					<path class="st1" d="M377.99,141.67c0.59,0,1.04-0.18,1.04-0.18l0.16,2.24c-0.14,0.05-1,0.36-2.22,0.36
						c-2.24,0-3.17-1.02-3.17-3.87v-5.08h-1.63v-2.24h1.63v-3.13h2.88v3.13h2.54v2.24h-2.54v4.44
						C376.68,141.26,376.97,141.67,377.99,141.67z"/>
					<path class="st1" d="M385.58,144.09c-2.13,0-3.85-1.15-3.85-3.44s2.24-3.17,4.51-3.33l2.63-0.18v-0.3
						c0-1.4-0.93-2.06-2.45-2.06c-1.45,0-2.65,0.54-3.13,0.91l-0.88-1.86c0.84-0.5,2.38-1.16,4.28-1.16c1.95,0,3.06,0.5,3.87,1.27
						c0.79,0.77,1.2,1.77,1.2,3.63v6.27h-2.79l-0.05-1.27C388.48,143.37,387.21,144.09,385.58,144.09z M384.63,140.56
						c0,0.93,0.7,1.56,1.9,1.56c1.13,0,1.97-0.66,2.36-1.2v-2.02l-1.97,0.11C385.38,139.11,384.63,139.63,384.63,140.56z"/>
					<path class="st1" d="M398.95,128.21v15.63h-2.88v-15.63H398.95z"/>
					<path class="st1" d="M417.89,142.12c-0.88,1.4-2.24,1.97-3.76,1.97c-3.22,0-5.19-2.49-5.19-5.75c0-3.1,2.06-5.66,5.39-5.66
						c1.47,0,2.72,0.54,3.49,1.72h0.05c-0.02-0.5-0.02-1.09-0.02-1.86v-4.33h2.88v15.63h-2.74l-0.02-1.72H417.89z M417.92,138.34
						c0-1.83-1.2-3.44-3.06-3.44c-1.88,0-2.97,1.61-2.97,3.44c0,1.9,1.18,3.4,3.06,3.4C416.69,141.74,417.92,140.4,417.92,138.34z"
						/>
					<path class="st1" d="M430.74,141.87c1.47,0,2.79-0.66,3.31-1.11l1.13,1.56c-0.61,0.63-2.27,1.77-4.94,1.77
						c-3.31,0-5.75-2.02-5.75-5.55c0-3.51,2.56-5.87,5.69-5.87c3.38,0,5.42,2.22,5.42,5.14c0,0.57-0.05,1.47-0.05,1.47h-8.06
						C427.75,141.03,429.09,141.87,430.74,141.87z M427.43,137.41h5.26c-0.05-1.2-0.5-2.58-2.54-2.58
						C428.43,134.82,427.53,136.03,427.43,137.41z"/>
					<path class="st1" d="M450.64,128.21c1.56,0,2.92,0.32,3.92,1.15c1.02,0.84,1.63,1.95,1.63,3.53c0,1.59-0.61,2.72-1.63,3.56
						c-1,0.84-2.36,1.22-3.92,1.22h-2.06v6.16h-2.97v-15.63H450.64z M452.29,134.78c0.5-0.36,0.86-1,0.86-1.88
						c0-0.86-0.43-1.49-0.93-1.86c-0.5-0.36-1.11-0.52-2.02-0.52h-1.65v4.85h1.72C451.18,135.37,451.79,135.14,452.29,134.78z"/>
					<path class="st1" d="M462.53,132.88l-0.05,1.77h0.07c0.43-1.18,1.52-1.97,2.7-1.97c0.75,0,1.16,0.2,1.16,0.2l-0.2,2.51h-0.14
						c-0.32-0.09-0.82-0.14-1.2-0.14c-0.86,0-1.52,0.36-1.93,1.06c-0.27,0.54-0.41,1.29-0.41,2.13v5.39h-2.88v-10.96H462.53z"/>
					<path class="st1" d="M468.74,138.4c0-3.47,2.58-5.73,5.96-5.73c3.35,0,5.94,2.27,5.94,5.73c0,3.47-2.58,5.69-5.94,5.69
						C471.33,144.09,468.74,141.87,468.74,138.4z M474.7,135.01c-1.9,0-2.94,1.45-2.94,3.33c0,1.88,1.04,3.35,2.94,3.35
						c1.86,0,2.94-1.47,2.94-3.35C477.65,136.46,476.56,135.01,474.7,135.01z"/>
					<path class="st1" d="M489.02,141.67c0.59,0,1.04-0.18,1.04-0.18l0.16,2.24c-0.14,0.05-1,0.36-2.22,0.36
						c-2.24,0-3.17-1.02-3.17-3.87v-5.08h-1.63v-2.24h1.63v-3.13h2.88v3.13h2.54v2.24h-2.54v4.44
						C487.71,141.26,488,141.67,489.02,141.67z"/>
					<path class="st1" d="M499.13,141.87c1.47,0,2.79-0.66,3.31-1.11l1.13,1.56c-0.61,0.63-2.27,1.77-4.94,1.77
						c-3.31,0-5.75-2.02-5.75-5.55c0-3.51,2.56-5.87,5.69-5.87c3.38,0,5.42,2.22,5.42,5.14c0,0.57-0.05,1.47-0.05,1.47h-8.07
						C496.14,141.03,497.47,141.87,499.13,141.87z M495.82,137.41h5.26c-0.05-1.2-0.5-2.58-2.54-2.58
						C496.82,134.82,495.91,136.03,495.82,137.41z"/>
					<path class="st1" d="M516.17,140.49l0.82,2.13c-0.23,0.2-1.36,1.47-4.28,1.47c-2.99,0-5.75-2.06-5.75-5.64
						c0-3.6,2.85-5.78,5.8-5.78c2.76,0,3.85,1.11,4.15,1.4l-0.79,2.17c-0.34-0.32-1.31-1.15-3.01-1.15c-1.72,0-3.1,1.2-3.1,3.22
						c0,2.02,1.38,3.33,3.26,3.33C515.13,141.64,516.17,140.49,516.17,140.49z"/>
					<path class="st1" d="M528.7,140.49l0.82,2.13c-0.23,0.2-1.36,1.47-4.28,1.47c-2.99,0-5.75-2.06-5.75-5.64
						c0-3.6,2.85-5.78,5.8-5.78c2.76,0,3.85,1.11,4.15,1.4l-0.79,2.17c-0.34-0.32-1.31-1.15-3.01-1.15c-1.72,0-3.1,1.2-3.1,3.22
						c0,2.02,1.38,3.33,3.26,3.33C527.66,141.64,528.7,140.49,528.7,140.49z"/>
					<path class="st1" d="M532.58,129.52c0-0.93,0.73-1.61,1.74-1.61c1.02,0,1.74,0.68,1.74,1.61c0,0.95-0.72,1.61-1.74,1.61
						C533.3,131.13,532.58,130.48,532.58,129.52z M535.77,132.88v10.96h-2.9v-10.96H535.77z"/>
					<path class="st1" d="M539.56,138.4c0-3.47,2.58-5.73,5.96-5.73c3.35,0,5.94,2.27,5.94,5.73c0,3.47-2.58,5.69-5.94,5.69
						C542.14,144.09,539.56,141.87,539.56,138.4z M545.51,135.01c-1.9,0-2.94,1.45-2.94,3.33c0,1.88,1.04,3.35,2.94,3.35
						c1.86,0,2.94-1.47,2.94-3.35C548.46,136.46,547.37,135.01,545.51,135.01z M548.57,128.21l-2.42,3.28h-2.11l1.9-3.28H548.57z"/>
					<path class="st1" d="M560.45,135.05c-1.79,0-2.4,1.49-2.4,3.33v5.46h-2.9v-10.96h2.9l-0.02,1.65h0.07
						c0.59-1.16,1.7-1.86,3.29-1.86c3.15,0,3.94,2.04,3.94,4.67v6.5h-2.9v-5.87C562.42,136.34,562.12,135.05,560.45,135.05z"/>
					<path class="st1" d="M578.98,128.21v15.63h-2.94v-15.63H578.98z"/>
					<path class="st1" d="M588.88,135.05c-1.79,0-2.4,1.49-2.4,3.33v5.46h-2.9v-10.96h2.9l-0.02,1.65h0.07
						c0.59-1.16,1.7-1.86,3.29-1.86c3.15,0,3.94,2.04,3.94,4.67v6.5h-2.9v-5.87C590.85,136.34,590.56,135.05,588.88,135.05z"/>
					<path class="st1" d="M602.75,141.67c0.59,0,1.04-0.18,1.04-0.18l0.16,2.24c-0.14,0.05-1,0.36-2.22,0.36
						c-2.24,0-3.17-1.02-3.17-3.87v-5.08h-1.63v-2.24h1.63v-3.13h2.88v3.13h2.54v2.24h-2.54v4.44
						C601.44,141.26,601.73,141.67,602.75,141.67z"/>
					<path class="st1" d="M612.86,141.87c1.47,0,2.79-0.66,3.31-1.11l1.13,1.56c-0.61,0.63-2.27,1.77-4.94,1.77
						c-3.31,0-5.75-2.02-5.75-5.55c0-3.51,2.56-5.87,5.69-5.87c3.38,0,5.42,2.22,5.42,5.14c0,0.57-0.05,1.47-0.05,1.47h-8.07
						C609.87,141.03,611.2,141.87,612.86,141.87z M609.55,137.41h5.26c-0.05-1.2-0.5-2.58-2.54-2.58
						C610.55,134.82,609.64,136.03,609.55,137.41z"/>
					<path class="st1" d="M625.89,143.48c-2.76,0-5.12-1.77-5.12-5.26c0-3.04,2.13-5.55,5.39-5.55c1.47,0,2.72,0.54,3.49,1.72h0.05
						l-0.02-1.52h2.88v8.7c0,2.4-0.5,3.76-1.43,4.73c-0.95,1-2.36,1.93-4.98,1.93c-2.6,0-4.55-1.25-5.1-1.63l1.2-2.02
						c0.7,0.5,2.49,1.29,3.9,1.29c1.56,0,2.38-0.5,2.79-0.97c0.41-0.48,0.75-1.38,0.75-2.6v-0.54h-0.05
						C628.88,142.89,627.56,143.48,625.89,143.48z M626.75,134.96c-1.9,0-3.04,1.4-3.04,3.19c0,1.68,1.09,3.06,2.99,3.06
						c2.08,0,3.13-1.38,3.13-3.06C629.83,136.57,628.65,134.96,626.75,134.96z"/>
					<path class="st1" d="M639.85,132.88l-0.05,1.77h0.07c0.43-1.18,1.52-1.97,2.7-1.97c0.75,0,1.16,0.2,1.16,0.2l-0.2,2.51h-0.14
						c-0.32-0.09-0.82-0.14-1.2-0.14c-0.86,0-1.52,0.36-1.93,1.06c-0.27,0.54-0.41,1.29-0.41,2.13v5.39h-2.88v-10.96H639.85z"/>
					<path class="st1" d="M649.41,144.09c-2.13,0-3.85-1.15-3.85-3.44s2.24-3.17,4.51-3.33l2.63-0.18v-0.3
						c0-1.4-0.93-2.06-2.45-2.06c-1.45,0-2.65,0.54-3.13,0.91l-0.88-1.86c0.84-0.5,2.38-1.16,4.28-1.16c1.95,0,3.06,0.5,3.87,1.27
						c0.79,0.77,1.2,1.77,1.2,3.63v6.27h-2.79l-0.05-1.27C652.31,143.37,651.04,144.09,649.41,144.09z M648.46,140.56
						c0,0.93,0.7,1.56,1.9,1.56c1.13,0,1.97-0.66,2.36-1.2v-2.02l-1.97,0.11C649.2,139.11,648.46,139.63,648.46,140.56z"/>
					<path class="st1" d="M662.78,128.21v15.63h-2.88v-15.63H662.78z"/>
					<path class="st1" d="M256.01,167.22c-0.88,1.4-2.24,1.97-3.76,1.97c-3.22,0-5.19-2.49-5.19-5.75c0-3.1,2.06-5.66,5.39-5.66
						c1.47,0,2.72,0.54,3.49,1.72h0.05c-0.02-0.5-0.02-1.09-0.02-1.86v-4.33h2.88v15.63h-2.74l-0.02-1.72H256.01z M256.03,163.43
						c0-1.83-1.2-3.44-3.06-3.44c-1.88,0-2.97,1.61-2.97,3.44c0,1.9,1.18,3.4,3.06,3.4C254.81,166.83,256.03,165.49,256.03,163.43z"
						/>
					<path class="st1" d="M268.86,166.97c1.47,0,2.79-0.66,3.31-1.11l1.13,1.56c-0.61,0.63-2.27,1.77-4.94,1.77
						c-3.31,0-5.75-2.02-5.75-5.55c0-3.51,2.56-5.87,5.69-5.87c3.38,0,5.42,2.22,5.42,5.14c0,0.57-0.05,1.47-0.05,1.47h-8.07
						C265.87,166.13,267.21,166.97,268.86,166.97z M265.55,162.5h5.26c-0.05-1.2-0.5-2.58-2.54-2.58
						C266.55,159.92,265.64,161.12,265.55,162.5z"/>
					<path class="st1" d="M286.63,161.26v7.68h-2.88v-15.63h3.13l7.77,11.4c0,0-0.05-1.84-0.05-3.69v-7.7h2.88v15.63h-2.97
						l-7.93-11.53C286.58,157.41,286.63,159.4,286.63,161.26z"/>
					<path class="st1" d="M301.9,154.62c0-0.93,0.73-1.61,1.74-1.61c1.02,0,1.74,0.68,1.74,1.61c0,0.95-0.72,1.61-1.74,1.61
						C302.63,156.23,301.9,155.57,301.9,154.62z M305.09,157.97v10.96h-2.9v-10.96H305.09z"/>
					<path class="st1" d="M314.86,160.15c-1.79,0-2.4,1.49-2.4,3.33v5.46h-2.9v-10.96h2.9l-0.02,1.65h0.07
						c0.59-1.16,1.7-1.86,3.29-1.86c3.15,0,3.94,2.04,3.94,4.67v6.5h-2.9v-5.87C316.83,161.44,316.54,160.15,314.86,160.15z
						 M316.22,156.23c-0.91,0-1.38-0.34-1.68-0.5c-0.32-0.16-0.79-0.54-1.31-0.54c-0.52,0-0.88,0.41-1.02,0.97l-1.31-0.23
						c0.07-1.34,1.15-2.36,2.33-2.36c0.91,0,1.38,0.34,1.68,0.5c0.3,0.18,0.79,0.54,1.31,0.54c0.52,0,0.88-0.41,1.02-0.95l1.29,0.23
						C318.46,155.23,317.4,156.23,316.22,156.23z"/>
					<path class="st1" d="M327.05,169.19c-2.13,0-3.85-1.15-3.85-3.44s2.24-3.17,4.51-3.33l2.63-0.18v-0.3
						c0-1.4-0.93-2.06-2.45-2.06c-1.45,0-2.65,0.54-3.13,0.91l-0.88-1.86c0.84-0.5,2.38-1.16,4.28-1.16c1.95,0,3.06,0.5,3.87,1.27
						c0.79,0.77,1.2,1.77,1.2,3.63v6.27h-2.79l-0.05-1.27C329.95,168.46,328.68,169.19,327.05,169.19z M326.1,165.65
						c0,0.93,0.7,1.56,1.9,1.56c1.13,0,1.97-0.66,2.36-1.2V164l-1.97,0.11C326.85,164.2,326.1,164.72,326.1,165.65z"/>
					<path class="st1" d="M341.19,159.94c-0.95,0-1.43,0.36-1.43,0.88c0,0.48,0.36,0.86,1.59,1.25l0.77,0.25
						c2.42,0.79,3.29,1.65,3.29,3.24c0,2.08-1.65,3.62-4.35,3.62c-1.68,0-3.56-0.68-4.44-1.7l1.18-1.97c1.29,1,2.4,1.5,3.33,1.5
						c1.09,0,1.59-0.41,1.59-1.04c0-0.57-0.43-0.88-1.84-1.36l-1.27-0.43c-1.63-0.54-2.47-1.52-2.47-3.13
						c0-1.99,1.81-3.29,3.92-3.29c1.95,0,3.04,0.52,3.94,1.18l-1.25,1.93C343.12,160.4,342.19,159.94,341.19,159.94z"/>
					<path class="st1" d="M353.25,166.08l-2.27,6.03h-2.33l1.74-6.03H353.25z"/>
					<path class="st1" d="M367,161.26v7.68h-2.88v-15.63h3.13l7.77,11.4c0,0-0.05-1.84-0.05-3.69v-7.7h2.88v15.63h-2.97l-7.93-11.53
						C366.95,157.41,367,159.4,367,161.26z"/>
					<path class="st1" d="M382.27,154.62c0-0.93,0.73-1.61,1.74-1.61c1.02,0,1.74,0.68,1.74,1.61c0,0.95-0.72,1.61-1.74,1.61
						C383,156.23,382.27,155.57,382.27,154.62z M385.47,157.97v10.96h-2.9v-10.96H385.47z"/>
					<path class="st1" d="M395.23,160.15c-1.79,0-2.4,1.49-2.4,3.33v5.46h-2.9v-10.96h2.9l-0.02,1.65h0.07
						c0.59-1.16,1.7-1.86,3.29-1.86c3.15,0,3.94,2.04,3.94,4.67v6.5h-2.9v-5.87C397.21,161.44,396.91,160.15,395.23,160.15z
						 M396.59,156.23c-0.91,0-1.38-0.34-1.68-0.5c-0.32-0.16-0.79-0.54-1.31-0.54c-0.52,0-0.88,0.41-1.02,0.97l-1.31-0.23
						c0.07-1.34,1.15-2.36,2.33-2.36c0.91,0,1.38,0.34,1.68,0.5c0.3,0.18,0.79,0.54,1.31,0.54c0.52,0,0.88-0.41,1.02-0.95l1.29,0.23
						C398.84,155.23,397.77,156.23,396.59,156.23z"/>
					<path class="st1" d="M403.73,163.5c0-3.47,2.58-5.73,5.96-5.73c3.35,0,5.94,2.27,5.94,5.73c0,3.47-2.58,5.69-5.94,5.69
						C406.32,169.19,403.73,166.97,403.73,163.5z M409.69,160.1c-1.9,0-2.94,1.45-2.94,3.33c0,1.88,1.04,3.35,2.94,3.35
						c1.86,0,2.94-1.47,2.94-3.35C412.64,161.55,411.55,160.1,409.69,160.1z"/>
					<path class="st1" d="M423.08,159.94c-0.95,0-1.43,0.36-1.43,0.88c0,0.48,0.36,0.86,1.59,1.25l0.77,0.25
						c2.42,0.79,3.29,1.65,3.29,3.24c0,2.08-1.65,3.62-4.35,3.62c-1.68,0-3.56-0.68-4.44-1.7l1.18-1.97c1.29,1,2.4,1.5,3.33,1.5
						c1.09,0,1.59-0.41,1.59-1.04c0-0.57-0.43-0.88-1.84-1.36l-1.27-0.43c-1.63-0.54-2.47-1.52-2.47-3.13
						c0-1.99,1.81-3.29,3.92-3.29c1.95,0,3.04,0.52,3.94,1.18l-1.25,1.93C425.01,160.4,424.08,159.94,423.08,159.94z"/>
					<path class="st1" d="M438.61,157.97l2.9,7.77l2.85-7.77h3.01l-5.1,12.44c-0.79,1.93-1.7,2.85-3.24,2.85
						c-1.56,0-2.58-0.45-2.58-0.45l0.59-2.22c0,0,0.77,0.27,1.31,0.27c0.57,0,1.04-0.16,1.27-0.72l0.48-1.13l-4.53-11.03H438.61z"/>
					<path class="st1" d="M459.5,165.34l-1.36,3.6h-3.06l6.14-15.65h2.85l6.14,15.65h-3.22l-1.36-3.6H459.5z M464.91,162.98
						l-2.33-6.32l-2.36,6.32H464.91z"/>
					<path class="st1" d="M481.27,167.22c-0.88,1.4-2.24,1.97-3.76,1.97c-3.22,0-5.19-2.49-5.19-5.75c0-3.1,2.06-5.66,5.39-5.66
						c1.47,0,2.72,0.54,3.49,1.72h0.05c-0.02-0.5-0.02-1.09-0.02-1.86v-4.33h2.88v15.63h-2.74l-0.02-1.72H481.27z M481.29,163.43
						c0-1.83-1.2-3.44-3.06-3.44c-1.88,0-2.97,1.61-2.97,3.44c0,1.9,1.18,3.4,3.06,3.4C480.07,166.83,481.29,165.49,481.29,163.43z"
						/>
					<path class="st1" d="M487.91,163.5c0-3.47,2.58-5.73,5.96-5.73c3.35,0,5.94,2.27,5.94,5.73c0,3.47-2.58,5.69-5.94,5.69
						C490.5,169.19,487.91,166.97,487.91,163.5z M493.87,160.1c-1.9,0-2.94,1.45-2.94,3.33c0,1.88,1.04,3.35,2.94,3.35
						c1.86,0,2.94-1.47,2.94-3.35C496.82,161.55,495.73,160.1,493.87,160.1z"/>
					<path class="st1" d="M506.49,153.31v15.63h-2.88v-15.63H506.49z"/>
					<path class="st1" d="M516.51,166.97c1.47,0,2.79-0.66,3.31-1.11l1.13,1.56c-0.61,0.63-2.27,1.77-4.94,1.77
						c-3.31,0-5.75-2.02-5.75-5.55c0-3.51,2.56-5.87,5.69-5.87c3.38,0,5.42,2.22,5.42,5.14c0,0.57-0.05,1.47-0.05,1.47h-8.07
						C513.52,166.13,514.85,166.97,516.51,166.97z M513.2,162.5h5.26c-0.05-1.2-0.5-2.58-2.54-2.58
						C514.2,159.92,513.29,161.12,513.2,162.5z"/>
					<path class="st1" d="M528.75,159.94c-0.95,0-1.43,0.36-1.43,0.88c0,0.48,0.36,0.86,1.59,1.25l0.77,0.25
						c2.42,0.79,3.29,1.65,3.29,3.24c0,2.08-1.65,3.62-4.35,3.62c-1.68,0-3.56-0.68-4.44-1.7l1.18-1.97c1.29,1,2.4,1.5,3.33,1.5
						c1.09,0,1.59-0.41,1.59-1.04c0-0.57-0.43-0.88-1.84-1.36l-1.27-0.43c-1.63-0.54-2.47-1.52-2.47-3.13
						c0-1.99,1.81-3.29,3.92-3.29c1.95,0,3.04,0.52,3.94,1.18l-1.25,1.93C530.67,160.4,529.74,159.94,528.75,159.94z"/>
					<path class="st1" d="M544.92,165.58l0.82,2.13c-0.23,0.2-1.36,1.47-4.28,1.47c-2.99,0-5.75-2.06-5.75-5.64
						c0-3.6,2.85-5.78,5.8-5.78c2.76,0,3.85,1.11,4.15,1.4l-0.79,2.17c-0.34-0.32-1.31-1.15-3.01-1.15c-1.72,0-3.1,1.2-3.1,3.22
						c0,2.02,1.38,3.33,3.26,3.33S544.92,165.58,544.92,165.58z"/>
					<path class="st1" d="M554.53,166.97c1.47,0,2.79-0.66,3.31-1.11l1.13,1.56c-0.61,0.63-2.27,1.77-4.94,1.77
						c-3.31,0-5.75-2.02-5.75-5.55c0-3.51,2.56-5.87,5.69-5.87c3.38,0,5.42,2.22,5.42,5.14c0,0.57-0.05,1.47-0.05,1.47h-8.07
						C551.54,166.13,552.88,166.97,554.53,166.97z M551.22,162.5h5.26c-0.05-1.2-0.5-2.58-2.54-2.58
						C552.22,159.92,551.31,161.12,551.22,162.5z"/>
					<path class="st1" d="M568.31,160.15c-1.79,0-2.4,1.49-2.4,3.33v5.46h-2.9v-10.96h2.9l-0.02,1.65h0.07
						c0.59-1.16,1.7-1.86,3.29-1.86c3.15,0,3.94,2.04,3.94,4.67v6.5h-2.9v-5.87C570.28,161.44,569.98,160.15,568.31,160.15z"/>
					<path class="st1" d="M582.18,166.76c0.59,0,1.04-0.18,1.04-0.18l0.16,2.24c-0.14,0.05-1,0.36-2.22,0.36
						c-2.24,0-3.17-1.02-3.17-3.87v-5.08h-1.63V158h1.63v-3.13h2.88V158h2.54v2.24h-2.54v4.44
						C580.86,166.36,581.16,166.76,582.18,166.76z"/>
					<path class="st1" d="M592.28,166.97c1.47,0,2.79-0.66,3.31-1.11l1.13,1.56c-0.61,0.63-2.27,1.77-4.94,1.77
						c-3.31,0-5.75-2.02-5.75-5.55c0-3.51,2.56-5.87,5.69-5.87c3.38,0,5.42,2.22,5.42,5.14c0,0.57-0.05,1.47-0.05,1.47h-8.07
						C589.29,166.13,590.63,166.97,592.28,166.97z M588.97,162.5h5.26c-0.05-1.2-0.5-2.58-2.54-2.58
						C589.97,159.92,589.07,161.12,588.97,162.5z"/>
					<path class="st1" d="M604.52,159.94c-0.95,0-1.43,0.36-1.43,0.88c0,0.48,0.36,0.86,1.59,1.25l0.77,0.25
						c2.42,0.79,3.28,1.65,3.28,3.24c0,2.08-1.65,3.62-4.35,3.62c-1.68,0-3.56-0.68-4.44-1.7l1.18-1.97c1.29,1,2.4,1.5,3.33,1.5
						c1.09,0,1.59-0.41,1.59-1.04c0-0.57-0.43-0.88-1.84-1.36l-1.27-0.43c-1.63-0.54-2.47-1.52-2.47-3.13
						c0-1.99,1.81-3.29,3.92-3.29c1.95,0,3.04,0.52,3.94,1.18l-1.25,1.93C606.44,160.4,605.52,159.94,604.52,159.94z"/>
					<path class="st1" d="M626.7,167.22c-0.88,1.4-2.24,1.97-3.76,1.97c-3.22,0-5.19-2.49-5.19-5.75c0-3.1,2.06-5.66,5.39-5.66
						c1.47,0,2.72,0.54,3.49,1.72h0.05c-0.02-0.5-0.02-1.09-0.02-1.86v-4.33h2.88v15.63h-2.74l-0.02-1.72H626.7z M626.72,163.43
						c0-1.83-1.2-3.44-3.06-3.44c-1.88,0-2.97,1.61-2.97,3.44c0,1.9,1.18,3.4,3.06,3.4C625.5,166.83,626.72,165.49,626.72,163.43z"
						/>
					<path class="st1" d="M639.55,166.97c1.47,0,2.79-0.66,3.31-1.11l1.13,1.56c-0.61,0.63-2.27,1.77-4.94,1.77
						c-3.31,0-5.75-2.02-5.75-5.55c0-3.51,2.56-5.87,5.69-5.87c3.38,0,5.42,2.22,5.42,5.14c0,0.57-0.05,1.47-0.05,1.47h-8.07
						C636.56,166.13,637.9,166.97,639.55,166.97z M636.24,162.5h5.26c-0.05-1.2-0.5-2.58-2.54-2.58
						C637.24,159.92,636.33,161.12,636.24,162.5z"/>
					<path class="st2" d="M374.36,194.03l-0.61-10.65h-0.05l-3.35,10.65h-2.9l-3.38-10.65h-0.07l-0.57,10.65h-3.6l1.18-15.63h4.62
						l3.26,10.28h0.05l3.22-10.28h4.64l1.16,15.63H374.36z"/>
					<path class="st2" d="M384.77,194.03V178.4h3.67v15.63H384.77z"/>
					<path class="st2" d="M403.23,194.31c-4.6,0-8.2-3.04-8.2-8.06c0-5.05,3.65-8.07,8.2-8.07c3.22,0,4.96,1.34,5.37,1.77
						l-1.13,3.04c-0.29-0.39-1.97-1.63-4.03-1.63c-2.65,0-4.69,1.77-4.69,4.83s2.13,4.8,4.69,4.8c1.95,0,3.35-0.77,4.21-1.65
						l1.22,2.85C408.08,192.99,406.43,194.31,403.23,194.31z"/>
					<path class="st2" d="M425.03,194.03v-6.55h-6.27v6.55h-3.67V178.4h3.67v6.05h6.27v-6.05h3.67v15.63H425.03z"/>
					<path class="st2" d="M443.59,194.31c-4.64,0-8.29-3.01-8.29-8.06c0-5.05,3.65-8.09,8.29-8.09c4.64,0,8.29,3.04,8.29,8.09
						C451.88,191.29,448.23,194.31,443.59,194.31z M443.59,181.28c-2.6,0-4.58,1.88-4.58,4.87c0,2.99,1.97,4.89,4.58,4.89
						c2.61,0,4.58-1.9,4.58-4.89C448.16,183.18,446.19,181.28,443.59,181.28z"/>
					<path class="st2" d="M468.11,194.03l-1.11-3.15h-5.57l-1.11,3.15h-3.81l5.89-15.65h3.81l5.89,15.65H468.11z M464.21,182.41
						l-1.95,5.62h3.9L464.21,182.41z"/>
					<path class="st2" d="M484.92,194.31c-4.6,0-8.2-3.04-8.2-8.06c0-5.05,3.65-8.07,8.2-8.07c3.22,0,4.96,1.34,5.37,1.77
						l-1.13,3.04c-0.29-0.39-1.97-1.63-4.03-1.63c-2.65,0-4.69,1.77-4.69,4.83s2.13,4.8,4.69,4.8c1.95,0,3.35-0.77,4.21-1.65
						l1.22,2.85C489.77,192.99,488.11,194.31,484.92,194.31z"/>
					<path class="st2" d="M506.97,194.03l-1.11-3.15h-5.57l-1.11,3.15h-3.81l5.89-15.65h3.81l5.89,15.65H506.97z M503.07,182.41
						l-1.95,5.62h3.9L503.07,182.41z M504.32,177.47h-2.58l1.79-3.29h3.1L504.32,177.47z"/>
					<path class="st2" d="M527.2,194.03l-6.86-10.6c0,0,0.07,1.88,0.07,3.53v7.07h-3.58V178.4h3.92l6.71,10.51
						c0,0-0.07-1.77-0.07-3.42v-7.09h3.58v15.63H527.2z"/>
				</g>
			</g>
		</g>
		<g>
			
				<ellipse transform="matrix(0.9732 -0.2298 0.2298 0.9732 -2.1601 38.1751)" class="st2" cx="162.85" cy="28.36" rx="19.38" ry="19.38"/>
			
				<ellipse transform="matrix(0.1455 -0.9894 0.9894 0.1455 17.5992 217.8681)" class="st2" cx="134.93" cy="98.75" rx="11.32" ry="8.47"/>
			<path class="st2" d="M149.93,121.09c4.49-4.41,8.31-9.5,11.27-15.06c-6.01,4.48-12.69,8.43-20.11,9.56
				c-9.03,1.37-18.41-1.72-25.61-7.33c-3.49-2.73-6.51-6.02-9.06-9.65c-1.01-1.44-1.68-3.16-2.44-4.74
				c-0.46-0.95-0.92-1.91-1.43-2.83c-0.44-0.8-0.94-1.57-1.41-2.35c-0.2-0.32-0.54-0.88-0.98-0.87c-0.2,0-0.38,0.15-0.48,0.33
				c-0.1,0.18-0.13,0.39-0.15,0.59c-0.06,0.54-0.08,1.08-0.06,1.63c0.01,0.54,0.06,1.09,0.13,1.63c0.04,0.3,0.09,0.59,0.14,0.89
				c0.3,1.67,0.6,3.32,1.04,4.96c0.6,2.2,1.37,4.35,2.33,6.42c1.11,2.4,2.47,4.68,4.11,6.75c2.85,3.61,6.43,6.06,9.94,8.96
				c2.25,1.86,4.31,4.17,4.97,7.02c0.39,1.69,0.25,3.46,0.18,5.2c-0.19,5.02,0.27,10.06,1.36,14.97c1.03,4.63,1.75,9.29,3.07,13.89
				c0.42,1.49,0.9,3.01,1.92,4.18c1.01,1.17,2.7,1.89,4.14,1.33c2.16-0.84,2.47-3.74,2.34-6.05c-0.4-6.84-1.61-13.63-3.58-20.18
				c3.76,6.86,8.13,13.38,13.06,19.46c1.63,2.01,3.35,4.01,5.54,5.39c1.98,1.25,6.36,2.98,7.8,0.07c0.54-1.09,0.4-2.43-0.08-3.55
				c-0.48-1.12-1.28-2.07-2.06-3.01c-1.02-1.22-2.03-2.44-3.05-3.66c-0.74-0.88-1.47-1.77-2.18-2.67c-0.75-0.97-1.47-1.96-2.16-2.97
				c-1.35-1.98-2.6-4.04-3.8-6.11c-1.69-2.9-3.57-5.88-3.35-9.38C141.59,128.63,146.16,124.8,149.93,121.09z"/>
			<path class="st2" d="M91.22,76.1c0,0-3.45,8.93-11.18,15.27c-4.37,3.76-8.27,6.09-8.27,6.09l-21.77,14.5
				c-20.59,12.05-28.57,10.06-28.57,10.06s-8.37-0.59,0.38,2.11c8.75,2.7,25.3-1.55,25.3-1.55c-1.3,5.33-1.51,10.64-3.91,15.76
				c-2.52,5.34-6.03,10.44-9.4,15.27c-1.2,1.72-2.48,3.4-3.89,4.96c-0.18,0.2-1.16,1.54-1.48,1.52c0,0,4.43,0.27,10.8,0.67
				c-2.99,5.38-5.98,10.76-8.96,16.13c-2.35,4.23-4.77,8.71-4.71,13.56c0.02,1.65,0.91,3.77,2.55,3.55c0.62-0.08,1.14-0.51,1.6-0.93
				c4.87-4.37,8.62-9.82,12.33-15.22c3.71-5.41,7.43-10.82,11.14-16.23c3.19,0.2,6.44,0.4,9.6,0.59c0.54,7.89-1.37,15.93-1.03,23.89
				c0.07,1.7,0.27,3.47,1.18,4.91c0.91,1.44,2.71,2.45,4.34,1.93c1.84-0.58,2.64-2.69,3.15-4.55c2.28-8.3,3.57-16.87,3.85-25.48
				c6.42,0.4,10.89,0.67,10.89,0.67c-0.33-0.04-1.11-1.49-1.28-1.74c-1.13-1.59-2.18-3.24-3.17-4.92
				c-2.87-4.87-5.23-10.09-6.83-15.47c0,0-0.43-1.25-0.82-3.42c-0.01-0.03-0.01-0.06-0.02-0.09c-0.97-5.5-1.67-16.95,5.22-30.59
				c0.34-0.67,5.31-10.11,6.48-11.78c0.99-1.41,2.96-5.2,3.83-6.69c1.29-2.18,2.32-4.51,3.08-6.93c0.82-2.62,1.29-5.55,0.11-8.03
				C91.65,74.67,91.22,76.1,91.22,76.1z"/>
			<path class="st2" d="M173.3,76.41c-6.29-9.01-14.34-16.68-23.49-22.75l0,0c-0.02-0.01-0.04-0.03-0.06-0.04
				c-0.59-0.39-1.18-0.77-1.78-1.15c-0.22-0.14-0.44-0.28-0.66-0.42c-0.03-0.02-0.07-0.04-0.1-0.06
				c-41.38-25.74-82.5-10.35-94.45-4.85c0,0,0.01,0,0.01,0s-2.88,1.18-4.39,2.23c-0.02,0.01-0.03,0.02-0.05,0.03
				c-0.09,0.06-0.19,0.12-0.27,0.19c-0.19,0.15-0.23,0.21-0.18,0.2c-0.11,0.1-0.24,0.18-0.34,0.3c-0.93,1.17-0.5,2.23,0.89,2.4
				c0.43,0.05,1.19,0.07,1.19,0.07s24.54-1.96,51.47,3.95l1.52,0.18c1.55,0.42,3.09,0.86,4.63,1.31
				c15.99,4.21,32.21,11.42,44.16,23.61c6.69,6.26,12.51,13.48,16.46,21.74c4.65,9.73,6.51,20.83,4.95,31.52
				c-0.15,1.05-0.17,3.64-0.86,4.45c2.99-3.53,5.57-7.4,7.67-11.52c1.77-3.48,3.58-7.09,4.04-10.97
				C185.85,98.75,181.49,88.15,173.3,76.41z"/>
			<path class="st2" d="M25.94,91.58c1.3-1.5,2.62-3.09,3-5.04c0-0.01,1.63-0.15,1.76-0.17c1.31-0.19,2.59-0.62,3.74-1.28
				c0.53-0.3,0.86-0.87,1.39-1.17c0.8-0.44,0.92,0.37,1.67,0.41c0.13,0.01,0.25-0.03,0.37-0.07c0.06-0.02,0.11-0.05,0.17-0.08
				c-0.35,1.39-0.55,2.85-0.55,4.37c0,8.65,6.13,15.66,13.69,15.66s13.69-7.01,13.69-15.66c0-8.65-6.13-15.66-13.69-15.66
				c-3.88,0-7.38,1.86-9.87,4.83c-0.06-0.02-0.12-0.05-0.18-0.06c-1.31-0.41-0.88-1.79-1.31-3c-1.03-2.89-3.73-5.18-6.78-5.6
				c-2.05-0.28-4.19,0.25-5.87,1.46c-2,1.45-3.24,3.75-3.88,6.13c-0.44,1.66-0.61,3.37-0.71,5.09c-0.09,1.57-0.4,2.68-0.92,4.15
				c-1,2.84-2.42,5.62-4.78,7.57c-3.72,3.07-6.62,2.33-4.93,2.74c4.63,1.14,6.99,0.13,9.5-1.11C23.25,94.23,24.65,93.07,25.94,91.58
				z"/>
		</g>
	</g>
</g>
</svg>
